<svg width="280" height="40" viewBox="0 0 280 40" fill="none" xmlns="http://www.w3.org/2000/svg">
<path d="M271.515 6.05971C270.625 2.49838 267.425 0 263.754 0H9.4437C4.50018 0 0.739838 4.43894 1.55255 9.31519L5.55255 33.3152C6.19547 37.1727 9.53299 40 13.4437 40H269.754C274.958 40 278.777 35.1089 277.515 30.0597L271.515 6.05971Z" fill="#2B2B40"/>
<path d="M271.03 6.18098C270.195 2.84223 267.195 0.5 263.754 0.5H9.4437C4.80914 0.5 1.28384 4.6615 2.04575 9.23299L6.04575 33.233C6.64847 36.8494 9.7774 39.5 13.4437 39.5H269.754C274.633 39.5 278.213 34.9146 277.03 30.181L271.03 6.18098Z" stroke="white" stroke-opacity="0.03"/>
<path d="M125.141 13.3672H127.195L129.445 20.5547L129.648 21.3906H129.68L129.836 20.5312L131.953 13.375H134.008L136.117 20.5156L136.297 21.3906H136.32L136.539 20.4609L138.766 13.3672H140.828L137.32 24H135.43L132.984 16.0391L130.531 24H128.648L125.141 13.3672Z" fill="white"/>
<path d="M142.984 14.7188C142.63 14.7188 142.346 14.6172 142.133 14.4141C141.924 14.2057 141.82 13.9453 141.82 13.6328C141.82 13.3255 141.924 13.0703 142.133 12.8672C142.346 12.6589 142.633 12.5547 142.992 12.5547C143.357 12.5547 143.646 12.6589 143.859 12.8672C144.073 13.0703 144.18 13.3255 144.18 13.6328C144.18 13.9505 144.073 14.2109 143.859 14.4141C143.646 14.6172 143.354 14.7188 142.984 14.7188ZM142.055 15.9688H143.945V24H142.055V15.9688Z" fill="white"/>
<path d="M147.961 15.9688V17.2188C148.195 16.7708 148.557 16.4115 149.047 16.1406C149.542 15.8646 150.094 15.7266 150.703 15.7266C151.771 15.7266 152.576 16.0651 153.117 16.7422C153.659 17.4193 153.93 18.3958 153.93 19.6719V24H152.039V19.7109C152.039 18.9401 151.878 18.375 151.555 18.0156C151.232 17.651 150.773 17.4688 150.18 17.4688C149.799 17.4688 149.448 17.5651 149.125 17.7578C148.802 17.9453 148.542 18.224 148.344 18.5938C148.151 18.9583 148.055 19.3932 148.055 19.8984V24H146.164V15.9688H147.961Z" fill="white"/>
</svg>
