<svg width="18" height="17" viewBox="0 0 18 17" fill="none" xmlns="http://www.w3.org/2000/svg">
<path d="M7.06397 16.2605L7.03978 16.3575C2.70127 15.2757 0.0601472 10.8804 1.14261 6.5414L7.06397 16.2605ZM7.06397 16.2605L7.03978 16.3575C11.38 17.4396 15.7755 14.7988 16.8574 10.4595M7.06397 16.2605L16.8574 10.4595M16.8574 10.4595C17.9394 6.11994 15.2985 1.72422 10.9585 0.642368C6.61954 -0.439484 2.22408 2.2016 1.14261 6.54137L16.8574 10.4595Z" fill="#F7DE11" stroke="black" stroke-width="0.2"/>
<path d="M15.3053 10.0724L15.4023 10.0966C14.5207 13.6323 10.9392 15.7841 7.40268 14.9024C3.86759 14.0209 1.71554 10.4396 2.59755 6.90412L15.3053 10.0724ZM15.3053 10.0724L15.4024 10.0966C16.284 6.56071 14.1321 2.97898 10.5958 2.09748C7.06028 1.21597 3.47877 3.36796 2.59756 6.90409L15.3053 10.0724Z" fill="#F7DE11" stroke="black" stroke-width="0.2"/>
<path fill-rule="evenodd" clip-rule="evenodd" d="M9.90233 9.09001C9.98437 8.49244 9.80479 7.78025 9.84468 7.18212C9.90524 6.27402 9.92347 5.95691 9.98557 5.37274C10.0019 4.95578 10.7391 4.53027 11.0069 4.5013C11.2747 4.47232 11.5311 4.93534 11.5601 5.20312C11.6062 5.62951 11.2795 6.15731 11.3197 7.12208C11.3079 8.02431 11.1513 8.72201 11.0471 9.48128C10.942 10.2468 10.7913 10.8053 10.6137 11.3035C10.5309 11.5355 10.4138 11.8807 10.2288 12.0522C10.1261 12.1474 10.0308 12.3312 9.82025 12.3311C9.60927 12.3309 9.47239 12.2061 9.36419 12.1049C9.17574 11.9285 9.07106 11.6893 8.9296 11.4406C8.78507 11.1864 8.56295 10.9184 8.43324 10.6155C8.22349 10.1257 8.02297 9.57997 7.84182 9.08698C7.80001 8.97318 7.75922 8.86219 7.7196 8.75535C7.67339 8.63075 7.59145 8.57915 7.56219 8.72629C7.47233 9.38391 7.41468 9.32175 7.38444 9.88555C7.37815 10.0028 7.41188 10.4764 7.40615 10.5909C7.37536 11.2076 7.15563 11.559 7.06692 11.9794C7.01132 12.243 7.1366 12.549 6.87305 12.4934C6.60951 12.4378 6.38833 11.9564 6.44393 11.6928C6.51521 11.355 6.43231 11.1433 6.46392 10.5206C6.46994 10.402 6.54574 9.52968 6.55269 9.40003C6.59479 8.61516 6.55791 8.47008 6.75021 7.46767C6.77558 7.3354 6.8081 7.20924 6.85365 7.10029C6.89278 7.00671 6.97339 6.8458 7.14186 6.74502C7.36387 6.61219 7.59419 6.66008 7.74512 6.75062C7.86892 6.82488 7.9544 6.932 8.00748 7.00731C8.12 7.16695 8.11668 7.30967 8.21299 7.53608C8.31285 7.77084 8.52637 8.12565 8.63412 8.41617C8.67604 8.52918 8.71841 8.64448 8.76127 8.76107C8.94202 9.25284 8.87908 9.30061 9.0777 9.76444C9.19994 10.0499 9.51626 10.7494 9.6357 10.9594C9.74156 11.1455 9.67019 10.6441 9.78773 10.3677C9.92617 9.96698 9.80139 9.82536 9.90233 9.09001Z" fill="#FFFFFE" stroke="black" stroke-width="0.2" stroke-linecap="round"/>
</svg>
