<svg width="140" height="47" viewBox="0 0 140 47" fill="none" xmlns="http://www.w3.org/2000/svg">
<rect y="3" width="140" height="44" rx="12" fill="black" fill-opacity="0.2"/>
<rect width="140" height="44" rx="12" fill="#E9A200"/>
<rect width="140" height="40" rx="12" fill="#FFDD00"/>
<mask id="mask0_1100_1708" style="mask-type:alpha" maskUnits="userSpaceOnUse" x="0" y="0" width="140" height="44">
<rect width="140" height="44" rx="11.3333" fill="#F6DA00"/>
</mask>
<g mask="url(#mask0_1100_1708)">
<path d="M5.1853 38.0285V49.8823H122.519C135.037 49.8823 145.185 39.7341 145.185 27.2157V2.15047C145.185 -0.596602 142.958 -2.82355 140.211 -2.82355C137.464 -2.82355 135.237 -0.596606 135.237 2.15047V16.8556C135.237 22.2898 130.832 26.6952 125.398 26.6952H16.5186C10.2594 26.6952 5.1853 31.7693 5.1853 38.0285Z" fill="black" fill-opacity="0.1"/>
</g>
<rect x="0.5" y="0.5" width="139" height="43" rx="11.5" stroke="#010003"/>
<path d="M37.338 14.6C37.5873 14.6 37.712 15.2526 37.712 16.558C37.712 17.8486 37.5873 18.494 37.338 18.494H33.312V21.002H35.996C36.2453 21.002 36.37 21.574 36.37 22.718C36.37 23.8473 36.2527 24.412 36.018 24.412H33.312V29.714C33.312 29.9193 33.0333 30.0513 32.476 30.11C31.9333 30.1833 31.4787 30.22 31.112 30.22L30.078 30.176C29.3593 30.088 29 29.9413 29 29.736V15.172C29 14.9373 29.044 14.7833 29.132 14.71C29.2347 14.6366 29.3813 14.6 29.572 14.6H37.338Z" fill="#5C5000"/>
<path d="M43.6364 29.978C43.6364 30.0806 42.969 30.132 41.6344 30.132C40.2997 30.1026 39.6324 30.044 39.6324 29.956V22.652H39.0384C38.8037 22.652 38.613 22.5126 38.4664 22.234C38.3344 21.9406 38.2684 21.5813 38.2684 21.156C38.2684 19.572 38.7377 18.78 39.6764 18.78C40.3364 18.78 40.8864 18.9853 41.3264 19.396C41.7664 19.792 41.9864 20.2466 41.9864 20.76C42.2944 20.1586 42.705 19.682 43.2184 19.33C43.7464 18.9633 44.2817 18.78 44.8244 18.78C45.675 18.78 46.1884 19 46.3644 19.44C46.4084 19.5573 46.4304 19.7333 46.4304 19.968C46.4304 20.188 46.357 20.5913 46.2104 21.178C46.0784 21.7646 45.939 22.19 45.7924 22.454C45.6457 22.718 45.5577 22.85 45.5284 22.85C45.499 22.85 45.3597 22.7986 45.1104 22.696C44.8757 22.5786 44.663 22.52 44.4724 22.52C43.915 22.52 43.6364 22.96 43.6364 23.84V29.978Z" fill="#5C5000"/>
<path d="M55.857 29.406C54.933 29.9486 53.745 30.22 52.293 30.22C50.841 30.22 49.6163 29.7286 48.619 28.746C47.6217 27.7486 47.123 26.3773 47.123 24.632C47.123 22.872 47.5997 21.4566 48.553 20.386C49.521 19.3153 50.7383 18.78 52.205 18.78C53.6717 18.78 54.801 19.154 55.593 19.902C56.3997 20.65 56.803 21.5593 56.803 22.63C56.803 25.006 55.439 26.194 52.711 26.194H51.193C51.193 26.634 51.3103 26.942 51.545 27.118C51.7943 27.2793 52.1537 27.36 52.623 27.36C53.6497 27.36 54.625 27.1253 55.549 26.656C55.5637 26.6413 55.6297 26.744 55.747 26.964C56.099 27.5946 56.275 28.13 56.275 28.57C56.275 28.9953 56.1357 29.274 55.857 29.406ZM53.107 23.048C53.107 22.432 52.8063 22.124 52.205 22.124C51.9263 22.124 51.6843 22.212 51.479 22.388C51.2883 22.5493 51.193 22.7913 51.193 23.114V23.796H52.381C52.865 23.796 53.107 23.5466 53.107 23.048Z" fill="#5C5000"/>
<path d="M66.5562 29.406C65.6322 29.9486 64.4442 30.22 62.9922 30.22C61.5402 30.22 60.3156 29.7286 59.3182 28.746C58.3209 27.7486 57.8222 26.3773 57.8222 24.632C57.8222 22.872 58.2989 21.4566 59.2522 20.386C60.2202 19.3153 61.4376 18.78 62.9042 18.78C64.3709 18.78 65.5002 19.154 66.2922 19.902C67.0989 20.65 67.5022 21.5593 67.5022 22.63C67.5022 25.006 66.1382 26.194 63.4102 26.194H61.8922C61.8922 26.634 62.0096 26.942 62.2442 27.118C62.4936 27.2793 62.8529 27.36 63.3222 27.36C64.3489 27.36 65.3242 27.1253 66.2482 26.656C66.2629 26.6413 66.3289 26.744 66.4462 26.964C66.7982 27.5946 66.9742 28.13 66.9742 28.57C66.9742 28.9953 66.8349 29.274 66.5562 29.406ZM63.8062 23.048C63.8062 22.432 63.5056 22.124 62.9042 22.124C62.6256 22.124 62.3836 22.212 62.1782 22.388C61.9876 22.5493 61.8922 22.7913 61.8922 23.114V23.796H63.0802C63.5642 23.796 63.8062 23.5466 63.8062 23.048Z" fill="#5C5000"/>
<path d="M78.9055 29.89C78.9055 29.9926 78.2748 30.044 77.0135 30.044C75.7668 30.044 75.1435 29.978 75.1435 29.846V23.444C75.1435 22.7106 74.9015 22.344 74.4175 22.344C74.1681 22.344 73.8381 22.5053 73.4275 22.828V29.868C73.4275 30.0146 72.7968 30.088 71.5355 30.088C70.2888 30.088 69.6655 30.0073 69.6655 29.846V22.652H69.1155C68.6315 22.652 68.3895 22.146 68.3895 21.134C68.3895 20.6793 68.4775 20.2173 68.6535 19.748C68.8881 19.1026 69.2695 18.78 69.7975 18.78C70.3255 18.78 70.8315 18.9193 71.3155 19.198C71.8141 19.4766 72.1148 19.7406 72.2175 19.99C73.1268 19.1833 74.1315 18.78 75.2315 18.78C76.3461 18.78 77.2408 19.1246 77.9155 19.814C78.7075 19.1246 79.6608 18.78 80.7755 18.78C83.1955 18.78 84.4055 20.254 84.4055 23.202V29.89C84.4055 29.9926 83.7748 30.044 82.5135 30.044C81.2668 30.044 80.6435 29.978 80.6435 29.846V23.444C80.6435 22.7106 80.4015 22.344 79.9175 22.344C79.6535 22.344 79.3161 22.5053 78.9055 22.828V29.89Z" fill="#5C5000"/>
<path d="M90.3033 29.868C90.3033 29.9853 89.6287 30.044 88.2793 30.044C86.9447 30.044 86.2773 29.9926 86.2773 29.89V19.088C86.2773 18.9853 86.9447 18.934 88.2793 18.934C89.6287 18.934 90.3033 18.978 90.3033 19.066V29.868ZM90.3033 17.768C90.3033 17.8706 89.6287 17.922 88.2793 17.922C86.9447 17.922 86.2773 17.878 86.2773 17.79V14.622C86.2773 14.4753 86.9447 14.402 88.2793 14.402C89.6287 14.402 90.3033 14.446 90.3033 14.534V17.768Z" fill="#5C5000"/>
<path d="M96.891 29.868C96.891 29.9706 96.363 30.022 95.307 30.022C93.8403 29.978 93.107 29.8973 93.107 29.78V22.652H92.535C92.1536 22.652 91.9043 22.3293 91.787 21.684C91.7576 21.4933 91.743 21.3026 91.743 21.112C91.743 20.6573 91.831 20.2026 92.007 19.748C92.271 19.1026 92.6816 18.78 93.239 18.78C93.7963 18.78 94.295 18.912 94.735 19.176C95.175 19.44 95.4683 19.704 95.615 19.968C96.539 19.176 97.639 18.78 98.915 18.78C100.191 18.78 101.115 19.1246 101.687 19.814C102.259 20.5033 102.545 21.6326 102.545 23.202V29.802C102.545 29.978 101.914 30.066 100.653 30.066C99.4063 30.066 98.783 29.978 98.783 29.802V23.444C98.783 22.7106 98.5263 22.344 98.013 22.344C97.8663 22.344 97.661 22.41 97.397 22.542C97.133 22.6593 96.9643 22.7473 96.891 22.806V29.868Z" fill="#5C5000"/>
<path d="M109.47 29.868C109.47 30.044 108.854 30.132 107.622 30.132C106.155 30.0733 105.422 29.978 105.422 29.846V22.058H104.3C104.007 22.058 103.86 21.552 103.86 20.54C103.86 20.276 103.882 19.9533 103.926 19.572C103.985 19.1906 104.095 19 104.256 19H105.422V17.064C105.422 16.7706 106.038 16.624 107.27 16.624C108.517 16.624 109.14 16.7413 109.14 16.976V18.384L109.162 19H111.032C111.281 19 111.406 19.5133 111.406 20.54C111.406 21.5666 111.281 22.08 111.032 22.08H109.47V29.868Z" fill="#5C5000"/>
<mask id="path-8-outside-1_1100_1708" maskUnits="userSpaceOnUse" x="28" y="10.402" width="85" height="18" fill="black">
<rect fill="white" x="28" y="10.402" width="85" height="18"/>
<path d="M37.338 11.6C37.5873 11.6 37.712 12.2526 37.712 13.558C37.712 14.8486 37.5873 15.494 37.338 15.494H33.312V18.002H35.996C36.2453 18.002 36.37 18.574 36.37 19.718C36.37 20.8473 36.2527 21.412 36.018 21.412H33.312V26.714C33.312 26.9193 33.0333 27.0513 32.476 27.11C31.9333 27.1833 31.4787 27.22 31.112 27.22L30.078 27.176C29.3593 27.088 29 26.9413 29 26.736V12.172C29 11.9373 29.044 11.7833 29.132 11.71C29.2347 11.6366 29.3813 11.6 29.572 11.6H37.338Z"/>
<path d="M43.6364 26.978C43.6364 27.0806 42.969 27.132 41.6344 27.132C40.2997 27.1026 39.6324 27.044 39.6324 26.956V19.652H39.0384C38.8037 19.652 38.613 19.5126 38.4664 19.234C38.3344 18.9406 38.2684 18.5813 38.2684 18.156C38.2684 16.572 38.7377 15.78 39.6764 15.78C40.3364 15.78 40.8864 15.9853 41.3264 16.396C41.7664 16.792 41.9864 17.2466 41.9864 17.76C42.2944 17.1586 42.705 16.682 43.2184 16.33C43.7464 15.9633 44.2817 15.78 44.8244 15.78C45.675 15.78 46.1884 16 46.3644 16.44C46.4084 16.5573 46.4304 16.7333 46.4304 16.968C46.4304 17.188 46.357 17.5913 46.2104 18.178C46.0784 18.7646 45.939 19.19 45.7924 19.454C45.6457 19.718 45.5577 19.85 45.5284 19.85C45.499 19.85 45.3597 19.7986 45.1104 19.696C44.8757 19.5786 44.663 19.52 44.4724 19.52C43.915 19.52 43.6364 19.96 43.6364 20.84V26.978Z"/>
<path d="M55.857 26.406C54.933 26.9486 53.745 27.22 52.293 27.22C50.841 27.22 49.6163 26.7286 48.619 25.746C47.6217 24.7486 47.123 23.3773 47.123 21.632C47.123 19.872 47.5997 18.4566 48.553 17.386C49.521 16.3153 50.7383 15.78 52.205 15.78C53.6717 15.78 54.801 16.154 55.593 16.902C56.3997 17.65 56.803 18.5593 56.803 19.63C56.803 22.006 55.439 23.194 52.711 23.194H51.193C51.193 23.634 51.3103 23.942 51.545 24.118C51.7943 24.2793 52.1537 24.36 52.623 24.36C53.6497 24.36 54.625 24.1253 55.549 23.656C55.5637 23.6413 55.6297 23.744 55.747 23.964C56.099 24.5946 56.275 25.13 56.275 25.57C56.275 25.9953 56.1357 26.274 55.857 26.406ZM53.107 20.048C53.107 19.432 52.8063 19.124 52.205 19.124C51.9263 19.124 51.6843 19.212 51.479 19.388C51.2883 19.5493 51.193 19.7913 51.193 20.114V20.796H52.381C52.865 20.796 53.107 20.5466 53.107 20.048Z"/>
<path d="M66.5562 26.406C65.6322 26.9486 64.4442 27.22 62.9922 27.22C61.5402 27.22 60.3156 26.7286 59.3182 25.746C58.3209 24.7486 57.8222 23.3773 57.8222 21.632C57.8222 19.872 58.2989 18.4566 59.2522 17.386C60.2202 16.3153 61.4376 15.78 62.9042 15.78C64.3709 15.78 65.5002 16.154 66.2922 16.902C67.0989 17.65 67.5022 18.5593 67.5022 19.63C67.5022 22.006 66.1382 23.194 63.4102 23.194H61.8922C61.8922 23.634 62.0096 23.942 62.2442 24.118C62.4936 24.2793 62.8529 24.36 63.3222 24.36C64.3489 24.36 65.3242 24.1253 66.2482 23.656C66.2629 23.6413 66.3289 23.744 66.4462 23.964C66.7982 24.5946 66.9742 25.13 66.9742 25.57C66.9742 25.9953 66.8349 26.274 66.5562 26.406ZM63.8062 20.048C63.8062 19.432 63.5056 19.124 62.9042 19.124C62.6256 19.124 62.3836 19.212 62.1782 19.388C61.9876 19.5493 61.8922 19.7913 61.8922 20.114V20.796H63.0802C63.5642 20.796 63.8062 20.5466 63.8062 20.048Z"/>
<path d="M78.9055 26.89C78.9055 26.9926 78.2748 27.044 77.0135 27.044C75.7668 27.044 75.1435 26.978 75.1435 26.846V20.444C75.1435 19.7106 74.9015 19.344 74.4175 19.344C74.1681 19.344 73.8381 19.5053 73.4275 19.828V26.868C73.4275 27.0146 72.7968 27.088 71.5355 27.088C70.2888 27.088 69.6655 27.0073 69.6655 26.846V19.652H69.1155C68.6315 19.652 68.3895 19.146 68.3895 18.134C68.3895 17.6793 68.4775 17.2173 68.6535 16.748C68.8881 16.1026 69.2695 15.78 69.7975 15.78C70.3255 15.78 70.8315 15.9193 71.3155 16.198C71.8141 16.4766 72.1148 16.7406 72.2175 16.99C73.1268 16.1833 74.1315 15.78 75.2315 15.78C76.3461 15.78 77.2408 16.1246 77.9155 16.814C78.7075 16.1246 79.6608 15.78 80.7755 15.78C83.1955 15.78 84.4055 17.254 84.4055 20.202V26.89C84.4055 26.9926 83.7748 27.044 82.5135 27.044C81.2668 27.044 80.6435 26.978 80.6435 26.846V20.444C80.6435 19.7106 80.4015 19.344 79.9175 19.344C79.6535 19.344 79.3161 19.5053 78.9055 19.828V26.89Z"/>
<path d="M90.3033 26.868C90.3033 26.9853 89.6287 27.044 88.2793 27.044C86.9447 27.044 86.2773 26.9926 86.2773 26.89V16.088C86.2773 15.9853 86.9447 15.934 88.2793 15.934C89.6287 15.934 90.3033 15.978 90.3033 16.066V26.868ZM90.3033 14.768C90.3033 14.8706 89.6287 14.922 88.2793 14.922C86.9447 14.922 86.2773 14.878 86.2773 14.79V11.622C86.2773 11.4753 86.9447 11.402 88.2793 11.402C89.6287 11.402 90.3033 11.446 90.3033 11.534V14.768Z"/>
<path d="M96.891 26.868C96.891 26.9706 96.363 27.022 95.307 27.022C93.8403 26.978 93.107 26.8973 93.107 26.78V19.652H92.535C92.1536 19.652 91.9043 19.3293 91.787 18.684C91.7576 18.4933 91.743 18.3026 91.743 18.112C91.743 17.6573 91.831 17.2026 92.007 16.748C92.271 16.1026 92.6816 15.78 93.239 15.78C93.7963 15.78 94.295 15.912 94.735 16.176C95.175 16.44 95.4683 16.704 95.615 16.968C96.539 16.176 97.639 15.78 98.915 15.78C100.191 15.78 101.115 16.1246 101.687 16.814C102.259 17.5033 102.545 18.6326 102.545 20.202V26.802C102.545 26.978 101.914 27.066 100.653 27.066C99.4063 27.066 98.783 26.978 98.783 26.802V20.444C98.783 19.7106 98.5263 19.344 98.013 19.344C97.8663 19.344 97.661 19.41 97.397 19.542C97.133 19.6593 96.9643 19.7473 96.891 19.806V26.868Z"/>
<path d="M109.47 26.868C109.47 27.044 108.854 27.132 107.622 27.132C106.155 27.0733 105.422 26.978 105.422 26.846V19.058H104.3C104.007 19.058 103.86 18.552 103.86 17.54C103.86 17.276 103.882 16.9533 103.926 16.572C103.985 16.1906 104.095 16 104.256 16H105.422V14.064C105.422 13.7706 106.038 13.624 107.27 13.624C108.517 13.624 109.14 13.7413 109.14 13.976V15.384L109.162 16H111.032C111.281 16 111.406 16.5133 111.406 17.54C111.406 18.5666 111.281 19.08 111.032 19.08H109.47V26.868Z"/>
</mask>
<path d="M37.338 11.6C37.5873 11.6 37.712 12.2526 37.712 13.558C37.712 14.8486 37.5873 15.494 37.338 15.494H33.312V18.002H35.996C36.2453 18.002 36.37 18.574 36.37 19.718C36.37 20.8473 36.2527 21.412 36.018 21.412H33.312V26.714C33.312 26.9193 33.0333 27.0513 32.476 27.11C31.9333 27.1833 31.4787 27.22 31.112 27.22L30.078 27.176C29.3593 27.088 29 26.9413 29 26.736V12.172C29 11.9373 29.044 11.7833 29.132 11.71C29.2347 11.6366 29.3813 11.6 29.572 11.6H37.338Z" fill="white"/>
<path d="M43.6364 26.978C43.6364 27.0806 42.969 27.132 41.6344 27.132C40.2997 27.1026 39.6324 27.044 39.6324 26.956V19.652H39.0384C38.8037 19.652 38.613 19.5126 38.4664 19.234C38.3344 18.9406 38.2684 18.5813 38.2684 18.156C38.2684 16.572 38.7377 15.78 39.6764 15.78C40.3364 15.78 40.8864 15.9853 41.3264 16.396C41.7664 16.792 41.9864 17.2466 41.9864 17.76C42.2944 17.1586 42.705 16.682 43.2184 16.33C43.7464 15.9633 44.2817 15.78 44.8244 15.78C45.675 15.78 46.1884 16 46.3644 16.44C46.4084 16.5573 46.4304 16.7333 46.4304 16.968C46.4304 17.188 46.357 17.5913 46.2104 18.178C46.0784 18.7646 45.939 19.19 45.7924 19.454C45.6457 19.718 45.5577 19.85 45.5284 19.85C45.499 19.85 45.3597 19.7986 45.1104 19.696C44.8757 19.5786 44.663 19.52 44.4724 19.52C43.915 19.52 43.6364 19.96 43.6364 20.84V26.978Z" fill="white"/>
<path d="M55.857 26.406C54.933 26.9486 53.745 27.22 52.293 27.22C50.841 27.22 49.6163 26.7286 48.619 25.746C47.6217 24.7486 47.123 23.3773 47.123 21.632C47.123 19.872 47.5997 18.4566 48.553 17.386C49.521 16.3153 50.7383 15.78 52.205 15.78C53.6717 15.78 54.801 16.154 55.593 16.902C56.3997 17.65 56.803 18.5593 56.803 19.63C56.803 22.006 55.439 23.194 52.711 23.194H51.193C51.193 23.634 51.3103 23.942 51.545 24.118C51.7943 24.2793 52.1537 24.36 52.623 24.36C53.6497 24.36 54.625 24.1253 55.549 23.656C55.5637 23.6413 55.6297 23.744 55.747 23.964C56.099 24.5946 56.275 25.13 56.275 25.57C56.275 25.9953 56.1357 26.274 55.857 26.406ZM53.107 20.048C53.107 19.432 52.8063 19.124 52.205 19.124C51.9263 19.124 51.6843 19.212 51.479 19.388C51.2883 19.5493 51.193 19.7913 51.193 20.114V20.796H52.381C52.865 20.796 53.107 20.5466 53.107 20.048Z" fill="white"/>
<path d="M66.5562 26.406C65.6322 26.9486 64.4442 27.22 62.9922 27.22C61.5402 27.22 60.3156 26.7286 59.3182 25.746C58.3209 24.7486 57.8222 23.3773 57.8222 21.632C57.8222 19.872 58.2989 18.4566 59.2522 17.386C60.2202 16.3153 61.4376 15.78 62.9042 15.78C64.3709 15.78 65.5002 16.154 66.2922 16.902C67.0989 17.65 67.5022 18.5593 67.5022 19.63C67.5022 22.006 66.1382 23.194 63.4102 23.194H61.8922C61.8922 23.634 62.0096 23.942 62.2442 24.118C62.4936 24.2793 62.8529 24.36 63.3222 24.36C64.3489 24.36 65.3242 24.1253 66.2482 23.656C66.2629 23.6413 66.3289 23.744 66.4462 23.964C66.7982 24.5946 66.9742 25.13 66.9742 25.57C66.9742 25.9953 66.8349 26.274 66.5562 26.406ZM63.8062 20.048C63.8062 19.432 63.5056 19.124 62.9042 19.124C62.6256 19.124 62.3836 19.212 62.1782 19.388C61.9876 19.5493 61.8922 19.7913 61.8922 20.114V20.796H63.0802C63.5642 20.796 63.8062 20.5466 63.8062 20.048Z" fill="white"/>
<path d="M78.9055 26.89C78.9055 26.9926 78.2748 27.044 77.0135 27.044C75.7668 27.044 75.1435 26.978 75.1435 26.846V20.444C75.1435 19.7106 74.9015 19.344 74.4175 19.344C74.1681 19.344 73.8381 19.5053 73.4275 19.828V26.868C73.4275 27.0146 72.7968 27.088 71.5355 27.088C70.2888 27.088 69.6655 27.0073 69.6655 26.846V19.652H69.1155C68.6315 19.652 68.3895 19.146 68.3895 18.134C68.3895 17.6793 68.4775 17.2173 68.6535 16.748C68.8881 16.1026 69.2695 15.78 69.7975 15.78C70.3255 15.78 70.8315 15.9193 71.3155 16.198C71.8141 16.4766 72.1148 16.7406 72.2175 16.99C73.1268 16.1833 74.1315 15.78 75.2315 15.78C76.3461 15.78 77.2408 16.1246 77.9155 16.814C78.7075 16.1246 79.6608 15.78 80.7755 15.78C83.1955 15.78 84.4055 17.254 84.4055 20.202V26.89C84.4055 26.9926 83.7748 27.044 82.5135 27.044C81.2668 27.044 80.6435 26.978 80.6435 26.846V20.444C80.6435 19.7106 80.4015 19.344 79.9175 19.344C79.6535 19.344 79.3161 19.5053 78.9055 19.828V26.89Z" fill="white"/>
<path d="M90.3033 26.868C90.3033 26.9853 89.6287 27.044 88.2793 27.044C86.9447 27.044 86.2773 26.9926 86.2773 26.89V16.088C86.2773 15.9853 86.9447 15.934 88.2793 15.934C89.6287 15.934 90.3033 15.978 90.3033 16.066V26.868ZM90.3033 14.768C90.3033 14.8706 89.6287 14.922 88.2793 14.922C86.9447 14.922 86.2773 14.878 86.2773 14.79V11.622C86.2773 11.4753 86.9447 11.402 88.2793 11.402C89.6287 11.402 90.3033 11.446 90.3033 11.534V14.768Z" fill="white"/>
<path d="M96.891 26.868C96.891 26.9706 96.363 27.022 95.307 27.022C93.8403 26.978 93.107 26.8973 93.107 26.78V19.652H92.535C92.1536 19.652 91.9043 19.3293 91.787 18.684C91.7576 18.4933 91.743 18.3026 91.743 18.112C91.743 17.6573 91.831 17.2026 92.007 16.748C92.271 16.1026 92.6816 15.78 93.239 15.78C93.7963 15.78 94.295 15.912 94.735 16.176C95.175 16.44 95.4683 16.704 95.615 16.968C96.539 16.176 97.639 15.78 98.915 15.78C100.191 15.78 101.115 16.1246 101.687 16.814C102.259 17.5033 102.545 18.6326 102.545 20.202V26.802C102.545 26.978 101.914 27.066 100.653 27.066C99.4063 27.066 98.783 26.978 98.783 26.802V20.444C98.783 19.7106 98.5263 19.344 98.013 19.344C97.8663 19.344 97.661 19.41 97.397 19.542C97.133 19.6593 96.9643 19.7473 96.891 19.806V26.868Z" fill="white"/>
<path d="M109.47 26.868C109.47 27.044 108.854 27.132 107.622 27.132C106.155 27.0733 105.422 26.978 105.422 26.846V19.058H104.3C104.007 19.058 103.86 18.552 103.86 17.54C103.86 17.276 103.882 16.9533 103.926 16.572C103.985 16.1906 104.095 16 104.256 16H105.422V14.064C105.422 13.7706 106.038 13.624 107.27 13.624C108.517 13.624 109.14 13.7413 109.14 13.976V15.384L109.162 16H111.032C111.281 16 111.406 16.5133 111.406 17.54C111.406 18.5666 111.281 19.08 111.032 19.08H109.47V26.868Z" fill="white"/>
<path d="M37.338 11.6C37.5873 11.6 37.712 12.2526 37.712 13.558C37.712 14.8486 37.5873 15.494 37.338 15.494H33.312V18.002H35.996C36.2453 18.002 36.37 18.574 36.37 19.718C36.37 20.8473 36.2527 21.412 36.018 21.412H33.312V26.714C33.312 26.9193 33.0333 27.0513 32.476 27.11C31.9333 27.1833 31.4787 27.22 31.112 27.22L30.078 27.176C29.3593 27.088 29 26.9413 29 26.736V12.172C29 11.9373 29.044 11.7833 29.132 11.71C29.2347 11.6366 29.3813 11.6 29.572 11.6H37.338Z" stroke="#010003" stroke-width="2" mask="url(#path-8-outside-1_1100_1708)"/>
<path d="M43.6364 26.978C43.6364 27.0806 42.969 27.132 41.6344 27.132C40.2997 27.1026 39.6324 27.044 39.6324 26.956V19.652H39.0384C38.8037 19.652 38.613 19.5126 38.4664 19.234C38.3344 18.9406 38.2684 18.5813 38.2684 18.156C38.2684 16.572 38.7377 15.78 39.6764 15.78C40.3364 15.78 40.8864 15.9853 41.3264 16.396C41.7664 16.792 41.9864 17.2466 41.9864 17.76C42.2944 17.1586 42.705 16.682 43.2184 16.33C43.7464 15.9633 44.2817 15.78 44.8244 15.78C45.675 15.78 46.1884 16 46.3644 16.44C46.4084 16.5573 46.4304 16.7333 46.4304 16.968C46.4304 17.188 46.357 17.5913 46.2104 18.178C46.0784 18.7646 45.939 19.19 45.7924 19.454C45.6457 19.718 45.5577 19.85 45.5284 19.85C45.499 19.85 45.3597 19.7986 45.1104 19.696C44.8757 19.5786 44.663 19.52 44.4724 19.52C43.915 19.52 43.6364 19.96 43.6364 20.84V26.978Z" stroke="#010003" stroke-width="2" mask="url(#path-8-outside-1_1100_1708)"/>
<path d="M55.857 26.406C54.933 26.9486 53.745 27.22 52.293 27.22C50.841 27.22 49.6163 26.7286 48.619 25.746C47.6217 24.7486 47.123 23.3773 47.123 21.632C47.123 19.872 47.5997 18.4566 48.553 17.386C49.521 16.3153 50.7383 15.78 52.205 15.78C53.6717 15.78 54.801 16.154 55.593 16.902C56.3997 17.65 56.803 18.5593 56.803 19.63C56.803 22.006 55.439 23.194 52.711 23.194H51.193C51.193 23.634 51.3103 23.942 51.545 24.118C51.7943 24.2793 52.1537 24.36 52.623 24.36C53.6497 24.36 54.625 24.1253 55.549 23.656C55.5637 23.6413 55.6297 23.744 55.747 23.964C56.099 24.5946 56.275 25.13 56.275 25.57C56.275 25.9953 56.1357 26.274 55.857 26.406ZM53.107 20.048C53.107 19.432 52.8063 19.124 52.205 19.124C51.9263 19.124 51.6843 19.212 51.479 19.388C51.2883 19.5493 51.193 19.7913 51.193 20.114V20.796H52.381C52.865 20.796 53.107 20.5466 53.107 20.048Z" stroke="#010003" stroke-width="2" mask="url(#path-8-outside-1_1100_1708)"/>
<path d="M66.5562 26.406C65.6322 26.9486 64.4442 27.22 62.9922 27.22C61.5402 27.22 60.3156 26.7286 59.3182 25.746C58.3209 24.7486 57.8222 23.3773 57.8222 21.632C57.8222 19.872 58.2989 18.4566 59.2522 17.386C60.2202 16.3153 61.4376 15.78 62.9042 15.78C64.3709 15.78 65.5002 16.154 66.2922 16.902C67.0989 17.65 67.5022 18.5593 67.5022 19.63C67.5022 22.006 66.1382 23.194 63.4102 23.194H61.8922C61.8922 23.634 62.0096 23.942 62.2442 24.118C62.4936 24.2793 62.8529 24.36 63.3222 24.36C64.3489 24.36 65.3242 24.1253 66.2482 23.656C66.2629 23.6413 66.3289 23.744 66.4462 23.964C66.7982 24.5946 66.9742 25.13 66.9742 25.57C66.9742 25.9953 66.8349 26.274 66.5562 26.406ZM63.8062 20.048C63.8062 19.432 63.5056 19.124 62.9042 19.124C62.6256 19.124 62.3836 19.212 62.1782 19.388C61.9876 19.5493 61.8922 19.7913 61.8922 20.114V20.796H63.0802C63.5642 20.796 63.8062 20.5466 63.8062 20.048Z" stroke="#010003" stroke-width="2" mask="url(#path-8-outside-1_1100_1708)"/>
<path d="M78.9055 26.89C78.9055 26.9926 78.2748 27.044 77.0135 27.044C75.7668 27.044 75.1435 26.978 75.1435 26.846V20.444C75.1435 19.7106 74.9015 19.344 74.4175 19.344C74.1681 19.344 73.8381 19.5053 73.4275 19.828V26.868C73.4275 27.0146 72.7968 27.088 71.5355 27.088C70.2888 27.088 69.6655 27.0073 69.6655 26.846V19.652H69.1155C68.6315 19.652 68.3895 19.146 68.3895 18.134C68.3895 17.6793 68.4775 17.2173 68.6535 16.748C68.8881 16.1026 69.2695 15.78 69.7975 15.78C70.3255 15.78 70.8315 15.9193 71.3155 16.198C71.8141 16.4766 72.1148 16.7406 72.2175 16.99C73.1268 16.1833 74.1315 15.78 75.2315 15.78C76.3461 15.78 77.2408 16.1246 77.9155 16.814C78.7075 16.1246 79.6608 15.78 80.7755 15.78C83.1955 15.78 84.4055 17.254 84.4055 20.202V26.89C84.4055 26.9926 83.7748 27.044 82.5135 27.044C81.2668 27.044 80.6435 26.978 80.6435 26.846V20.444C80.6435 19.7106 80.4015 19.344 79.9175 19.344C79.6535 19.344 79.3161 19.5053 78.9055 19.828V26.89Z" stroke="#010003" stroke-width="2" mask="url(#path-8-outside-1_1100_1708)"/>
<path d="M90.3033 26.868C90.3033 26.9853 89.6287 27.044 88.2793 27.044C86.9447 27.044 86.2773 26.9926 86.2773 26.89V16.088C86.2773 15.9853 86.9447 15.934 88.2793 15.934C89.6287 15.934 90.3033 15.978 90.3033 16.066V26.868ZM90.3033 14.768C90.3033 14.8706 89.6287 14.922 88.2793 14.922C86.9447 14.922 86.2773 14.878 86.2773 14.79V11.622C86.2773 11.4753 86.9447 11.402 88.2793 11.402C89.6287 11.402 90.3033 11.446 90.3033 11.534V14.768Z" stroke="#010003" stroke-width="2" mask="url(#path-8-outside-1_1100_1708)"/>
<path d="M96.891 26.868C96.891 26.9706 96.363 27.022 95.307 27.022C93.8403 26.978 93.107 26.8973 93.107 26.78V19.652H92.535C92.1536 19.652 91.9043 19.3293 91.787 18.684C91.7576 18.4933 91.743 18.3026 91.743 18.112C91.743 17.6573 91.831 17.2026 92.007 16.748C92.271 16.1026 92.6816 15.78 93.239 15.78C93.7963 15.78 94.295 15.912 94.735 16.176C95.175 16.44 95.4683 16.704 95.615 16.968C96.539 16.176 97.639 15.78 98.915 15.78C100.191 15.78 101.115 16.1246 101.687 16.814C102.259 17.5033 102.545 18.6326 102.545 20.202V26.802C102.545 26.978 101.914 27.066 100.653 27.066C99.4063 27.066 98.783 26.978 98.783 26.802V20.444C98.783 19.7106 98.5263 19.344 98.013 19.344C97.8663 19.344 97.661 19.41 97.397 19.542C97.133 19.6593 96.9643 19.7473 96.891 19.806V26.868Z" stroke="#010003" stroke-width="2" mask="url(#path-8-outside-1_1100_1708)"/>
<path d="M109.47 26.868C109.47 27.044 108.854 27.132 107.622 27.132C106.155 27.0733 105.422 26.978 105.422 26.846V19.058H104.3C104.007 19.058 103.86 18.552 103.86 17.54C103.86 17.276 103.882 16.9533 103.926 16.572C103.985 16.1906 104.095 16 104.256 16H105.422V14.064C105.422 13.7706 106.038 13.624 107.27 13.624C108.517 13.624 109.14 13.7413 109.14 13.976V15.384L109.162 16H111.032C111.281 16 111.406 16.5133 111.406 17.54C111.406 18.5666 111.281 19.08 111.032 19.08H109.47V26.868Z" stroke="#010003" stroke-width="2" mask="url(#path-8-outside-1_1100_1708)"/>
</svg>
