<svg width="115" height="38" viewBox="0 0 115 38" fill="none" xmlns="http://www.w3.org/2000/svg">
<path d="M89.4365 3.39648C79.1709 4.70348 70.618 18.757 77.457 26.522C85.6355 35.8067 93.2244 35.7049 103.401 35.2262C117.28 34.574 118.053 13.229 105.11 8.17968C103.493 7.55231 101.916 6.82614 100.388 6.00526" fill="#F2CA0E"/>
<path d="M90.32 24.3405C90.32 24.0418 90.3947 23.7058 90.544 23.3325C90.6933 22.9485 90.8373 22.6445 90.976 22.4205C91.1147 22.1858 91.1947 22.0685 91.216 22.0685C91.8347 22.4418 92.4853 22.6285 93.168 22.6285C93.5947 22.6285 93.936 22.5432 94.192 22.3725C94.4587 22.2018 94.592 21.9672 94.592 21.6685C94.592 21.3592 94.4693 21.1618 94.224 21.0765C93.9893 20.9912 93.6107 20.9325 93.088 20.9005H92.512C92.384 20.9005 92.2613 20.7458 92.144 20.4365C92.0373 20.1165 91.984 19.8072 91.984 19.5085C91.984 19.0072 92.1333 18.7512 92.432 18.7405L92.896 18.7245C93.184 18.7245 93.4827 18.6445 93.792 18.4845C94.112 18.3138 94.272 18.1005 94.272 17.8445C94.272 17.3965 93.872 17.1725 93.072 17.1725C92.4747 17.1725 91.8987 17.2898 91.344 17.5245C90.864 16.6605 90.624 15.9885 90.624 15.5085C90.624 15.0178 90.96 14.6498 91.632 14.4045C92.3147 14.1592 93.168 14.0365 94.192 14.0365C95.216 14.0365 96.016 14.2498 96.592 14.6765C97.168 15.1032 97.456 15.6845 97.456 16.4205C97.456 17.7112 96.9013 18.7032 95.792 19.3965C97.136 19.9405 97.808 20.8632 97.808 22.1645C97.808 23.1778 97.4507 23.9992 96.736 24.6285C96.0213 25.2472 94.9973 25.5565 93.664 25.5565C92.8213 25.5565 92.0533 25.4392 91.36 25.2045C90.6667 24.9592 90.32 24.6712 90.32 24.3405Z" fill="black"/>
<path d="M2.432 22.5885C2.83733 22.9085 3.53067 23.3458 4.512 23.9005C5.51467 24.4552 6.464 24.7325 7.36 24.7325C8.27733 24.7325 8.736 24.3805 8.736 23.6765C8.736 23.3565 8.608 23.0792 8.352 22.8445C8.096 22.5885 7.62667 22.3005 6.944 21.9805C6.26133 21.6605 5.74933 21.4152 5.408 21.2445C5.06667 21.0525 4.608 20.7538 4.032 20.3485C3.47733 19.9218 3.05067 19.4845 2.752 19.0365C1.89867 17.8205 1.472 16.2738 1.472 14.3965C1.472 12.5192 2.16533 10.9405 3.552 9.66048C4.96 8.35915 6.79467 7.70848 9.056 7.70848C10.592 7.70848 12.0107 7.87915 13.312 8.22048C14.6133 8.54048 15.2853 8.96715 15.328 9.50048C15.328 9.56448 15.328 9.62848 15.328 9.69248C15.328 10.4391 15.0933 11.3885 14.624 12.5405C14.1547 13.6712 13.824 14.3005 13.632 14.4285C12.2667 13.7245 11.04 13.3725 9.952 13.3725C8.88533 13.3725 8.352 13.7565 8.352 14.5245C8.352 14.9938 8.74667 15.4098 9.536 15.7725C9.70667 15.8578 9.952 15.9752 10.272 16.1245C10.592 16.2738 10.9547 16.4552 11.36 16.6685C11.7867 16.8605 12.2347 17.1165 12.704 17.4365C13.1947 17.7352 13.7173 18.1405 14.272 18.6525C15.4027 19.7192 15.968 21.1272 15.968 22.8765C15.968 25.1592 15.3387 27.0258 14.08 28.4765C12.8213 29.9272 10.88 30.6738 8.256 30.7165C6.976 30.7165 5.81333 30.6098 4.768 30.3965C3.744 30.1832 2.848 29.7672 2.08 29.1485C1.312 28.5298 0.928 27.7832 0.928 26.9085C0.928 26.0338 1.088 25.1698 1.408 24.3165C1.728 23.4418 2.06933 22.8658 2.432 22.5885ZM25.8 30.2045C25.8 30.4605 24.904 30.5885 23.112 30.5885C20.9787 30.5032 19.912 30.3645 19.912 30.1725V18.8445H18.28C17.8533 18.8445 17.64 18.1085 17.64 16.6365C17.64 16.2525 17.672 15.7832 17.736 15.2285C17.8213 14.6738 17.9813 14.3965 18.216 14.3965H19.912V11.5805C19.912 11.1538 20.808 10.9405 22.6 10.9405C24.4133 10.9405 25.32 11.1112 25.32 11.4525V13.5005L25.352 14.3965H28.072C28.4347 14.3965 28.616 15.1432 28.616 16.6365C28.616 18.1298 28.4347 18.8765 28.072 18.8765H25.8V30.2045ZM42.3173 29.5325C40.9733 30.3218 39.2453 30.7165 37.1333 30.7165C35.0213 30.7165 33.2399 30.0018 31.7893 28.5725C30.3386 27.1218 29.6133 25.1272 29.6133 22.5885C29.6133 20.0285 30.3066 17.9698 31.6933 16.4125C33.1013 14.8551 34.8719 14.0765 37.0052 14.0765C39.1386 14.0765 40.7813 14.6205 41.9333 15.7085C43.1066 16.7965 43.6933 18.1192 43.6933 19.6765C43.6933 23.1325 41.7093 24.8605 37.7413 24.8605H35.5333C35.5333 25.5005 35.7039 25.9485 36.0453 26.2045C36.4079 26.4392 36.9306 26.5565 37.6133 26.5565C39.1066 26.5565 40.5253 26.2152 41.8693 25.5325C41.8906 25.5112 41.9866 25.6605 42.1573 25.9805C42.6693 26.8978 42.9253 27.6765 42.9253 28.3165C42.9253 28.9352 42.7226 29.3405 42.3173 29.5325ZM38.3173 20.2845C38.3173 19.3885 37.8799 18.9405 37.0052 18.9405C36.5999 18.9405 36.2479 19.0685 35.9493 19.3245C35.6719 19.5592 35.5333 19.9112 35.5333 20.3805V21.3725H37.2613C37.9653 21.3725 38.3173 21.0098 38.3173 20.2845ZM52.6638 36.2205C52.6638 36.3698 51.7464 36.4445 49.9118 36.4445C48.0984 36.4445 47.1918 36.3698 47.1918 36.2205V19.7405H46.1038C45.5918 19.7405 45.2398 19.2712 45.0478 18.3325C44.9838 18.0338 44.9518 17.6498 44.9518 17.1805C44.9518 16.7112 45.1011 16.1565 45.3997 15.5165C45.8264 14.5778 46.5091 14.1085 47.4478 14.1085C48.0664 14.1085 48.6318 14.2578 49.1438 14.5565C49.6771 14.8338 50.0398 15.1005 50.2318 15.3565C50.4451 15.5912 50.5518 15.7298 50.5518 15.7725C51.9811 14.6632 53.5278 14.1085 55.1918 14.1085C56.8558 14.1085 58.2851 14.7592 59.4798 16.0605C60.6744 17.3405 61.2718 19.3352 61.2718 22.0445C61.2718 24.7325 60.6744 26.8232 59.4798 28.3165C58.2851 29.7885 56.7704 30.5245 54.9358 30.5245C54.1038 30.5245 53.3464 30.4818 52.6638 30.3965V36.2205ZM53.9758 19.7085C53.6131 19.7085 53.2611 19.8258 52.9198 20.0605V25.7245C53.2824 25.7672 53.5704 25.7885 53.7838 25.7885C54.0184 25.7885 54.1998 25.7885 54.3278 25.7885C55.2024 25.7032 55.6398 24.5832 55.6398 22.4285C55.6398 20.6152 55.0851 19.7085 53.9758 19.7085Z" fill="#F2CA0E"/>
</svg>
