<svg width="20" height="20" viewBox="0 0 20 20" fill="none" xmlns="http://www.w3.org/2000/svg">
<path d="M8.60399 3.66399C8.69495 3.56397 8.82208 3.50433 8.95702 3.49812L8.96162 3.59801M8.60399 3.66399L8.95607 3.49817L8.96162 3.59801M8.60399 3.66399C8.60401 3.66397 8.60403 3.66394 8.60406 3.66392L8.67797 3.73127M8.60399 3.66399L8.67797 3.73127M8.60399 3.66399C8.51299 3.7639 8.46543 3.8959 8.47178 4.03079M8.60399 3.66399L8.47178 4.03079M8.96162 3.59801C8.85318 3.60301 8.75102 3.65094 8.67797 3.73127M8.96162 3.59801C8.97446 3.5973 8.98688 3.59724 8.99972 3.59795L8.67797 3.73127M8.67797 3.73127C8.60478 3.8116 8.56654 3.91776 8.57168 4.02619M8.67797 3.73127L8.57168 4.02619M15.4321 10.7622C15.5277 10.8593 15.6584 10.914 15.7945 10.914C15.9309 10.914 16.0614 10.8593 16.1571 10.7623C16.1571 10.7622 16.1571 10.7622 16.1571 10.7622L16.0859 10.692L15.3855 10.3991M15.4321 10.7622C15.3366 10.6654 15.2837 10.5344 15.2855 10.3984M15.4321 10.7622C15.4321 10.7622 15.432 10.7622 15.432 10.7621L15.5033 10.692L15.4322 10.7623C15.4321 10.7622 15.4321 10.7622 15.4321 10.7622ZM15.2855 10.3984C15.2855 10.3982 15.2855 10.3979 15.2855 10.3977L15.3855 10.3991M15.2855 10.3984C15.2855 10.3987 15.2855 10.3989 15.2855 10.3991H15.3855M15.2855 10.3984C15.2851 7.1644 12.4951 4.51726 9.00223 4.51613M15.3855 10.3991C15.3855 7.10306 12.5435 4.41613 9 4.41613M9.00223 4.51613C9.00306 4.5161 9.00389 4.51606 9.00472 4.51602L9 4.41613M9.00223 4.51613C8.86801 4.52182 8.73711 4.47428 8.6378 4.38382M9.00223 4.51613C9.00148 4.51613 9.00074 4.51613 9 4.51613V4.41613M9 4.41613L8.6378 4.38382M8.6378 4.38382L8.70508 4.30984L8.63773 4.38375C8.63775 4.38378 8.63777 4.3838 8.6378 4.38382ZM8.6378 4.38382C8.53786 4.29293 8.478 4.16598 8.47178 4.03079M8.6378 4.38382L8.47178 4.03079M8.47178 4.03079C8.47178 4.03083 8.47179 4.03088 8.47179 4.03092L8.57168 4.02619M8.47178 4.03079L8.57168 4.02619M10 0.9C4.97907 0.9 0.9 4.97907 0.9 10C0.9 15.0209 4.97907 19.1 10 19.1C15.0209 19.1 19.1 15.0209 19.1 10C19.1 4.97907 15.0209 0.9 10 0.9ZM10 1.91811C14.4681 1.91811 18.0818 5.53178 18.0818 9.99993C18.0818 11.4273 17.7128 12.7667 17.0655 13.9295C16.4744 12.4198 14.8496 11.3412 12.887 11.1341C13.0259 10.7827 13.1042 10.3999 13.1042 9.99985C13.1042 8.2894 11.7109 6.88916 9.99992 6.88916C8.90782 6.88916 7.94634 7.46445 7.39326 8.32057C6.63211 8.49819 5.85536 8.28374 5.15288 7.72898C4.44587 7.17063 3.84319 6.27073 3.52567 5.15581C4.99896 3.18921 7.35014 1.91811 10 1.91811ZM16.3037 10.3985C16.3034 6.57294 13.0102 3.49928 9.00233 3.49795L16.3037 10.3985ZM7.20033 3.30973C6.81408 3.30973 6.50579 3.61803 6.50579 4.00426C6.50579 4.38912 6.81273 4.70508 7.20033 4.70508C7.58656 4.70508 7.90114 4.3905 7.90114 4.00426C7.90114 3.61666 7.58519 3.30973 7.20033 3.30973ZM6.60022 5.90774C6.21535 5.90774 5.89941 6.21467 5.89941 6.60227C5.89941 6.98851 6.21398 7.30309 6.60022 7.30309C6.98646 7.30309 7.30104 6.98851 7.30104 6.60227C7.30104 6.21467 6.98508 5.90774 6.60022 5.90774ZM1.91869 9.99995C1.91869 8.64542 2.24825 7.37142 2.83496 6.25152L4.58624 8.45304L4.52426 8.53151C4.52426 8.53151 4.52426 8.53151 4.52426 8.53151C5.2393 9.09629 6.08641 9.42393 6.95944 9.40258C6.91994 9.59524 6.8961 9.7931 6.8961 9.99998C6.8961 11.7107 8.28963 13.1042 10.0004 13.1042C10.8996 13.1042 11.7077 12.7209 12.2749 12.1075C14.5798 12.1373 16.2199 13.5161 16.2848 15.0926C14.8039 16.9198 12.5393 18.0818 10.0005 18.0818C5.53236 18.0818 1.91869 14.4681 1.91869 9.99995ZM10.0006 7.90754C11.1583 7.90754 12.0867 8.84148 12.0867 9.99994C12.0867 11.158 11.1587 12.0861 10.0006 12.0861C8.84243 12.0861 7.9144 11.1581 7.9144 9.99994C7.9144 8.84144 8.8428 7.90754 10.0006 7.90754ZM3.20599 8.30193C2.81838 8.30193 2.51146 8.61788 2.51146 9.00274C2.51146 9.38898 2.81976 9.69728 3.20599 9.69728C3.59085 9.69728 3.90681 9.39034 3.90681 9.00274C3.90681 8.61651 3.59223 8.30193 3.20599 8.30193ZM4.00511 11.6961C3.6175 11.6961 3.31058 12.0121 3.31058 12.397C3.31058 12.7818 3.61751 13.0978 4.00511 13.0978C4.39134 13.0978 4.70592 12.7832 4.70592 12.397C4.70592 12.0107 4.39135 11.6961 4.00511 11.6961ZM6.60305 12.6968C6.21544 12.6968 5.90851 13.0128 5.90851 13.3976C5.90851 13.7839 6.21681 14.0922 6.60305 14.0922C6.98791 14.0922 7.30386 13.7852 7.30386 13.3976C7.30386 13.0114 6.98929 12.6968 6.60305 12.6968ZM13.7974 14.694C13.4111 14.694 13.0966 15.0086 13.0966 15.3948C13.0966 15.7811 13.4112 16.0956 13.7974 16.0956C14.1836 16.0956 14.4982 15.7811 14.4982 15.3948C14.4982 15.0086 14.1836 14.694 13.7974 14.694ZM7.00283 15.6912C6.61659 15.6912 6.30202 16.0058 6.30202 16.392C6.30202 16.7783 6.61659 17.0928 7.00283 17.0928C7.38907 17.0928 7.70365 16.7783 7.70365 16.392C7.70365 16.0058 7.38907 15.6912 7.00283 15.6912ZM10.0007 14.292C9.61442 14.292 9.29985 14.6066 9.29985 14.9928C9.29985 15.3791 9.61443 15.6936 10.0007 15.6936C10.3869 15.6936 10.7015 15.3791 10.7015 14.9928C10.7015 14.6066 10.3869 14.292 10.0007 14.292Z" fill="#7E829D" stroke="#7E829D" stroke-width="0.2"/>
</svg>
