<svg width="24" height="24" viewBox="0 0 24 24" fill="none" xmlns="http://www.w3.org/2000/svg">
<g clip-path="url(#clip0_1097_1607)">
<path d="M4.96186 11.3638C4.96188 11.2305 4.98823 11.0986 5.03939 10.9755C5.09055 10.8525 5.16552 10.7407 5.25998 10.6467C5.35445 10.5527 5.46655 10.4783 5.58986 10.4277C5.71316 10.3772 5.84524 10.3514 5.97851 10.3521L7.66402 10.3576C7.93277 10.3576 8.19051 10.4643 8.38054 10.6544C8.57057 10.8444 8.67733 11.1021 8.67733 11.3709V17.7447C8.86717 17.6884 9.11012 17.6284 9.37746 17.5654C9.56268 17.5219 9.72775 17.417 9.8459 17.2679C9.96406 17.1187 10.0284 16.934 10.0284 16.7437V8.8381C10.0284 8.56933 10.1352 8.31158 10.3252 8.12151C10.5152 7.93145 10.773 7.82464 11.0417 7.82459H12.7323C13.0011 7.82464 13.2589 7.93145 13.4489 8.12151C13.6389 8.31158 13.7457 8.56933 13.7457 8.8381V16.1758C13.7457 16.1758 14.1686 16.0047 14.5803 15.8308C14.7333 15.766 14.8639 15.6577 14.9557 15.5193C15.0476 15.3809 15.0966 15.2185 15.0967 15.0523V6.30472C15.0967 6.03601 15.2035 5.7783 15.3935 5.58827C15.5835 5.39825 15.8411 5.29146 16.1099 5.29141H17.7987C18.0673 5.29167 18.3248 5.39855 18.5146 5.58855C18.7044 5.77856 18.811 6.03615 18.811 6.30472V13.5081C20.2752 12.447 21.7591 11.1706 22.9367 9.636C23.1075 9.41324 23.2206 9.15166 23.2657 8.87458C23.3109 8.59751 23.2868 8.31356 23.1956 8.04807C22.6505 6.47983 21.784 5.04266 20.6516 3.82851C19.5192 2.61435 18.1458 1.64997 16.6193 0.997064C15.0928 0.344157 13.4468 0.0171049 11.7866 0.0368381C10.1265 0.0565714 8.48871 0.422654 6.97816 1.11166C5.4676 1.80067 4.11752 2.79742 3.01429 4.03815C1.91106 5.27887 1.07899 6.73624 0.571324 8.31699C0.0636548 9.89774 -0.108433 11.5671 0.0660728 13.2181C0.240578 14.8692 0.757834 16.4657 1.58474 17.9054C1.72881 18.1537 1.94076 18.3558 2.1957 18.4879C2.45064 18.62 2.73798 18.6765 3.02395 18.651C3.34343 18.6228 3.7412 18.5831 4.21412 18.5276C4.41994 18.5042 4.60996 18.4059 4.748 18.2514C4.88603 18.097 4.96243 17.8971 4.96264 17.69V11.3638" fill="white"/>
<path d="M4.92578 21.5856C6.70595 22.8807 8.80969 23.658 11.0042 23.8317C13.1988 24.0053 15.3986 23.5685 17.3603 22.5695C19.3219 21.5705 20.969 20.0483 22.1193 18.1713C23.2695 16.2943 23.8781 14.1357 23.8777 11.9343C23.8777 11.6589 23.8649 11.3878 23.8466 11.1175C19.4867 17.6201 11.4365 20.6601 4.92578 21.5856" fill="white"/>
</g>
<defs>
<clipPath id="clip0_1097_1607">
<rect width="24.0002" height="24" fill="white"/>
</clipPath>
</defs>
</svg>
