<svg width="24" height="24" viewBox="0 0 24 24" fill="none" xmlns="http://www.w3.org/2000/svg">
<g clip-path="url(#clip0_1097_1598)">
<path d="M12 0C5.38667 0 0 5.38667 0 12C0 18.6133 5.38667 24 12 24C18.6133 24 24 18.6133 24 12C24 5.38667 18.64 0 12 0ZM5.92 12.4L5.97333 12.32L9.09333 7.44C9.14667 7.36 9.25333 7.38667 9.28 7.46667C9.81333 8.64 10.24 10.08 10.0533 10.9867C9.97333 11.36 9.70667 11.8667 9.44 12.32C9.41333 12.4 9.36 12.4533 9.33333 12.5067C9.30667 12.5333 9.28 12.56 9.25333 12.56H6.05333C5.92 12.56 5.86667 12.48 5.92 12.4ZM19.84 14.08C19.84 14.1333 19.8133 14.16 19.7867 14.1867C19.5467 14.2933 18.72 14.6667 18.3733 15.1467C17.4933 16.3733 16.8267 18.1067 15.3333 18.1067H9.04C6.82667 18.1067 5.04 16.2933 5.04 14.08V14C5.04 13.9467 5.09333 13.8933 5.14667 13.8933H8.64C8.72 13.8933 8.77333 13.9467 8.74667 14.0267C8.72 14.24 8.77333 14.48 8.88 14.6933C9.09333 15.12 9.52 15.3867 9.97333 15.3867H11.7067V14.0533H10C9.92 14.0533 9.86667 13.9467 9.92 13.8933C9.94667 13.8667 9.94667 13.84 9.97333 13.8133C10.1333 13.5733 10.3733 13.2267 10.5867 12.8267C10.7467 12.56 10.9067 12.2667 11.0133 11.9733C11.04 11.92 11.0667 11.8667 11.0667 11.8133C11.0933 11.7067 11.1467 11.6267 11.1467 11.5467C11.1733 11.4667 11.2 11.3867 11.2 11.3333C11.2533 11.0933 11.28 10.8267 11.28 10.5333C11.28 10.4267 11.28 10.32 11.2533 10.2133C11.2533 10.1067 11.2267 9.97333 11.2267 9.86667C11.2267 9.76 11.2 9.65333 11.1733 9.54667C11.1467 9.38667 11.12 9.22667 11.0667 9.06667L11.04 9.01333C11.0133 8.90667 10.9867 8.8 10.96 8.69333C10.8533 8.34667 10.7467 8.02667 10.64 7.73333C10.5867 7.6 10.56 7.49333 10.5067 7.38667C10.4267 7.2 10.3733 7.04 10.2933 6.90667C10.2667 6.82667 10.24 6.77333 10.1867 6.72C10.16 6.64 10.1067 6.58667 10.08 6.50667C10.0533 6.45333 10.0267 6.4 10 6.34667L9.86667 5.89333C9.84 5.84 9.89333 5.78667 9.94667 5.78667L11.28 6.13333L11.44 6.18667L11.6267 6.24L11.7067 6.26667V5.49333C11.7067 5.12 12 4.8 12.3733 4.8C12.56 4.8 12.72 4.88 12.8533 5.01333C12.9867 5.14667 13.04 5.30667 13.04 5.49333V6.66667L13.1733 6.69333C13.1733 6.69333 13.2 6.69333 13.2 6.72C13.2267 6.74667 13.28 6.77333 13.3333 6.82667C13.3867 6.85333 13.44 6.90667 13.4933 6.96C13.6267 7.06667 13.7867 7.2 13.9467 7.33333C14 7.36 14.0267 7.41333 14.08 7.44C14.2933 7.62667 14.5333 7.86667 14.7733 8.13333C14.8267 8.21333 14.9067 8.26667 14.96 8.34667C15.0133 8.42667 15.0933 8.50667 15.1467 8.58667C15.2267 8.69333 15.3067 8.8 15.3867 8.90667C15.4133 8.96 15.4667 9.01333 15.4933 9.06667C15.6 9.2 15.68 9.36 15.76 9.49333C15.7867 9.57333 15.84 9.62667 15.8667 9.70667C15.9467 9.89333 16.0267 10.1067 16.08 10.2933C16.1067 10.3467 16.1067 10.3733 16.1067 10.4267C16.1333 10.48 16.1333 10.56 16.1333 10.6133C16.16 10.8267 16.1333 11.0133 16.1067 11.2267C16.08 11.3067 16.0533 11.3867 16.0267 11.4933C16 11.5733 15.9733 11.6533 15.92 11.76C15.84 11.92 15.76 12.1067 15.6533 12.2667C15.6267 12.32 15.5733 12.4 15.5467 12.4533C15.4933 12.5067 15.4667 12.5867 15.4133 12.64C15.36 12.72 15.3067 12.8 15.2533 12.8533C15.2 12.9333 15.1467 12.9867 15.0933 13.0667C15.0133 13.1733 14.9333 13.2533 14.8533 13.3333C14.8 13.3867 14.7467 13.44 14.6933 13.4933C14.64 13.5467 14.5867 13.6 14.5333 13.6533C14.4533 13.7333 14.3733 13.7867 14.32 13.8667L14.1867 14C14.16 14.0267 14.1333 14.0267 14.1067 14.0267H13.0667V15.36H14.4C14.6933 15.36 14.9867 15.2533 15.2 15.0667C15.28 14.9867 15.6267 14.6933 16.0267 14.2667C16.0533 14.24 16.0533 14.24 16.08 14.24L19.7333 13.1733C19.8133 13.1467 19.8667 13.2 19.8667 13.28V14.08H19.84Z" fill="white"/>
</g>
<defs>
<clipPath id="clip0_1097_1598">
<rect width="24" height="24" fill="white"/>
</clipPath>
</defs>
</svg>
