<svg width="25" height="20" viewBox="0 0 25 20" fill="none" xmlns="http://www.w3.org/2000/svg">
<path d="M24.0704 2.35746C23.1716 2.75559 22.2184 3.01693 21.2423 3.13277C22.259 2.5234 23.0397 1.55843 23.4073 0.408678C22.4408 0.982226 21.3833 1.38633 20.2806 1.60352C19.3824 0.646615 18.1028 0.048584 16.6865 0.048584C13.9672 0.048584 11.7625 2.25321 11.7625 4.97233C11.7625 5.3583 11.8061 5.73405 11.89 6.09452C7.79775 5.88912 4.16963 3.9289 1.74103 0.949896C1.31728 1.67712 1.07447 2.52302 1.07447 3.42527C1.07447 5.13358 1.94382 6.64062 3.26494 7.52365C2.48302 7.49916 1.7183 7.28797 1.03463 6.90771C1.03435 6.92833 1.03435 6.94896 1.03435 6.96968C1.03435 9.35533 2.7316 11.3454 4.98403 11.7978C4.25896 11.995 3.49841 12.0238 2.76047 11.8821C3.387 13.8383 5.20547 15.2618 7.36004 15.3017C5.67488 16.6222 3.55172 17.4094 1.24491 17.4094C0.847407 17.4094 0.455537 17.3861 0.0703125 17.3406C2.24935 18.7377 4.8375 19.5529 7.61813 19.5529C16.6751 19.5529 21.6276 12.0499 21.6276 5.54337C21.6276 5.3298 21.6229 5.11746 21.6134 4.90633C22.5773 4.20948 23.4093 3.34635 24.0704 2.35746Z" fill="#656580"/>
</svg>
