<svg width="16" height="16" viewBox="0 0 16 16" fill="none" xmlns="http://www.w3.org/2000/svg">
<path d="M0.822835 11.3236L0.647221 11.5L0.822835 11.6764L4.30748 15.1764L4.48465 15.3543L4.66181 15.1764L7.9693 11.8543L11.2768 15.1764L11.4539 15.3543L11.6311 15.1764L15.1158 11.6764L15.2914 11.5L15.1158 11.3236L11.8067 8L15.1158 4.67639L15.2914 4.5L15.1158 4.32361L11.6311 0.823612L11.4539 0.645667L11.2768 0.823612L7.9693 4.14567L4.66181 0.823612L4.48465 0.645667L4.30748 0.823612L0.822835 4.32361L0.647221 4.5L0.822835 4.67639L4.13187 8L0.822835 11.3236Z" fill="#7E829D" stroke="black" stroke-width="0.5"/>
</svg>
