<svg width="98" height="96" viewBox="0 0 98 96" fill="none" xmlns="http://www.w3.org/2000/svg">
<path d="M7.55256 28.4768L7.55245 28.477C-0.450012 38.9318 -0.133148 54.2779 5.03248 67.3328C10.1887 80.364 20.3136 91.4529 32.3535 93.2365C40.4037 95.2576 48.2084 95.0037 54.4801 93.9488C60.7425 92.8954 65.5441 91.0312 67.5703 89.7763C71.3693 87.4234 74.9244 85.6154 78.226 84.1347L78.2263 84.1346C93.3887 77.3274 98.6176 59.3135 96.1735 43.0102C93.7307 26.7157 83.5275 11.5603 67.2159 10.6785L67.2159 10.6785C64.3329 10.5229 61.5397 10.3004 58.8156 10.0767C58.5404 10.0541 58.2659 10.0314 57.9921 10.0089C55.5581 9.80836 53.1766 9.61216 50.8464 9.46966C45.6618 9.1526 40.6883 9.09805 35.8405 9.85807C26.09 11.3867 16.9586 16.194 7.55256 28.4768Z" fill="#F2CA0E" stroke="black" stroke-width="1.5"/>
<path d="M56.3144 1.26665L55.6131 1.11638L55.4316 1.81023L42.1103 52.7446L41.9327 53.4239L42.5988 53.6459L50.8266 56.3885L51.4188 56.5859L51.7204 56.0395L78.7548 7.06408L79.2429 6.1799L78.2553 5.96828L56.3144 1.26665Z" fill="#1FCFF1" stroke="black" stroke-width="1.5"/>
<rect x="38.4834" y="59.0289" width="13.2541" height="13.2541" transform="rotate(19.5776 38.4834 59.0289)" fill="#1FCFF1" stroke="black" stroke-width="1.5"/>
</svg>
