<svg width="115" height="37" viewBox="0 0 115 37" fill="none" xmlns="http://www.w3.org/2000/svg">
<path d="M89.4365 3C79.1709 4.307 70.618 18.3605 77.457 26.1255C85.6355 35.4102 93.2244 35.3084 103.401 34.8297C117.28 34.1775 118.053 12.8325 105.11 7.7832C103.493 7.15583 101.916 6.42965 100.388 5.60878" fill="#F2CA0E"/>
<path d="M96.696 24.728C96.696 24.9093 96.152 25 95.064 25C93.9867 25 93.448 24.9093 93.448 24.728V16.84L91.72 16.856C91.4 16.856 91.24 16.344 91.24 15.32C91.24 14.968 91.272 14.6267 91.336 14.296C91.4107 13.9653 91.5333 13.8 91.704 13.8H96.088C96.2693 13.8 96.4133 13.8427 96.52 13.928C96.6373 14.0027 96.696 14.0987 96.696 14.216V24.728Z" fill="black"/>
<path d="M2.432 22.192C2.83733 22.512 3.53067 22.9493 4.512 23.504C5.51467 24.0587 6.464 24.336 7.36 24.336C8.27733 24.336 8.736 23.984 8.736 23.28C8.736 22.96 8.608 22.6827 8.352 22.448C8.096 22.192 7.62667 21.904 6.944 21.584C6.26133 21.264 5.74933 21.0187 5.408 20.848C5.06667 20.656 4.608 20.3573 4.032 19.952C3.47733 19.5253 3.05067 19.088 2.752 18.64C1.89867 17.424 1.472 15.8773 1.472 14C1.472 12.1227 2.16533 10.544 3.552 9.264C4.96 7.96267 6.79467 7.312 9.056 7.312C10.592 7.312 12.0107 7.48267 13.312 7.824C14.6133 8.144 15.2853 8.57067 15.328 9.104C15.328 9.168 15.328 9.232 15.328 9.296C15.328 10.0427 15.0933 10.992 14.624 12.144C14.1547 13.2747 13.824 13.904 13.632 14.032C12.2667 13.328 11.04 12.976 9.952 12.976C8.88533 12.976 8.352 13.36 8.352 14.128C8.352 14.5973 8.74667 15.0133 9.536 15.376C9.70667 15.4613 9.952 15.5787 10.272 15.728C10.592 15.8773 10.9547 16.0587 11.36 16.272C11.7867 16.464 12.2347 16.72 12.704 17.04C13.1947 17.3387 13.7173 17.744 14.272 18.256C15.4027 19.3227 15.968 20.7307 15.968 22.48C15.968 24.7627 15.3387 26.6293 14.08 28.08C12.8213 29.5307 10.88 30.2773 8.256 30.32C6.976 30.32 5.81333 30.2133 4.768 30C3.744 29.7867 2.848 29.3707 2.08 28.752C1.312 28.1333 0.928 27.3867 0.928 26.512C0.928 25.6373 1.088 24.7733 1.408 23.92C1.728 23.0453 2.06933 22.4693 2.432 22.192ZM25.8 29.808C25.8 30.064 24.904 30.192 23.112 30.192C20.9787 30.1067 19.912 29.968 19.912 29.776V18.448H18.28C17.8533 18.448 17.64 17.712 17.64 16.24C17.64 15.856 17.672 15.3867 17.736 14.832C17.8213 14.2773 17.9813 14 18.216 14H19.912V11.184C19.912 10.7573 20.808 10.544 22.6 10.544C24.4133 10.544 25.32 10.7147 25.32 11.056V13.104L25.352 14H28.072C28.4347 14 28.616 14.7467 28.616 16.24C28.616 17.7333 28.4347 18.48 28.072 18.48H25.8V29.808ZM42.3173 29.136C40.9733 29.9253 39.2453 30.32 37.1333 30.32C35.0213 30.32 33.2399 29.6053 31.7893 28.176C30.3386 26.7253 29.6133 24.7307 29.6133 22.192C29.6133 19.632 30.3066 17.5733 31.6933 16.016C33.1013 14.4587 34.8719 13.68 37.0052 13.68C39.1386 13.68 40.7813 14.224 41.9333 15.312C43.1066 16.4 43.6933 17.7227 43.6933 19.28C43.6933 22.736 41.7093 24.464 37.7413 24.464H35.5333C35.5333 25.104 35.7039 25.552 36.0453 25.808C36.4079 26.0427 36.9306 26.16 37.6133 26.16C39.1066 26.16 40.5253 25.8187 41.8693 25.136C41.8906 25.1147 41.9866 25.264 42.1573 25.584C42.6693 26.5013 42.9253 27.28 42.9253 27.92C42.9253 28.5387 42.7226 28.944 42.3173 29.136ZM38.3173 19.888C38.3173 18.992 37.8799 18.544 37.0052 18.544C36.5999 18.544 36.2479 18.672 35.9493 18.928C35.6719 19.1627 35.5333 19.5147 35.5333 19.984V20.976H37.2613C37.9653 20.976 38.3173 20.6133 38.3173 19.888ZM52.6638 35.824C52.6638 35.9733 51.7464 36.048 49.9118 36.048C48.0984 36.048 47.1918 35.9733 47.1918 35.824V19.344H46.1038C45.5918 19.344 45.2398 18.8747 45.0478 17.936C44.9838 17.6373 44.9518 17.2533 44.9518 16.784C44.9518 16.3147 45.1011 15.76 45.3997 15.12C45.8264 14.1813 46.5091 13.712 47.4478 13.712C48.0664 13.712 48.6318 13.8613 49.1438 14.16C49.6771 14.4373 50.0398 14.704 50.2318 14.96C50.4451 15.1947 50.5518 15.3333 50.5518 15.376C51.9811 14.2667 53.5278 13.712 55.1918 13.712C56.8558 13.712 58.2851 14.3627 59.4798 15.664C60.6744 16.944 61.2718 18.9387 61.2718 21.648C61.2718 24.336 60.6744 26.4267 59.4798 27.92C58.2851 29.392 56.7704 30.128 54.9358 30.128C54.1038 30.128 53.3464 30.0853 52.6638 30V35.824ZM53.9758 19.312C53.6131 19.312 53.2611 19.4293 52.9198 19.664V25.328C53.2824 25.3707 53.5704 25.392 53.7838 25.392C54.0184 25.392 54.1998 25.392 54.3278 25.392C55.2024 25.3067 55.6398 24.1867 55.6398 22.032C55.6398 20.2187 55.0851 19.312 53.9758 19.312Z" fill="#F2CA0E"/>
</svg>
