<svg width="25" height="20" viewBox="0 0 25 20" fill="none" xmlns="http://www.w3.org/2000/svg">
<g clip-path="url(#clip0_1058_245)">
<path d="M24.6602 2.35746C23.7614 2.75559 22.8082 3.01693 21.8321 3.13277C22.8488 2.5234 23.6295 1.55843 23.9971 0.408678C23.0306 0.982226 21.9731 1.38633 20.8704 1.60352C19.9722 0.646615 18.6926 0.048584 17.2763 0.048584C14.557 0.048584 12.3523 2.25321 12.3523 4.97233C12.3523 5.3583 12.3959 5.73405 12.4798 6.09452C8.38759 5.88912 4.75947 3.9289 2.33087 0.949896C1.90712 1.67712 1.66431 2.52302 1.66431 3.42527C1.66431 5.13358 2.53366 6.64062 3.85478 7.52365C3.07286 7.49916 2.30814 7.28797 1.62447 6.90771C1.62419 6.92833 1.62419 6.94896 1.62419 6.96968C1.62419 9.35533 3.32144 11.3454 5.57387 11.7978C4.8488 11.995 4.08825 12.0238 3.35031 11.8821C3.97684 13.8383 5.79531 15.2618 7.94988 15.3017C6.26472 16.6222 4.14156 17.4094 1.83475 17.4094C1.43725 17.4094 1.04538 17.3861 0.660156 17.3406C2.83919 18.7377 5.42734 19.5529 8.20797 19.5529C17.2649 19.5529 22.2174 12.0499 22.2174 5.54337C22.2174 5.3298 22.2127 5.11746 22.2032 4.90633C23.1671 4.20948 23.9991 3.34635 24.6602 2.35746Z" fill="#F0F0F1"/>
</g>
<defs>
<clipPath id="clip0_1058_245">
<rect width="25" height="20" fill="white"/>
</clipPath>
</defs>
</svg>
