<svg width="23" height="26" viewBox="0 0 23 26" fill="none" xmlns="http://www.w3.org/2000/svg">
<path d="M20.1755 0.22937H3.32983C1.90926 0.22937 0.752686 1.38594 0.752686 2.81908V19.8157C0.752686 21.2488 1.90926 22.4054 3.32983 22.4054H17.5858L16.9195 20.0797L18.5287 21.5757L20.0498 22.9837L22.7527 25.3722V2.81908C22.7527 1.38594 21.5961 0.22937 20.1755 0.22937ZM15.323 16.6477C15.323 16.6477 14.8704 16.1071 14.4933 15.6294C16.1401 15.1642 16.7687 14.1334 16.7687 14.1334C16.2533 14.4728 15.763 14.7117 15.323 14.8751C14.6944 15.1391 14.091 15.3151 13.5001 15.4157C12.2933 15.6419 11.187 15.5791 10.2441 15.4031C9.52754 15.2648 8.91154 15.0637 8.39611 14.8625C8.10697 14.7494 7.79269 14.6111 7.4784 14.4351C7.44069 14.4099 7.40297 14.3974 7.36526 14.3722C7.34011 14.3597 7.32754 14.3471 7.31497 14.3345C7.08869 14.2088 6.96297 14.1208 6.96297 14.1208C6.96297 14.1208 7.5664 15.1265 9.16297 15.6042C8.78583 16.0819 8.32069 16.6477 8.32069 16.6477C5.5424 16.5597 4.4864 14.7368 4.4864 14.7368C4.4864 10.6888 6.29669 7.40766 6.29669 7.40766C8.10697 6.04994 9.82926 6.08766 9.82926 6.08766L9.95497 6.23851C7.69211 6.89223 6.64869 7.88537 6.64869 7.88537C6.64869 7.88537 6.92526 7.73451 7.3904 7.5208C8.73554 6.92994 9.80411 6.76651 10.2441 6.7288C10.3195 6.71623 10.3824 6.70366 10.4578 6.70366C11.2247 6.60308 12.0921 6.57794 12.9973 6.67851C14.1915 6.8168 15.4738 7.1688 16.7813 7.88537C16.7813 7.88537 15.7881 6.94251 13.651 6.2888L13.827 6.08766C13.827 6.08766 15.5493 6.04994 17.3595 7.40766C17.3595 7.40766 19.1698 10.6888 19.1698 14.7368C19.1698 14.7368 18.1013 16.5597 15.323 16.6477ZM9.47726 10.7768C8.76068 10.7768 8.19497 11.4054 8.19497 12.1722C8.19497 12.9391 8.77326 13.5677 9.47726 13.5677C10.1938 13.5677 10.7595 12.9391 10.7595 12.1722C10.7721 11.4054 10.1938 10.7768 9.47726 10.7768ZM14.0658 10.7768C13.3493 10.7768 12.7835 11.4054 12.7835 12.1722C12.7835 12.9391 13.3618 13.5677 14.0658 13.5677C14.7824 13.5677 15.3481 12.9391 15.3481 12.1722C15.3481 11.4054 14.7824 10.7768 14.0658 10.7768Z" fill="white"/>
</svg>
