<svg width="16" height="16" viewBox="0 0 16 16" fill="none" xmlns="http://www.w3.org/2000/svg">
<path d="M15.7362 8.68484H15.7862V8.63484V6.73032C15.7862 6.30691 15.7028 5.88765 15.5407 5.49647C15.3787 5.10529 15.1412 4.74986 14.8418 4.45047C14.5424 4.15107 14.187 3.91358 13.7958 3.75155C13.4046 3.58952 12.9854 3.50612 12.562 3.50612H12.5607H3.27028L5.97472 1.5742L6.01536 1.54518L5.98638 1.5045L5.24996 0.470985L5.22091 0.430212L5.18018 0.459317L0.73759 3.6335C0.737582 3.63351 0.737573 3.63351 0.737565 3.63352C0.619489 3.71778 0.531219 3.83737 0.485481 3.97503C0.43974 4.1127 0.438899 4.26134 0.48308 4.39953C0.527262 4.53771 0.614183 4.65829 0.731311 4.74389C0.84844 4.82948 0.989725 4.87567 1.1348 4.8758H1.13484H12.562C13.0538 4.8758 13.5255 5.07119 13.8733 5.41898C14.2211 5.76677 14.4165 6.23847 14.4165 6.73032V8.63484V8.68484H14.4665H15.7362ZM0.5 7.31516H0.45V7.36516V9.26968C0.45 9.69309 0.533396 10.1123 0.695428 10.5035C0.857459 10.8947 1.09495 11.2501 1.39435 11.5495C1.69374 11.8489 2.04917 12.0864 2.44035 12.2485C2.83114 12.4103 3.24995 12.4937 3.67293 12.4939C3.67335 12.4939 3.67378 12.4939 3.6742 12.4939H12.9646L10.2602 14.4258L10.2195 14.4548L10.2485 14.4955L10.9849 15.529L11.014 15.5698L11.0547 15.5407L15.4986 12.3665C15.4986 12.3665 15.4986 12.3665 15.4986 12.3665C15.6167 12.2822 15.7049 12.1626 15.7507 12.025C15.7964 11.8873 15.7973 11.7387 15.7531 11.6005C15.7089 11.4623 15.622 11.3417 15.5049 11.2561C15.3877 11.1705 15.2464 11.1243 15.1014 11.1242H15.1013H3.6742C3.18235 11.1242 2.71065 10.9288 2.36286 10.581C2.01507 10.2332 1.81968 9.76153 1.81968 9.26968V7.36516V7.31516H1.76968H0.5Z" fill="#7E829D" stroke="#7E829D" stroke-width="0.1"/>
</svg>
