<svg width="113" height="43" viewBox="0 0 113 43" fill="none" xmlns="http://www.w3.org/2000/svg">
<g filter="url(#filter0_d_491_164)">
<path d="M103.394 8.8866C104.587 8.97498 105.269 13.9008 105.181 15.0938L105.181 15.094L105.172 15.2236L105.145 15.5861C105.122 15.8962 105.09 16.334 105.053 16.8444C104.978 17.8657 104.884 19.1764 104.803 20.3374C104.72 21.5198 104.457 22.9785 104.196 24.4194L104.196 24.4194L104.196 24.4202C104.167 24.5789 104.139 24.7372 104.11 24.895C103.812 26.5551 103.52 28.2708 103.394 29.9354C103.269 31.5765 103.331 33.0519 103.425 34.1167C103.472 34.647 103.526 35.0699 103.568 35.354C103.588 35.496 103.606 35.6029 103.617 35.6707C103.623 35.7046 103.627 35.7288 103.63 35.7426L103.632 35.7559C103.856 36.9295 103.001 39.7349 101.827 39.9606C100.652 40.1865 99.5168 39.4173 99.2909 38.2425L99.2873 38.2233L99.2807 38.1876C99.2754 38.1585 99.2683 38.1186 99.2598 38.0686C99.2428 37.9685 99.3066 36.1557 99.2807 35.9778C99.229 35.6223 99.1647 35.1179 99.11 34.4974C99.0009 33.2607 98.9275 31.541 99.0739 29.6081C99.2186 27.6985 99.5489 25.786 99.8465 24.1292L99.9229 23.7047C100.197 22.1803 100.416 20.9668 100.481 20.0359C100.562 18.8684 100.976 16.1168 101.051 15.0938C101.088 14.5822 101.12 14.1433 101.143 13.8324L101.17 13.4687L101.18 13.3381C101.268 12.145 102.201 8.79823 103.394 8.8866Z" fill="#FFDE00"/>
<path d="M103.394 8.8866C104.587 8.97498 105.269 13.9008 105.181 15.0938L105.181 15.094L105.172 15.2236L105.145 15.5861C105.122 15.8962 105.09 16.334 105.053 16.8444C104.978 17.8657 104.884 19.1764 104.803 20.3374C104.72 21.5198 104.457 22.9785 104.196 24.4194L104.196 24.4194L104.196 24.4202C104.167 24.5789 104.139 24.7372 104.11 24.895C103.812 26.5551 103.52 28.2708 103.394 29.9354C103.269 31.5765 103.331 33.0519 103.425 34.1167C103.472 34.647 103.526 35.0699 103.568 35.354C103.588 35.496 103.606 35.6029 103.617 35.6707C103.623 35.7046 103.627 35.7288 103.63 35.7426L103.632 35.7559C103.856 36.9295 103.001 39.7349 101.827 39.9606C100.652 40.1865 99.5168 39.4173 99.2909 38.2425L99.2873 38.2233L99.2807 38.1876C99.2754 38.1585 99.2683 38.1186 99.2598 38.0686C99.2428 37.9685 99.3066 36.1557 99.2807 35.9778C99.229 35.6223 99.1647 35.1179 99.11 34.4974C99.0009 33.2607 98.9275 31.541 99.0739 29.6081C99.2186 27.6985 99.5489 25.786 99.8465 24.1292L99.9229 23.7047C100.197 22.1803 100.416 20.9668 100.481 20.0359C100.562 18.8684 100.976 16.1168 101.051 15.0938C101.088 14.5822 101.12 14.1433 101.143 13.8324L101.17 13.4687L101.18 13.3381C101.268 12.145 102.201 8.79823 103.394 8.8866Z" stroke="black" stroke-width="0.464805" stroke-linecap="round"/>
</g>
<g filter="url(#filter1_d_491_164)">
<path d="M110.694 5.74804C111.887 5.83641 112.586 7.31056 112.498 8.5036L112.488 8.6333L112.461 8.99582C112.439 9.30594 112.407 9.74371 112.369 10.2542C112.295 11.2755 112.057 13.5764 111.976 14.7374C111.91 15.691 111.868 16.9273 111.819 18.3538L111.819 18.3538C111.811 18.5958 111.802 18.8433 111.794 19.0957C111.734 20.8099 112.249 22.8674 112.11 24.7026C111.971 26.5314 112.11 30.7389 111.97 31.8625C111.9 32.4248 111.838 32.8743 111.794 33.1855C111.771 33.3411 111.753 33.4622 111.741 33.5456L111.726 33.6421L111.722 33.6684L111.72 33.6797C111.533 34.8613 109.97 34.1626 108.789 33.9755C107.607 33.7884 106.941 31.5554 107.128 30.374L107.128 30.3738L107.128 30.3736L107.129 30.3698L107.132 30.3511L107.144 30.2704C107.155 30.1977 107.171 30.0878 107.192 29.9439C107.233 29.656 107.291 29.2322 107.358 28.6979C107.491 27.6284 107.658 26.1206 107.79 24.3753C107.922 22.6363 107.994 20.8068 108.053 19.0957C108.062 18.8521 108.07 18.6099 108.078 18.3703L108.078 18.3703C108.126 16.9534 108.172 15.6242 108.244 14.5865C108.325 13.419 108.42 12.1032 108.495 11.0803C108.532 10.5686 108.564 10.1297 108.587 9.8188L108.614 9.45512L108.624 9.32446C108.712 8.13141 109.501 5.65966 110.694 5.74804Z" fill="#FFDE00"/>
<path d="M110.694 5.74804C111.887 5.83641 112.586 7.31056 112.498 8.5036L112.488 8.6333L112.461 8.99582C112.439 9.30594 112.407 9.74371 112.369 10.2542C112.295 11.2755 112.057 13.5764 111.976 14.7374C111.91 15.691 111.868 16.9273 111.819 18.3538L111.819 18.3538C111.811 18.5958 111.802 18.8433 111.794 19.0957C111.734 20.8099 112.249 22.8674 112.11 24.7026C111.971 26.5314 112.11 30.7389 111.97 31.8625C111.9 32.4248 111.838 32.8743 111.794 33.1855C111.771 33.3411 111.753 33.4622 111.741 33.5456L111.726 33.6421L111.722 33.6684L111.72 33.6797C111.533 34.8613 109.97 34.1626 108.789 33.9755C107.607 33.7884 106.941 31.5554 107.128 30.374L107.128 30.3738L107.128 30.3736L107.129 30.3698L107.132 30.3511L107.144 30.2704C107.155 30.1977 107.171 30.0878 107.192 29.9439C107.233 29.656 107.291 29.2322 107.358 28.6979C107.491 27.6284 107.658 26.1206 107.79 24.3753C107.922 22.6363 107.994 20.8068 108.053 19.0957C108.062 18.8521 108.07 18.6099 108.078 18.3703L108.078 18.3703C108.126 16.9534 108.172 15.6242 108.244 14.5865C108.325 13.419 108.42 12.1032 108.495 11.0803C108.532 10.5686 108.564 10.1297 108.587 9.8188L108.614 9.45512L108.624 9.32446C108.712 8.13141 109.501 5.65966 110.694 5.74804Z" stroke="black" stroke-width="0.464805" stroke-linecap="round"/>
</g>
<g filter="url(#filter2_d_491_164)">
<path fill-rule="evenodd" clip-rule="evenodd" d="M94.9289 19.2122C96.1454 20.1347 96.6649 22.4938 96.6649 24.1468C96.6649 26.5533 97.23 27.6724 97.8835 28.7149C98.5188 29.7286 98.2121 31.0653 97.1985 31.7007C96.1848 32.336 94.848 32.0293 94.2127 31.0157C94.1285 30.8813 94.0452 30.7448 93.9632 30.6056C92.8759 31.3838 91.5912 31.7894 90.3342 31.7913C88.959 31.7934 87.5183 30.5666 86.4646 29.4241C85.3812 28.2494 84.9449 27.381 85.1667 25.6241C85.6315 21.9434 88.1123 19.6366 90.8382 19.2122C92.1661 19.0055 93.7624 18.3277 94.9289 19.2122ZM92.3798 25.4459C92.349 25.0381 92.3327 24.6061 92.3327 24.1468C92.3327 23.7099 92.1954 23.6086 92.1688 23.5889C92.168 23.5883 92.1673 23.5878 92.1667 23.5874C92.0964 23.5341 91.8844 23.4338 91.5046 23.4929C90.815 23.6003 89.7043 24.2708 89.4648 26.1668C89.372 26.9017 89.5747 27.1593 89.6373 27.2272C89.7296 27.3273 89.9419 27.4597 90.3277 27.4591C91.0937 27.4579 92.111 26.9109 92.368 25.5058C92.3717 25.4857 92.3756 25.4658 92.3798 25.4459Z" fill="#FFDE00"/>
<path fill-rule="evenodd" clip-rule="evenodd" d="M94.9289 19.2122C96.1454 20.1347 96.6649 22.4938 96.6649 24.1468C96.6649 26.5533 97.23 27.6724 97.8835 28.7149C98.5188 29.7286 98.2121 31.0653 97.1985 31.7007C96.1848 32.336 94.848 32.0293 94.2127 31.0157C94.1285 30.8813 94.0452 30.7448 93.9632 30.6056C92.8759 31.3838 91.5912 31.7894 90.3342 31.7913C88.959 31.7934 87.5183 30.5666 86.4646 29.4241C85.3812 28.2494 84.9449 27.381 85.1667 25.6241C85.6315 21.9434 88.1123 19.6366 90.8382 19.2122C92.1661 19.0055 93.7624 18.3277 94.9289 19.2122ZM92.3798 25.4459C92.349 25.0381 92.3327 24.6061 92.3327 24.1468C92.3327 23.7099 92.1954 23.6086 92.1688 23.5889C92.168 23.5883 92.1673 23.5878 92.1667 23.5874C92.0964 23.5341 91.8844 23.4338 91.5046 23.4929C90.815 23.6003 89.7043 24.2708 89.4648 26.1668C89.372 26.9017 89.5747 27.1593 89.6373 27.2272C89.7296 27.3273 89.9419 27.4597 90.3277 27.4591C91.0937 27.4579 92.111 26.9109 92.368 25.5058C92.3717 25.4857 92.3756 25.4658 92.3798 25.4459Z" stroke="black" stroke-width="0.464805" stroke-linecap="round"/>
</g>
<g filter="url(#filter3_d_491_164)">
<path fill-rule="evenodd" clip-rule="evenodd" d="M78.8155 9.46348C78.8155 7.08861 77.8757 4.42525 76.7471 4.29247C75.8422 4.18601 75.2006 7.77759 74.7563 10.2651C74.6465 10.8798 74.5487 11.4272 74.462 11.8346C74.462 11.8346 72.6647 16.7374 72.0872 20.0699C71.5096 23.4023 71.7042 31.4844 71.7042 31.4844C71.6938 31.5727 71.6895 31.67 71.6911 31.7745C71.607 31.7749 71.524 31.7754 71.4421 31.7763C70.3058 31.788 69.3942 32.7186 69.4059 33.8549C69.4176 34.9912 70.3482 35.9029 71.4845 35.8912C71.722 35.8887 71.9612 35.8871 72.202 35.8854C75.4063 35.8634 78.8685 35.8396 81.6506 33.8976C82.2258 33.4961 82.9539 33.2239 83.6799 32.9526C84.8529 32.5142 86.0203 32.0778 86.5276 31.1014C87.3818 29.4568 86.7696 24.8512 85.9341 22.9088C85.3159 21.4715 84.5322 20.0703 83.2594 19.503C82.1462 19.0068 80.8282 19.2497 79.7655 19.4455C79.6574 19.4654 79.5519 19.4849 79.4495 19.503C78.6533 19.644 77.8708 19.9024 77.1384 20.2209C77.2014 19.5616 77.2516 19.0332 77.2833 18.6947C77.5132 16.2433 78.8155 9.46348 78.8155 9.46348ZM76.6559 25.2461C76.4307 27.5856 76.1968 30.0093 76.0404 31.6304C77.4118 31.4616 78.7535 31.1009 79.8504 30.3353C80.7323 29.7197 81.2755 28.3393 81.6648 27.3501C81.7974 27.0133 81.9121 26.7218 82.0162 26.5213C82.3932 25.7957 82.4279 25.172 82.1538 24.5348C82.1219 24.4606 82.0912 24.3884 82.0614 24.3184C81.8396 23.797 81.6721 23.4036 81.4974 23.3257C81.3412 23.2561 81.083 23.3263 80.7627 23.4134C80.5815 23.4626 80.3806 23.5173 80.1669 23.5551C78.9823 23.7649 77.61 24.5212 76.6559 25.2461Z" fill="#FFDE00"/>
<path d="M76.7471 4.29247L76.7199 4.52328L76.7471 4.29247ZM78.8155 9.46348L79.0437 9.50732L79.0479 9.4856V9.46348H78.8155ZM74.7563 10.2651L74.9851 10.3059L74.7563 10.2651ZM74.462 11.8346L74.6802 11.9145L74.6859 11.8991L74.6893 11.8829L74.462 11.8346ZM72.0872 20.0699L72.3162 20.1096L72.0872 20.0699ZM71.7042 31.4844L71.935 31.5116L71.9369 31.4952L71.9365 31.4788L71.7042 31.4844ZM71.6911 31.7745L71.692 32.0069L71.9269 32.006L71.9235 31.7711L71.6911 31.7745ZM71.4421 31.7763L71.4445 32.0087H71.4445L71.4421 31.7763ZM69.4059 33.8549L69.1735 33.8573L69.4059 33.8549ZM71.4845 35.8912L71.4869 36.1236H71.4869L71.4845 35.8912ZM72.202 35.8854L72.2036 36.1178H72.2036L72.202 35.8854ZM81.6506 33.8976L81.7837 34.0881H81.7837L81.6506 33.8976ZM83.6799 32.9526L83.7613 33.1703L83.6799 32.9526ZM86.5276 31.1014L86.7338 31.2085L86.5276 31.1014ZM85.9341 22.9088L86.1476 22.8169L85.9341 22.9088ZM83.2594 19.503L83.354 19.2907L83.2594 19.503ZM79.7655 19.4455L79.8076 19.6741H79.8076L79.7655 19.4455ZM79.4495 19.503L79.49 19.7319L79.4495 19.503ZM77.1384 20.2209L76.9071 20.1988L76.8696 20.5912L77.2311 20.434L77.1384 20.2209ZM77.2833 18.6947L77.5147 18.7164L77.2833 18.6947ZM76.6559 25.2461L76.5153 25.0611L76.4343 25.1226L76.4246 25.2239L76.6559 25.2461ZM76.0404 31.6304L75.809 31.608L75.7812 31.8964L76.0687 31.861L76.0404 31.6304ZM79.8504 30.3353L79.7173 30.1447L79.8504 30.3353ZM81.6648 27.3501L81.8811 27.4352L81.6648 27.3501ZM82.0162 26.5213L81.81 26.4142L82.0162 26.5213ZM82.1538 24.5348L82.3673 24.4429V24.4429L82.1538 24.5348ZM82.0614 24.3184L82.2753 24.2274V24.2274L82.0614 24.3184ZM81.4974 23.3257L81.4028 23.538L81.4974 23.3257ZM80.7627 23.4134L80.8236 23.6376L80.7627 23.4134ZM80.1669 23.5551L80.2075 23.7839H80.2075L80.1669 23.5551ZM76.7199 4.52328C76.9154 4.54628 77.1362 4.6846 77.3656 4.96855C77.5921 5.2488 77.8047 5.64443 77.9875 6.1205C78.3528 7.07184 78.5831 8.30302 78.5831 9.46348H79.0479C79.0479 8.24906 78.8082 6.96113 78.4215 5.95388C78.2282 5.45065 77.9944 5.00712 77.7272 4.67643C77.463 4.34945 77.1431 4.10505 76.7742 4.06166L76.7199 4.52328ZM74.9851 10.3059C75.2078 9.05921 75.4774 7.55085 75.803 6.36771C75.9664 5.77427 76.1398 5.27811 76.3213 4.94123C76.4125 4.77215 76.4981 4.65769 76.5739 4.5906C76.6472 4.52583 76.6929 4.5201 76.7199 4.52328L76.7742 4.06166C76.5751 4.03823 76.4028 4.12145 76.266 4.24243C76.1318 4.3611 76.0154 4.5292 75.9122 4.72072C75.705 5.10505 75.5206 5.64229 75.3549 6.24437C75.0225 7.45226 74.7492 8.98342 74.5275 10.2242L74.9851 10.3059ZM74.6893 11.8829C74.777 11.4709 74.8756 10.9192 74.9851 10.3059L74.5275 10.2242C74.4175 10.8405 74.3204 11.3834 74.2347 11.7862L74.6893 11.8829ZM72.3162 20.1096C72.6021 18.4596 73.1918 16.4132 73.7127 14.7729C73.9727 13.9541 74.2147 13.2391 74.3917 12.7289C74.4802 12.4738 74.5524 12.2699 74.6025 12.13C74.6275 12.06 74.647 12.006 74.6602 11.9696C74.6668 11.9514 74.6718 11.9375 74.6752 11.9283C74.6769 11.9237 74.6782 11.9202 74.679 11.9179C74.6794 11.9168 74.6797 11.9159 74.6799 11.9153C74.68 11.9151 74.6801 11.9148 74.6802 11.9147C74.6802 11.9147 74.6802 11.9146 74.6802 11.9146C74.6802 11.9145 74.6802 11.9145 74.462 11.8346C74.2438 11.7546 74.2438 11.7546 74.2438 11.7546C74.2438 11.7547 74.2437 11.7548 74.2437 11.7548C74.2437 11.755 74.2436 11.7552 74.2435 11.7556C74.2432 11.7562 74.2429 11.7571 74.2424 11.7583C74.2415 11.7608 74.2402 11.7644 74.2385 11.7691C74.235 11.7787 74.2299 11.7928 74.2232 11.8113C74.2098 11.8483 74.1901 11.9029 74.1648 11.9735C74.1143 12.1147 74.0416 12.3199 73.9526 12.5765C73.7746 13.0897 73.5312 13.8087 73.2697 14.6322C72.7475 16.2765 72.1498 18.3477 71.8582 20.0302L72.3162 20.1096ZM71.7042 31.4844C71.9365 31.4788 71.9365 31.4788 71.9365 31.4787C71.9365 31.4787 71.9365 31.4786 71.9365 31.4785C71.9365 31.4783 71.9365 31.4779 71.9365 31.4774C71.9364 31.4765 71.9364 31.475 71.9364 31.4731C71.9363 31.4693 71.9361 31.4635 71.936 31.4558C71.9356 31.4405 71.9351 31.4178 71.9345 31.3879C71.9332 31.3281 71.9314 31.2399 71.9293 31.1263C71.9251 30.8993 71.9198 30.5711 71.9152 30.1669C71.906 29.3582 71.8997 28.2455 71.9115 27.0291C71.9351 24.5893 72.0311 21.7543 72.3162 20.1096L71.8582 20.0302C71.5657 21.7179 71.4702 24.5901 71.4467 27.0246C71.4349 28.2452 71.4412 29.3613 71.4504 30.1722C71.455 30.5777 71.4604 30.9069 71.4646 31.1349C71.4667 31.2489 71.4685 31.3376 71.4698 31.3978C71.4704 31.4279 71.4709 31.4509 71.4713 31.4664C71.4715 31.4742 71.4716 31.48 71.4717 31.484C71.4717 31.486 71.4718 31.4875 71.4718 31.4885C71.4718 31.489 71.4718 31.4893 71.4718 31.4896C71.4718 31.4897 71.4718 31.4898 71.4718 31.4899C71.4718 31.49 71.4718 31.49 71.7042 31.4844ZM71.9235 31.7711C71.922 31.6747 71.926 31.5878 71.935 31.5116L71.4734 31.4573C71.4616 31.5576 71.457 31.6654 71.4587 31.778L71.9235 31.7711ZM71.4445 32.0087C71.5258 32.0078 71.6083 32.0073 71.692 32.0069L71.6902 31.5421C71.6057 31.5425 71.5222 31.543 71.4397 31.5439L71.4445 32.0087ZM69.6383 33.8525C69.6279 32.8446 70.4365 32.0191 71.4445 32.0087L71.4397 31.5439C70.1751 31.5569 69.1604 32.5927 69.1735 33.8573L69.6383 33.8525ZM71.4821 35.6588C70.4742 35.6692 69.6487 34.8605 69.6383 33.8525L69.1735 33.8573C69.1865 35.122 70.2223 36.1366 71.4869 36.1236L71.4821 35.6588ZM72.2004 35.653C71.9597 35.6547 71.72 35.6563 71.4821 35.6588L71.4869 36.1236C71.7239 36.1211 71.9628 36.1195 72.2036 36.1178L72.2004 35.653ZM81.5176 33.707C78.8047 35.6007 75.4196 35.6309 72.2004 35.653L72.2036 36.1178C75.393 36.0959 78.9323 36.0784 81.7837 34.0881L81.5176 33.707ZM83.5985 32.7349C82.8794 33.0037 82.1215 33.2855 81.5176 33.707L81.7837 34.0881C82.3301 33.7067 83.0284 33.4442 83.7613 33.1703L83.5985 32.7349ZM86.3213 30.9942C86.0959 31.4283 85.7185 31.7533 85.2384 32.0268C84.7557 32.3018 84.189 32.5142 83.5985 32.7349L83.7613 33.1703C84.3438 32.9526 84.9474 32.7276 85.4685 32.4307C85.9921 32.1324 86.452 31.751 86.7338 31.2085L86.3213 30.9942ZM85.7206 23.0006C86.1252 23.9411 86.4836 25.5517 86.6331 27.1386C86.7076 27.9296 86.7294 28.7068 86.6809 29.384C86.632 30.0667 86.513 30.6252 86.3213 30.9942L86.7338 31.2085C86.9692 30.7552 87.0941 30.1214 87.1445 29.4172C87.1954 28.7077 87.172 27.9037 87.0959 27.095C86.9439 25.4823 86.5785 23.8188 86.1476 22.8169L85.7206 23.0006ZM83.1648 19.7153C84.3466 20.2421 85.1011 21.5603 85.7206 23.0006L86.1476 22.8169C85.5306 21.3826 84.7178 19.8986 83.354 19.2907L83.1648 19.7153ZM79.8076 19.6741C80.8867 19.4752 82.129 19.2536 83.1648 19.7153L83.354 19.2907C82.1633 18.76 80.7697 19.0242 79.7234 19.217L79.8076 19.6741ZM79.49 19.7319C79.5933 19.7136 79.6996 19.694 79.8076 19.6741L79.7234 19.217C79.6151 19.2369 79.5104 19.2562 79.409 19.2742L79.49 19.7319ZM77.2311 20.434C77.9507 20.121 78.7155 19.869 79.49 19.7319L79.409 19.2742C78.5911 19.419 77.7909 19.6837 77.0457 20.0077L77.2311 20.434ZM77.0519 18.673C77.0202 19.0113 76.97 19.5395 76.9071 20.1988L77.3698 20.243C77.4327 19.5837 77.483 19.0551 77.5147 18.7164L77.0519 18.673ZM78.8155 9.46348C78.5873 9.41964 78.5873 9.41967 78.5872 9.41972C78.5872 9.41978 78.5872 9.41986 78.5872 9.41996C78.5872 9.42017 78.5871 9.42049 78.587 9.4209C78.5869 9.42174 78.5866 9.42298 78.5863 9.42462C78.5857 9.42791 78.5847 9.43281 78.5835 9.43929C78.581 9.45223 78.5773 9.47146 78.5725 9.49663C78.5629 9.54698 78.5488 9.6211 78.5307 9.71629C78.4946 9.90666 78.4428 10.1813 78.3799 10.5185C78.2542 11.1929 78.0841 12.1177 77.9068 13.1193C77.5528 15.1184 77.1679 17.436 77.0519 18.673L77.5147 18.7164C77.6286 17.5019 78.0097 15.2039 78.3644 13.2003C78.5414 12.2005 78.7113 11.2772 78.8369 10.6037C78.8997 10.267 78.9514 9.99285 78.9874 9.80288C79.0054 9.7079 79.0195 9.63396 79.0291 9.5838C79.0339 9.55872 79.0375 9.53958 79.04 9.52672C79.0412 9.52029 79.0422 9.51543 79.0428 9.51218C79.0431 9.51056 79.0433 9.50934 79.0435 9.50852C79.0436 9.50812 79.0436 9.50781 79.0437 9.50761C79.0437 9.50751 79.0437 9.50744 79.0437 9.50739C79.0437 9.50734 79.0437 9.50732 78.8155 9.46348ZM76.4246 25.2239C76.1994 27.5633 75.9655 29.987 75.809 31.608L76.2717 31.6527C76.4282 30.0316 76.662 27.6079 76.8873 25.2684L76.4246 25.2239ZM76.0687 31.861C77.4584 31.69 78.8426 31.3221 79.9834 30.5259L79.7173 30.1447C78.6643 30.8797 77.3651 31.2332 76.012 31.3997L76.0687 31.861ZM79.9834 30.5259C80.4687 30.1871 80.846 29.6503 81.1468 29.0932C81.4493 28.5333 81.6872 27.9279 81.8811 27.4352L81.4486 27.265C81.2532 27.7615 81.0249 28.3409 80.7379 28.8723C80.4493 29.4066 80.114 29.8678 79.7173 30.1447L79.9834 30.5259ZM81.8811 27.4352C82.0155 27.0935 82.1252 26.8156 82.2224 26.6285L81.81 26.4142C81.6989 26.6281 81.5792 26.9331 81.4486 27.265L81.8811 27.4352ZM82.2224 26.6285C82.6267 25.8502 82.6728 25.1532 82.3673 24.4429L81.9403 24.6266C82.183 25.1908 82.1596 25.7411 81.81 26.4142L82.2224 26.6285ZM82.3673 24.4429C82.3356 24.3693 82.3051 24.2974 82.2753 24.2274L81.8476 24.4094C81.8773 24.4793 81.9083 24.552 81.9403 24.6266L82.3673 24.4429ZM82.2753 24.2274C82.1658 23.97 82.0643 23.731 81.9673 23.5473C81.9186 23.455 81.867 23.3687 81.8112 23.2973C81.7575 23.2285 81.686 23.1553 81.592 23.1134L81.4028 23.538C81.3962 23.535 81.4112 23.5402 81.4449 23.5834C81.4766 23.624 81.5135 23.6832 81.5562 23.7642C81.6421 23.927 81.7352 24.1454 81.8476 24.4094L82.2753 24.2274ZM81.592 23.1134C81.4494 23.0498 81.2887 23.06 81.1551 23.0813C81.016 23.1034 80.858 23.1466 80.7017 23.1891L80.8236 23.6376C80.9877 23.593 81.119 23.5576 81.2281 23.5403C81.3428 23.5221 81.3893 23.5319 81.4028 23.538L81.592 23.1134ZM80.7017 23.1891C80.5194 23.2387 80.3282 23.2905 80.1264 23.3263L80.2075 23.7839C80.4329 23.744 80.6437 23.6866 80.8236 23.6376L80.7017 23.1891ZM80.1264 23.3263C78.8908 23.545 77.4841 24.325 76.5153 25.0611L76.7965 25.4312C77.7358 24.7175 79.0737 23.9847 80.2075 23.7839L80.1264 23.3263Z" fill="black"/>
</g>
<g filter="url(#filter4_d_491_164)">
<path fill-rule="evenodd" clip-rule="evenodd" d="M39.4392 10.7312C38.4879 10.3679 37.6271 10.2356 36.8804 10.2247C36.9254 12.2214 36.9458 14.8031 36.7453 17.5788C36.8649 17.6019 36.9835 17.6252 37.1013 17.6483C37.4056 17.708 37.7042 17.7666 37.9983 17.8169C38.1474 17.8424 38.6256 17.9616 39.0845 18.076C39.5024 18.1801 39.9044 18.2803 40.0269 18.302C40.2126 18.335 40.3893 18.3671 40.5585 18.3979C41.888 18.6398 42.7503 18.7967 43.819 18.5702C44.9893 18.3221 46.8268 18.2425 47.0748 19.4129C47.3229 20.5832 45.449 21.6474 44.2786 21.8954C42.2444 22.3266 41.5413 22.1969 40.0572 21.9229C40.0084 21.9139 39.9588 21.9047 39.9083 21.8954C39.7815 21.8721 39.1811 21.8171 38.6131 21.7651C38.1111 21.7192 37.6344 21.6756 37.5325 21.6581C37.1099 21.5859 36.7051 21.5244 36.3114 21.4813C36.1428 22.5715 35.9293 23.6639 35.6603 24.7371C34.1481 30.7704 34.5636 33.2798 34.7171 34.2069L34.7171 34.2069C34.7286 34.2765 34.7387 34.3371 34.7463 34.3896C34.8995 37.1858 33.094 39.8288 31.4469 39.8288C30.2631 40.0009 29.1179 37.2151 28.9458 36.0312C28.8619 35.454 29.0748 34.3041 29.3442 32.8491L29.3442 32.8491C29.522 31.8887 29.7245 30.7953 29.8824 29.6459C29.9764 28.9625 30.002 28.3037 30.0288 27.6147C30.0755 26.4171 30.1256 25.1281 30.5441 23.4587C30.6758 22.9332 30.7856 22.3871 30.8814 21.8283C30.4173 21.6004 30.0328 21.2065 29.8257 20.6887C29.3814 19.578 29.9217 18.3174 31.0324 17.8731C31.1682 17.8188 31.3025 17.7688 31.4355 17.723C31.5102 17.144 31.5899 16.5703 31.6828 16.0097C31.7459 15.6283 31.9039 15.0305 32.0636 14.426C32.2524 13.7114 32.4437 12.9874 32.4837 12.6007C32.5884 11.5895 32.6232 10.8308 32.6231 10.2165C31.9259 9.60289 31.3409 8.59314 31.1788 7.87801C30.9143 6.7113 31.6457 5.5511 32.8124 5.28662C34.2103 4.96975 35.4329 4.84918 40.173 5.80276C44.3796 6.64903 48.2063 7.09544 48.8679 6.8625C49.4784 6.89089 50.0125 6.77949 50.4631 6.68549C51.2281 6.52589 51.7527 6.41646 52.0027 7.12662C52.2158 7.73184 51.7441 9.46942 50.9746 10.1949C50.3094 10.8221 50.0936 11.0215 48.8679 11.453C48.0438 11.7432 46.7657 11.9447 44.955 11.7211C44.6603 11.6848 44.3392 11.6522 43.9989 11.6178C42.6309 11.4792 40.9528 11.3092 39.4392 10.7312Z" fill="#FFDE00"/>
<path d="M36.8804 10.2247L36.8838 9.99235L36.6427 9.98884L36.6481 10.23L36.8804 10.2247ZM39.4392 10.7312L39.5221 10.5141L39.4392 10.7312ZM36.7453 17.5788L36.5135 17.5621L36.4986 17.768L36.7013 17.8071L36.7453 17.5788ZM37.1013 17.6483L37.146 17.4202H37.146L37.1013 17.6483ZM37.9983 17.8169L37.9591 18.046H37.9591L37.9983 17.8169ZM39.0845 18.076L39.1407 17.8504L39.0845 18.076ZM40.0269 18.302L39.9864 18.5309H39.9864L40.0269 18.302ZM40.5585 18.3979L40.5169 18.6265H40.5169L40.5585 18.3979ZM43.819 18.5702L43.8672 18.7975L43.819 18.5702ZM47.0748 19.4129L46.8475 19.4611L47.0748 19.4129ZM44.2786 21.8954L44.2305 21.6681L44.2786 21.8954ZM40.0572 21.9229L40.0993 21.6943H40.0993L40.0572 21.9229ZM39.9083 21.8954L39.9503 21.6669L39.9503 21.6669L39.9083 21.8954ZM38.6131 21.7651L38.6343 21.5337H38.6343L38.6131 21.7651ZM37.5325 21.6581L37.4933 21.8872H37.4933L37.5325 21.6581ZM36.3114 21.4813L36.3367 21.2502L36.1157 21.226L36.0817 21.4457L36.3114 21.4813ZM35.6603 24.7371L35.8858 24.7936L35.6603 24.7371ZM34.7171 34.2069L34.9479 34.1781L34.9464 34.169L34.7171 34.2069ZM34.7171 34.2069L34.4863 34.2358L34.4878 34.2449L34.7171 34.2069ZM34.7463 34.3896L34.9783 34.3769L34.9778 34.3665L34.9763 34.3562L34.7463 34.3896ZM31.4469 39.8288V39.5964H31.4301L31.4135 39.5988L31.4469 39.8288ZM28.9458 36.0312L29.1758 35.9978H29.1758L28.9458 36.0312ZM29.3442 32.8491L29.5728 32.8914L29.5735 32.8869L29.3442 32.8491ZM29.3442 32.8491L29.1156 32.8068L29.1149 32.8113L29.3442 32.8491ZM29.8824 29.6459L30.1127 29.6775L29.8824 29.6459ZM30.0288 27.6147L29.7966 27.6057L30.0288 27.6147ZM30.5441 23.4587L30.3186 23.4022L30.5441 23.4587ZM30.8814 21.8283L31.1105 21.8675L31.1398 21.6963L30.9838 21.6197L30.8814 21.8283ZM29.8257 20.6887L30.0415 20.6024L29.8257 20.6887ZM31.0324 17.8731L31.1187 18.0888H31.1187L31.0324 17.8731ZM31.4355 17.723L31.5112 17.9427L31.6475 17.8957L31.666 17.7527L31.4355 17.723ZM31.6828 16.0097L31.4535 15.9718L31.6828 16.0097ZM32.0636 14.426L31.8389 14.3667L32.0636 14.426ZM32.4837 12.6007L32.7149 12.6246L32.4837 12.6007ZM32.6231 10.2165L32.8555 10.2165L32.8555 10.1115L32.7767 10.0421L32.6231 10.2165ZM31.1788 7.87801L30.9521 7.92939L31.1788 7.87801ZM32.8124 5.28662L32.8638 5.51327L32.8124 5.28662ZM40.173 5.80276L40.2188 5.57492L40.173 5.80276ZM48.8679 6.8625L48.8787 6.63034L48.8335 6.62824L48.7908 6.64328L48.8679 6.8625ZM50.4631 6.68549L50.5105 6.91299L50.4631 6.68549ZM52.0027 7.12662L52.2219 7.04944V7.04944L52.0027 7.12662ZM50.9746 10.1949L51.1341 10.364L50.9746 10.1949ZM48.8679 11.453L48.9451 11.6722L48.8679 11.453ZM44.955 11.7211L44.9834 11.4905L44.955 11.7211ZM43.9989 11.6178L44.0223 11.3865L43.9989 11.6178ZM36.8771 10.4571C37.5981 10.4676 38.4318 10.5952 39.3563 10.9483L39.5221 10.5141C38.5439 10.1405 37.6561 10.0036 36.8838 9.99235L36.8771 10.4571ZM36.9771 17.5956C37.1783 14.809 37.1578 12.2188 37.1128 10.2195L36.6481 10.23C36.693 12.224 36.7132 14.7972 36.5135 17.5621L36.9771 17.5956ZM37.146 17.4202C37.0283 17.3971 36.9093 17.3738 36.7892 17.3506L36.7013 17.8071C36.8204 17.83 36.9387 17.8532 37.0565 17.8763L37.146 17.4202ZM38.0375 17.5878C37.7466 17.5381 37.4509 17.48 37.146 17.4202L37.0565 17.8763C37.3603 17.9359 37.6617 17.9951 37.9591 18.046L38.0375 17.5878ZM39.1407 17.8504C38.6891 17.7379 38.1979 17.6152 38.0375 17.5878L37.9591 18.046C38.097 18.0695 38.5622 18.1853 39.0283 18.3015L39.1407 17.8504ZM40.0675 18.0732C39.9553 18.0533 39.5654 17.9563 39.1407 17.8504L39.0283 18.3015C39.4394 18.4039 39.8535 18.5073 39.9864 18.5309L40.0675 18.0732ZM40.6001 18.1692C40.431 18.1385 40.2538 18.1062 40.0675 18.0732L39.9864 18.5309C40.1714 18.5637 40.3477 18.5958 40.5169 18.6265L40.6001 18.1692ZM43.7708 18.3428C42.7538 18.5584 41.9361 18.4123 40.6001 18.1692L40.5169 18.6265C41.84 18.8673 42.7469 19.035 43.8672 18.7975L43.7708 18.3428ZM47.3022 19.3647C47.1471 18.6331 46.4942 18.3297 45.8272 18.2298C45.1519 18.1286 44.3693 18.216 43.7708 18.3428L43.8672 18.7975C44.439 18.6763 45.1603 18.5999 45.7583 18.6895C46.3646 18.7803 46.7545 19.0223 46.8475 19.4611L47.3022 19.3647ZM44.3268 22.1228C44.9448 21.9918 45.7375 21.6496 46.3492 21.1851C46.9452 20.7325 47.4565 20.0927 47.3022 19.3647L46.8475 19.4611C46.9412 19.9033 46.6396 20.3808 46.0681 20.8149C45.5122 21.237 44.7829 21.551 44.2305 21.6681L44.3268 22.1228ZM40.015 22.1514C40.7538 22.2878 41.3192 22.3927 41.9568 22.406C42.5967 22.4193 43.3001 22.3404 44.3268 22.1228L44.2305 21.6681C43.223 21.8816 42.5577 21.9535 41.9664 21.9412C41.3729 21.9289 40.8447 21.8319 40.0993 21.6943L40.015 22.1514ZM39.8662 22.124C39.9167 22.1333 39.9662 22.1424 40.015 22.1514L40.0993 21.6943C40.0506 21.6853 40.0009 21.6762 39.9503 21.6669L39.8662 22.124ZM38.5919 21.9966C39.1702 22.0495 39.7531 22.1032 39.8662 22.124L39.9503 21.6669C39.8098 21.641 39.1919 21.5848 38.6343 21.5337L38.5919 21.9966ZM37.4933 21.8872C37.6071 21.9067 38.0989 21.9515 38.5919 21.9966L38.6343 21.5337C38.1233 21.4869 37.6618 21.4445 37.5717 21.4291L37.4933 21.8872ZM36.2861 21.7123C36.6734 21.7547 37.0732 21.8154 37.4933 21.8872L37.5717 21.4291C37.1467 21.3564 36.7368 21.294 36.3367 21.2502L36.2861 21.7123ZM35.8858 24.7936C36.1567 23.7125 36.3715 22.6131 36.5411 21.5168L36.0817 21.4457C35.914 22.53 35.7019 23.6153 35.4349 24.6806L35.8858 24.7936ZM34.9464 34.169C34.7982 33.2743 34.381 30.7971 35.8858 24.7936L35.4349 24.6806C33.9152 30.7438 34.3289 33.2853 34.4878 34.2449L34.9464 34.169ZM34.9477 34.1781L34.9477 34.1781L34.4865 34.2357L34.4865 34.2358L34.9477 34.1781ZM34.9763 34.3562C34.9682 34.3009 34.9578 34.2378 34.9464 34.169L34.4878 34.2449C34.4994 34.3151 34.5091 34.3733 34.5163 34.4231L34.9763 34.3562ZM31.4469 40.0612C32.39 40.0612 33.3144 39.317 33.9682 38.2819C34.6303 37.2336 35.0578 35.8264 34.9783 34.3769L34.5142 34.4023C34.588 35.7491 34.1893 37.0614 33.5752 38.0337C32.9528 39.0191 32.1509 39.5964 31.4469 39.5964V40.0612ZM28.7158 36.0647C28.8066 36.6887 29.1466 37.7077 29.6137 38.5511C29.8475 38.9733 30.1211 39.3662 30.4232 39.6452C30.7223 39.9216 31.0837 40.1164 31.4804 40.0588L31.4135 39.5988C31.2182 39.6272 30.9925 39.5384 30.7386 39.3038C30.4876 39.0719 30.2422 38.7266 30.0203 38.3259C29.5758 37.5234 29.2572 36.5576 29.1758 35.9978L28.7158 36.0647ZM29.1157 32.8068C28.9813 33.5327 28.8596 34.1894 28.7824 34.7369C28.7061 35.2775 28.6685 35.7394 28.7158 36.0647L29.1758 35.9978C29.1391 35.7458 29.1661 35.3441 29.2426 34.8018C29.3182 34.2663 29.4377 33.6206 29.5727 32.8914L29.1157 32.8068ZM29.1149 32.8113L29.1149 32.8113L29.5735 32.8869L29.5735 32.8869L29.1149 32.8113ZM29.6522 29.6143C29.4951 30.7576 29.2936 31.8458 29.1157 32.8068L29.5727 32.8914C29.7504 31.9316 29.9539 30.8331 30.1127 29.6775L29.6522 29.6143ZM29.7966 27.6057C29.7697 28.2963 29.7443 28.9439 29.6522 29.6143L30.1127 29.6775C30.2084 28.9811 30.2343 28.3111 30.2611 27.6237L29.7966 27.6057ZM30.3186 23.4022C29.8939 25.0966 29.8433 26.4064 29.7966 27.6057L30.2611 27.6237C30.3076 26.4279 30.3573 25.1595 30.7695 23.5152L30.3186 23.4022ZM30.6523 21.789C30.5572 22.3437 30.4486 22.8838 30.3186 23.4022L30.7695 23.5152C30.903 22.9825 31.0139 22.4305 31.1105 21.8675L30.6523 21.789ZM29.6099 20.775C29.8392 21.3483 30.2653 21.7846 30.779 22.0369L30.9838 21.6197C30.5694 21.4161 30.2264 21.0648 30.0415 20.6024L29.6099 20.775ZM30.9461 17.6573C29.7162 18.1492 29.1179 19.5451 29.6099 20.775L30.0415 20.6024C29.6448 19.6108 30.1271 18.4855 31.1187 18.0888L30.9461 17.6573ZM31.3597 17.5032C31.2232 17.5503 31.0853 17.6016 30.9461 17.6573L31.1187 18.0888C31.251 18.0359 31.3818 17.9873 31.5112 17.9427L31.3597 17.5032ZM31.4535 15.9718C31.36 16.5362 31.2799 17.1129 31.205 17.6932L31.666 17.7527C31.7405 17.175 31.8199 16.6044 31.9121 16.0477L31.4535 15.9718ZM31.8389 14.3667C31.6806 14.9659 31.5189 15.5768 31.4535 15.9718L31.9121 16.0477C31.973 15.6798 32.1272 15.0951 32.2883 14.4854L31.8389 14.3667ZM32.2525 12.5768C32.2149 12.9406 32.0305 13.6415 31.8389 14.3667L32.2883 14.4854C32.4743 13.7813 32.6725 13.0343 32.7149 12.6246L32.2525 12.5768ZM32.3907 10.2165C32.3908 10.8216 32.3565 11.5723 32.2525 12.5768L32.7149 12.6246C32.8202 11.6067 32.8556 10.8399 32.8555 10.2165L32.3907 10.2165ZM30.9521 7.92939C31.1257 8.695 31.7378 9.74698 32.4696 10.391L32.7767 10.0421C32.114 9.45881 31.5561 8.49128 31.4055 7.82663L30.9521 7.92939ZM32.7611 5.05997C31.4692 5.35282 30.6593 6.6375 30.9521 7.92939L31.4055 7.82663C31.1694 6.7851 31.8223 5.74937 32.8638 5.51327L32.7611 5.05997ZM40.2188 5.57492C35.4672 4.61901 34.2064 4.73233 32.7611 5.05997L32.8638 5.51327C34.2142 5.20717 35.3987 5.07935 40.1271 6.03059L40.2188 5.57492ZM48.7908 6.64328C48.7419 6.66049 48.6384 6.67815 48.4658 6.68642C48.2992 6.69439 48.0866 6.693 47.8318 6.68201C47.3224 6.66004 46.657 6.60035 45.8776 6.50659C44.3193 6.31916 42.3171 5.99705 40.2188 5.57492L40.1271 6.03059C42.2355 6.45474 44.2499 6.77896 45.8221 6.96807C46.6078 7.06258 47.286 7.12371 47.8117 7.14638C48.0744 7.15771 48.3022 7.15958 48.488 7.15069C48.6677 7.14208 48.8286 7.12274 48.9451 7.08171L48.7908 6.64328ZM50.4156 6.45798C49.9637 6.55226 49.4563 6.65721 48.8787 6.63034L48.8571 7.09465C49.5006 7.12458 50.0613 7.00671 50.5105 6.91299L50.4156 6.45798ZM52.2219 7.04944C52.1506 6.84689 52.053 6.68348 51.9202 6.56331C51.7852 6.4412 51.6286 6.37706 51.4629 6.35044C51.1529 6.30061 50.7817 6.38162 50.4156 6.45798L50.5105 6.91299C50.9095 6.82976 51.1832 6.77625 51.3892 6.80935C51.4815 6.8242 51.5507 6.85588 51.6083 6.90799C51.6681 6.96205 51.7298 7.05127 51.7835 7.20379L52.2219 7.04944ZM51.1341 10.364C51.5604 9.96208 51.8861 9.30296 52.079 8.6849C52.1765 8.37226 52.2433 8.06019 52.2714 7.78277C52.2988 7.51201 52.2922 7.24913 52.2219 7.04944L51.7835 7.20379C51.8197 7.30671 51.8341 7.48799 51.8089 7.73591C51.7845 7.97718 51.7252 8.25833 51.6353 8.54643C51.4532 9.12985 51.1584 9.70228 50.8152 10.0258L51.1341 10.364ZM48.9451 11.6722C49.5621 11.455 49.9422 11.2905 50.255 11.0942C50.5679 10.8979 50.8043 10.6749 51.1341 10.364L50.8152 10.0258C50.4797 10.3421 50.2757 10.5325 50.0079 10.7005C49.7401 10.8686 49.3995 11.0195 48.7908 11.2338L48.9451 11.6722ZM44.9265 11.9518C46.7671 12.1791 48.082 11.9761 48.9451 11.6722L48.7908 11.2338C48.0056 11.5102 46.7643 11.7104 44.9834 11.4905L44.9265 11.9518ZM43.9755 11.849C44.3164 11.8835 44.6348 11.9158 44.9265 11.9518L44.9834 11.4905C44.6858 11.4537 44.362 11.4209 44.0223 11.3865L43.9755 11.849ZM39.3563 10.9483C40.9033 11.5391 42.6123 11.7109 43.9755 11.849L44.0223 11.3865C42.6495 11.2475 41.0023 11.0793 39.5221 10.5141L39.3563 10.9483Z" fill="black"/>
</g>
<g filter="url(#filter5_d_491_164)">
<path fill-rule="evenodd" clip-rule="evenodd" d="M58.4963 13.888C58.1899 13.8114 56.9307 13.8553 56.2241 14.39C55.4703 14.9604 55.2282 15.5589 56.6203 17.2825C56.8336 17.5466 57.0147 17.7977 57.1845 18.0331C58.123 19.3342 58.7157 20.1559 62.4807 20.0404C62.8209 20.03 63.2144 19.9883 63.6412 19.9235C63.7703 21.2844 63.9344 23.2066 63.9748 24.5602C64.0438 26.8719 62.614 33.9396 62.614 33.9396C62.3535 35.2358 63.193 36.4978 64.4892 36.7585C65.7855 37.0192 67.0477 36.1797 67.3085 34.8834L67.3098 34.8767L67.3123 34.8641L67.3206 34.8218C67.3275 34.7862 67.3372 34.7357 67.3492 34.6714C67.3732 34.543 67.4066 34.3591 67.4459 34.1282C67.5244 33.667 67.6272 33.015 67.7268 32.2394C67.8493 31.2851 67.7314 29.8765 67.6119 28.4501C67.539 27.5786 67.4654 26.7005 67.4459 25.9154C67.4232 25.004 67.5025 24.1711 67.5789 23.37C67.6689 22.4253 67.7547 21.5249 67.664 20.5921C67.6073 20.0096 67.552 19.4816 67.5035 19.0369C68.7524 18.685 69.8508 18.3275 70.4096 18.1252C71.6761 17.6668 72.778 17.0459 73.4072 16.3633C74.3034 15.391 74.3795 15.1116 73.4072 14.2154C72.4349 13.3192 71.0669 13.5401 70.0241 14.3532C69.9219 14.4329 69.8515 14.4808 69.8166 14.5045C69.8116 14.5079 69.8074 14.5108 69.8038 14.5132C69.723 14.5689 69.6279 14.6168 68.9756 14.8529C68.1606 15.1479 66.9159 15.4374 65.182 15.4905C63.5087 15.5419 62.1736 15.2807 61.2104 14.9604C60.7273 14.7997 60.3434 14.626 60.0617 14.4738C59.9896 14.4349 59.8328 14.3869 59.6863 14.342C59.5469 14.2992 59.4167 14.2593 59.3773 14.2328C59.3773 14.2328 58.8028 13.9646 58.4963 13.888Z" fill="#FFDE00"/>
<path d="M56.2241 14.39L56.3643 14.5754L56.2241 14.39ZM58.4963 13.888L58.5527 13.6626V13.6626L58.4963 13.888ZM56.6203 17.2825L56.4395 17.4286L56.6203 17.2825ZM57.1845 18.0331L57.373 17.8972L57.1845 18.0331ZM62.4807 20.0404L62.4878 20.2727L62.4807 20.0404ZM63.6412 19.9235L63.8726 19.9016L63.8494 19.6569L63.6063 19.6938L63.6412 19.9235ZM63.9748 24.5602L63.7425 24.5672L63.9748 24.5602ZM62.614 33.9396L62.3862 33.8935L62.3861 33.8938L62.614 33.9396ZM64.4892 36.7585L64.4433 36.9863L64.4892 36.7585ZM67.3085 34.8834L67.5363 34.9292L67.5364 34.9291L67.3085 34.8834ZM67.3098 34.8767L67.5377 34.9223L67.5378 34.9219L67.3098 34.8767ZM67.3123 34.8641L67.5403 34.9094L67.5404 34.9088L67.3123 34.8641ZM67.3206 34.8218L67.5487 34.8665L67.5487 34.8662L67.3206 34.8218ZM67.3492 34.6714L67.5777 34.7141L67.5777 34.7141L67.3492 34.6714ZM67.4459 34.1282L67.2168 34.0892L67.4459 34.1282ZM67.7268 32.2394L67.9573 32.269L67.7268 32.2394ZM67.6119 28.4501L67.3803 28.4695L67.6119 28.4501ZM67.4459 25.9154L67.6782 25.9096L67.4459 25.9154ZM67.5789 23.37L67.8102 23.392L67.5789 23.37ZM67.664 20.5921L67.8953 20.5696L67.664 20.5921ZM67.5035 19.0369L67.4404 18.8132L67.2511 18.8666L67.2724 19.0621L67.5035 19.0369ZM70.4096 18.1252L70.4887 18.3438L70.4096 18.1252ZM73.4072 16.3633L73.2363 16.2057V16.2057L73.4072 16.3633ZM73.4072 14.2154L73.5647 14.0445V14.0445L73.4072 14.2154ZM70.0241 14.3532L69.8812 14.1699V14.1699L70.0241 14.3532ZM69.8166 14.5045L69.6858 14.3124L69.6858 14.3124L69.8166 14.5045ZM69.8038 14.5132L69.672 14.3218L69.672 14.3218L69.8038 14.5132ZM68.9756 14.8529L68.8965 14.6344L68.9756 14.8529ZM65.182 15.4905L65.1892 15.7228L65.182 15.4905ZM61.2104 14.9604L61.2837 14.7398L61.2104 14.9604ZM60.0617 14.4738L60.1721 14.2694L60.1721 14.2694L60.0617 14.4738ZM59.6863 14.342L59.7544 14.1198V14.1198L59.6863 14.342ZM59.3773 14.2328L59.5074 14.0402L59.4922 14.0299L59.4756 14.0222L59.3773 14.2328ZM56.3643 14.5754C56.673 14.3418 57.1202 14.2053 57.5458 14.1395C57.7554 14.1071 57.9525 14.0929 58.1137 14.0914C58.2804 14.0897 58.3927 14.1017 58.44 14.1135L58.5527 13.6626C58.4468 13.6361 58.2868 13.6248 58.1091 13.6266C57.9259 13.6284 57.7066 13.6443 57.4748 13.6801C57.0175 13.7508 56.4818 13.9036 56.0839 14.2047L56.3643 14.5754ZM56.8011 17.1365C56.1068 16.2769 55.8653 15.7482 55.8497 15.3935C55.8357 15.0759 56.0041 14.8479 56.3643 14.5754L56.0839 14.2047C55.6904 14.5024 55.3608 14.8589 55.3853 15.414C55.4082 15.9322 55.7417 16.5645 56.4395 17.4286L56.8011 17.1365ZM57.373 17.8972C57.2035 17.6622 57.0189 17.4062 56.8011 17.1365L56.4395 17.4286C56.6482 17.687 56.8259 17.9333 56.996 18.1691L57.373 17.8972ZM62.4736 19.8081C60.6011 19.8656 59.5578 19.6873 58.8733 19.3585C58.1972 19.0337 57.845 18.5516 57.373 17.8972L56.996 18.1691C57.4624 18.8157 57.8758 19.395 58.672 19.7775C59.4597 20.1559 60.5953 20.3308 62.4878 20.2727L62.4736 19.8081ZM63.6063 19.6938C63.185 19.7577 62.8014 19.7981 62.4736 19.8081L62.4878 20.2727C62.8405 20.2619 63.2437 20.2189 63.6761 20.1533L63.6063 19.6938ZM64.2071 24.5533C64.1664 23.1914 64.0016 21.2624 63.8726 19.9016L63.4098 19.9455C63.5389 21.3064 63.7023 23.2219 63.7425 24.5672L64.2071 24.5533ZM62.614 33.9396C62.8418 33.9857 62.8418 33.9856 62.8418 33.9856C62.8418 33.9855 62.8418 33.9854 62.8419 33.9853C62.8419 33.9851 62.842 33.9847 62.8421 33.9843C62.8422 33.9834 62.8425 33.9821 62.8428 33.9804C62.8435 33.9769 62.8446 33.9718 62.8459 33.965C62.8487 33.9515 62.8527 33.9314 62.8579 33.9052C62.8684 33.8527 62.8838 33.7754 62.9033 33.6763C62.9424 33.4781 62.998 33.1925 63.0646 32.8426C63.1978 32.1429 63.3747 31.1856 63.5494 30.1557C63.897 28.1068 64.2424 25.737 64.2071 24.5533L63.7425 24.5672C63.7762 25.6952 63.4411 28.0151 63.0911 30.0779C62.9171 31.1039 62.7408 32.058 62.608 32.7557C62.5416 33.1045 62.4862 33.3891 62.4473 33.5865C62.4278 33.6851 62.4126 33.762 62.4021 33.8141C62.3969 33.8402 62.3929 33.8601 62.3903 33.8734C62.3889 33.8801 62.3879 33.8851 62.3872 33.8885C62.3869 33.8902 62.3866 33.8914 62.3865 33.8923C62.3864 33.8927 62.3863 33.893 62.3863 33.8932C62.3862 33.8933 62.3862 33.8934 62.3862 33.8934C62.3862 33.8935 62.3862 33.8935 62.614 33.9396ZM64.535 36.5306C63.3646 36.2952 62.6066 35.1557 62.8418 33.9854L62.3861 33.8938C62.1004 35.3158 63.0213 36.7003 64.4433 36.9863L64.535 36.5306ZM67.0807 34.8376C66.8452 36.0081 65.7055 36.7661 64.535 36.5306L64.4433 36.9863C65.8655 37.2724 67.2503 36.3514 67.5363 34.9292L67.0807 34.8376ZM67.082 34.831L67.0806 34.8378L67.5364 34.9291L67.5377 34.9223L67.082 34.831ZM67.0844 34.8189L67.0819 34.8314L67.5378 34.9219L67.5403 34.9094L67.0844 34.8189ZM67.0925 34.7772L67.0843 34.8194L67.5404 34.9088L67.5487 34.8665L67.0925 34.7772ZM67.1208 34.6288C67.1089 34.6925 67.0993 34.7424 67.0925 34.7775L67.5487 34.8662C67.5558 34.83 67.5656 34.7789 67.5777 34.7141L67.1208 34.6288ZM67.2168 34.0892C67.1777 34.3188 67.1446 34.5014 67.1208 34.6288L67.5777 34.7141C67.6019 34.5845 67.6354 34.3994 67.675 34.1672L67.2168 34.0892ZM67.4963 32.2098C67.3972 32.9818 67.2949 33.6306 67.2168 34.0892L67.675 34.1672C67.754 33.7034 67.8573 33.0483 67.9573 32.269L67.4963 32.2098ZM67.3803 28.4695C67.5007 29.9068 67.6149 31.2859 67.4963 32.2098L67.9573 32.269C68.0837 31.2843 67.962 29.8461 67.8435 28.4307L67.3803 28.4695ZM67.2135 25.9212C67.2333 26.7145 67.3075 27.5997 67.3803 28.4695L67.8435 28.4307C67.7704 27.5575 67.6976 26.6866 67.6782 25.9096L67.2135 25.9212ZM67.3475 23.3479C67.2713 24.1477 67.1904 24.9939 67.2135 25.9212L67.6782 25.9096C67.6559 25.0142 67.7338 24.1944 67.8102 23.392L67.3475 23.3479ZM67.4327 20.6147C67.5209 21.5215 67.4379 22.3998 67.3475 23.3479L67.8102 23.392C67.8999 22.4508 67.9886 21.5282 67.8953 20.5696L67.4327 20.6147ZM67.2724 19.0621C67.3209 19.506 67.3761 20.0331 67.4327 20.6147L67.8953 20.5696C67.8385 19.986 67.7831 19.4571 67.7345 19.0117L67.2724 19.0621ZM70.3305 17.9067C69.7781 18.1066 68.6853 18.4624 67.4404 18.8132L67.5665 19.2606C68.8196 18.9075 69.9235 18.5483 70.4887 18.3438L70.3305 17.9067ZM73.2363 16.2057C72.6438 16.8486 71.5822 17.4536 70.3305 17.9067L70.4887 18.3438C71.77 17.88 72.9123 17.2431 73.5781 16.5208L73.2363 16.2057ZM73.2497 14.3863C73.4901 14.6078 73.6518 14.7791 73.7522 14.9244C73.8501 15.0663 73.8783 15.1673 73.8756 15.2535C73.8728 15.3438 73.835 15.455 73.7286 15.6146C73.6218 15.7749 73.4602 15.9629 73.2363 16.2057L73.5781 16.5208C73.8023 16.2775 73.9863 16.066 74.1154 15.8724C74.2449 15.6781 74.3335 15.4812 74.3402 15.2681C74.347 15.0509 74.2679 14.8532 74.1347 14.6603C74.0038 14.4708 73.8105 14.271 73.5647 14.0445L73.2497 14.3863ZM70.167 14.5365C71.1599 13.7623 72.3934 13.597 73.2497 14.3863L73.5647 14.0445C72.4765 13.0414 70.9738 13.318 69.8812 14.1699L70.167 14.5365ZM69.9473 14.6967C69.9841 14.6716 70.0591 14.6206 70.167 14.5365L69.8812 14.1699C69.7846 14.2452 69.7189 14.2899 69.6858 14.3124L69.9473 14.6967ZM69.9356 14.7046C69.9385 14.7027 69.9421 14.7002 69.9473 14.6967L69.6858 14.3124C69.6811 14.3156 69.6762 14.3189 69.672 14.3218L69.9356 14.7046ZM69.0546 15.0714C69.696 14.8393 69.8246 14.7811 69.9356 14.7046L69.672 14.3218C69.6215 14.3566 69.5599 14.3943 68.8965 14.6344L69.0546 15.0714ZM65.1892 15.7228C66.9453 15.669 68.2146 15.3755 69.0546 15.0714L68.8965 14.6344C68.1067 14.9203 66.8864 15.2057 65.1749 15.2583L65.1892 15.7228ZM61.1371 15.1809C62.1253 15.5096 63.4876 15.775 65.1892 15.7228L65.1749 15.2583C63.5297 15.3087 62.2219 15.0518 61.2837 14.7398L61.1371 15.1809ZM59.9512 14.6783C60.2452 14.8371 60.6416 15.0161 61.1371 15.1809L61.2837 14.7398C60.813 14.5833 60.4416 14.4149 60.1721 14.2694L59.9512 14.6783ZM59.6182 14.5642C59.6923 14.5869 59.7647 14.6091 59.8275 14.6303C59.8942 14.6529 59.9344 14.6692 59.9512 14.6783L60.1721 14.2694C60.1169 14.2395 60.0426 14.2124 59.9763 14.19C59.9061 14.1662 59.8269 14.142 59.7544 14.1198L59.6182 14.5642ZM59.2473 14.4254C59.2978 14.4595 59.3723 14.4853 59.4196 14.5014C59.4784 14.5214 59.5495 14.5431 59.6182 14.5642L59.7544 14.1198C59.6836 14.0981 59.6199 14.0785 59.569 14.0612C59.5436 14.0526 59.5242 14.0455 59.5105 14.0399C59.4932 14.0328 59.4963 14.0327 59.5074 14.0402L59.2473 14.4254ZM58.44 14.1135C58.5738 14.147 58.7791 14.2265 58.9616 14.3033C59.0505 14.3408 59.1301 14.3759 59.1876 14.4017C59.2163 14.4146 59.2394 14.4251 59.2552 14.4324C59.2631 14.436 59.2691 14.4388 59.2732 14.4407C59.2752 14.4416 59.2767 14.4423 59.2777 14.4428C59.2782 14.443 59.2786 14.4432 59.2788 14.4433C59.2789 14.4433 59.279 14.4434 59.279 14.4434C59.2791 14.4434 59.2791 14.4434 59.2791 14.4434C59.2791 14.4434 59.2791 14.4434 59.2791 14.4434C59.2791 14.4434 59.2791 14.4434 59.3773 14.2328C59.4756 14.0222 59.4756 14.0222 59.4756 14.0222C59.4756 14.0222 59.4756 14.0222 59.4756 14.0222C59.4755 14.0221 59.4755 14.0221 59.4754 14.0221C59.4754 14.0221 59.4752 14.022 59.4751 14.0219C59.4747 14.0218 59.4743 14.0216 59.4737 14.0213C59.4724 14.0207 59.4707 14.0199 59.4684 14.0189C59.4639 14.0168 59.4574 14.0137 59.449 14.0099C59.4321 14.0022 59.4079 13.9911 59.378 13.9777C59.3181 13.9508 59.235 13.9141 59.1419 13.875C58.9605 13.7986 58.7253 13.7057 58.5527 13.6626L58.44 14.1135Z" fill="black"/>
</g>
<g filter="url(#filter6_d_491_164)">
<path fill-rule="evenodd" clip-rule="evenodd" d="M22.5866 20.8362C22.9509 18.182 22.1533 15.0188 22.3305 12.3622C22.5995 8.32892 22.6804 6.92046 22.9562 4.3259C23.0289 2.47395 26.3031 0.584054 27.4925 0.455362C28.6818 0.326673 29.8207 2.38314 29.9494 3.57251C30.1543 5.46634 28.7032 7.81056 28.8817 12.0956C28.8294 16.1028 28.1341 19.2017 27.6711 22.574C27.2043 25.974 26.5349 28.4546 25.7459 30.6672C25.3785 31.6976 24.8584 33.2311 24.0365 33.9929C23.5803 34.4157 23.1573 35.2319 22.222 35.2313C21.2849 35.2306 20.677 34.6763 20.1964 34.2266C19.3594 33.4435 18.8944 32.3808 18.2661 31.2761C17.6242 30.1474 16.6377 28.957 16.0616 27.6116C15.1299 25.436 14.2393 23.0123 13.4348 20.8227C13.2491 20.3173 13.0679 19.8243 12.8919 19.3497C12.6867 18.7964 12.3227 18.5671 12.1928 19.2207C11.7937 22.1415 11.5376 21.8654 11.4033 24.3695C11.3754 24.8902 11.5252 26.9936 11.4998 27.5025C11.363 30.2414 10.3871 31.802 9.99306 33.6696C9.7461 34.8401 10.3025 36.1992 9.13199 35.9523C7.96144 35.7053 6.9791 33.5671 7.22606 32.3966C7.54265 30.896 7.17443 29.956 7.31481 27.1903C7.34155 26.6635 7.67822 22.789 7.7091 22.2131C7.8961 18.7271 7.73227 18.0827 8.58637 13.6305C8.69907 13.043 8.84352 12.4827 9.04583 11.9988C9.21961 11.5831 9.57765 10.8685 10.3259 10.4208C11.312 9.83092 12.3349 10.0436 13.0053 10.4457C13.5552 10.7756 13.9348 11.2513 14.1706 11.5858C14.6703 12.2949 14.6556 12.9288 15.0833 13.9344C15.5269 14.977 16.4752 16.5529 16.9538 17.8433C17.1399 18.3452 17.3282 18.8573 17.5185 19.3752C18.3213 21.5593 18.0418 21.7715 18.924 23.8316C19.4669 25.0995 20.8718 28.2061 21.4023 29.1389C21.8725 29.9656 21.5555 27.7388 22.0776 26.5111C22.6924 24.7312 22.1382 24.1022 22.5866 20.8362Z" fill="#FFDE00"/>
<path fill-rule="evenodd" clip-rule="evenodd" d="M22.5866 20.8362C22.9509 18.182 22.1533 15.0188 22.3305 12.3622C22.5995 8.32892 22.6804 6.92046 22.9562 4.3259C23.0289 2.47395 26.3031 0.584054 27.4925 0.455362C28.6818 0.326673 29.8207 2.38314 29.9494 3.57251C30.1543 5.46634 28.7032 7.81056 28.8817 12.0956C28.8294 16.1028 28.1341 19.2017 27.6711 22.574C27.2043 25.974 26.5349 28.4546 25.7459 30.6672C25.3785 31.6976 24.8584 33.2311 24.0365 33.9929C23.5803 34.4157 23.1573 35.2319 22.222 35.2313C21.2849 35.2306 20.677 34.6763 20.1964 34.2266C19.3594 33.4435 18.8944 32.3808 18.2661 31.2761C17.6242 30.1474 16.6377 28.957 16.0616 27.6116C15.1299 25.436 14.2393 23.0123 13.4348 20.8227C13.2491 20.3173 13.0679 19.8243 12.8919 19.3497C12.6867 18.7964 12.3227 18.5671 12.1928 19.2207C11.7937 22.1415 11.5376 21.8654 11.4033 24.3695C11.3754 24.8902 11.5252 26.9936 11.4998 27.5025C11.363 30.2414 10.3871 31.802 9.99306 33.6696C9.7461 34.8401 10.3025 36.1992 9.13199 35.9523C7.96144 35.7053 6.9791 33.5671 7.22606 32.3966C7.54265 30.896 7.17443 29.956 7.31481 27.1903C7.34155 26.6635 7.67822 22.789 7.7091 22.2131C7.8961 18.7271 7.73227 18.0827 8.58637 13.6305C8.69907 13.043 8.84352 12.4827 9.04583 11.9988C9.21961 11.5831 9.57765 10.8685 10.3259 10.4208C11.312 9.83092 12.3349 10.0436 13.0053 10.4457C13.5552 10.7756 13.9348 11.2513 14.1706 11.5858C14.6703 12.2949 14.6556 12.9288 15.0833 13.9344C15.5269 14.977 16.4752 16.5529 16.9538 17.8433C17.1399 18.3452 17.3282 18.8573 17.5185 19.3752C18.3213 21.5593 18.0418 21.7715 18.924 23.8316C19.4669 25.0995 20.8718 28.2061 21.4023 29.1389C21.8725 29.9656 21.5555 27.7388 22.0776 26.5111C22.6924 24.7312 22.1382 24.1022 22.5866 20.8362Z" stroke="black" stroke-width="0.464805" stroke-linecap="round"/>
</g>
<g filter="url(#filter7_d_491_164)">
<circle cx="55.2676" cy="27.654" r="4.99463" fill="#FFDE00"/>
<circle cx="55.2676" cy="27.654" r="4.99463" stroke="black" stroke-width="0.411748" stroke-linecap="round"/>
</g>
<path d="M55.2677 22.5226C52.4337 22.5226 50.1362 24.8201 50.1362 27.6541C50.1362 30.4881 52.4337 32.7856 55.2677 32.7856C58.1017 32.7856 60.3992 30.4881 60.3992 27.6541C60.3992 24.8201 58.1017 22.5226 55.2677 22.5226ZM59.2974 24.7612C59.0528 24.6796 58.8443 24.66 58.6693 24.5289C58.1831 24.165 57.694 23.8048 57.2057 23.4434C57.0686 23.342 57.0185 23.1818 56.9421 23.0337C57.8904 23.3586 58.6554 23.9283 59.2974 24.7612ZM55.5029 24.0919C55.9728 23.9302 56.4418 23.7655 56.9103 23.5998C57.0056 23.566 57.0808 23.5802 57.1642 23.6433C57.6032 23.9749 58.0449 24.3028 58.4907 24.6251C58.575 24.6861 58.6107 24.747 58.6075 24.8504C58.6004 25.0732 58.6053 25.2965 58.6053 25.5196H58.6028C58.6028 25.7493 58.5978 25.9791 58.6051 26.2085C58.6084 26.3126 58.5725 26.3561 58.4725 26.3858C58.0398 26.5139 57.609 26.6484 57.18 26.7882C57.0945 26.8161 57.0327 26.8044 56.9619 26.7572C56.4713 26.431 55.9798 26.1063 55.4866 25.7842C55.4033 25.7298 55.3611 25.6728 55.3632 25.5645C55.3711 25.1381 55.3724 24.7114 55.363 24.2851C55.3603 24.1686 55.4062 24.1252 55.5029 24.0919ZM55.1623 24.2998C55.1546 24.5094 55.1601 24.7196 55.1601 24.9294H55.1588C55.1588 25.1327 55.1544 25.3362 55.1605 25.5394C55.1637 25.6458 55.1379 25.7169 55.0407 25.7804C54.5473 26.1026 54.0593 26.4329 53.5712 26.7632C53.5056 26.8076 53.4485 26.8163 53.3711 26.7927C52.9274 26.6571 52.4827 26.5244 52.0361 26.399C51.9346 26.3705 51.9026 26.3244 51.9033 26.2219C51.9062 25.7825 51.9031 25.343 51.8977 24.9036C51.8966 24.8181 51.9182 24.7609 51.9917 24.7079C52.4854 24.3517 52.9764 23.9915 53.4652 23.6286C53.5408 23.5724 53.6055 23.5565 53.6954 23.591C54.1349 23.7595 54.5752 23.9265 55.0185 24.0851C55.1316 24.1252 55.1665 24.1856 55.1623 24.2998ZM53.7526 22.9363C53.6094 23.3167 53.322 23.5128 53.04 23.7152C52.7159 23.948 52.3846 24.1724 52.0754 24.4238C51.8249 24.6273 51.5353 24.6964 51.1965 24.7703C51.8644 23.8703 52.6977 23.2715 53.7526 22.9363ZM50.3511 27.4691C50.9133 28.388 51.1933 29.4033 51.3703 30.4538C50.7294 29.8532 50.1926 28.2808 50.3511 27.4691ZM52.9526 30.2089C52.4999 30.0787 52.0453 29.9547 51.5903 29.8322C51.5039 29.8089 51.4631 29.7582 51.4368 29.676C51.2612 29.1283 51.085 28.5807 50.9006 28.036C50.8705 27.9473 50.8869 27.889 50.9366 27.8209C51.2264 27.424 51.5138 27.0252 51.8025 26.6274C51.8286 26.5915 51.8506 26.5484 51.8938 26.5458C52.018 26.5834 52.1305 26.6179 52.2432 26.6516C52.588 26.7547 52.9311 26.8639 53.2786 26.9567C53.3907 26.9866 53.4388 27.0465 53.4725 27.1465C53.6648 27.7169 53.859 28.2867 54.0578 28.8547C54.0823 28.9249 54.082 28.9728 54.0347 29.0308C53.7279 29.4066 53.4229 29.7839 53.12 30.1628C53.0714 30.2235 53.0278 30.2306 52.9526 30.2089ZM53.683 32.1162C54.0058 31.9961 54.2778 31.8867 54.592 31.8973C55.1022 31.9145 55.6139 31.9099 56.1243 31.8935C56.4218 31.884 56.6878 31.9753 56.9846 32.077C55.8855 32.4579 54.8091 32.4684 53.683 32.1162ZM57.227 30.4682C56.9609 30.8417 56.6969 31.2168 56.4415 31.5977C56.3863 31.6801 56.3328 31.7114 56.2368 31.7099C55.9283 31.7048 55.6196 31.708 55.311 31.708V31.7206C55.0023 31.7206 54.6937 31.7167 54.3851 31.7228C54.2816 31.7249 54.2167 31.6895 54.1558 31.6071C53.8673 31.2173 53.5749 30.8303 53.2789 30.4462C53.2184 30.3677 53.2284 30.3177 53.2882 30.2454C53.5805 29.8919 53.8691 29.5353 54.1545 29.176C54.214 29.1013 54.2786 29.0748 54.3723 29.0744C54.9829 29.0719 55.5936 29.0662 56.2042 29.0558C56.3002 29.0542 56.36 29.0852 56.416 29.1611C56.6809 29.5198 56.9477 29.8772 57.2212 30.2293C57.2897 30.3174 57.2903 30.3796 57.227 30.4682ZM58.9329 29.7909C58.4813 29.925 58.0313 30.0658 57.5845 30.215C57.4897 30.2467 57.4427 30.2276 57.3889 30.1551C57.1114 29.7814 56.832 29.4094 56.5506 29.0386C56.5056 28.9793 56.5042 28.9284 56.5273 28.8579C56.7145 28.2859 56.8983 27.7125 57.0777 27.1379C57.108 27.0409 57.1516 26.9892 57.2552 26.9588C57.6883 26.8315 58.1184 26.6934 58.5481 26.5543C58.6325 26.5269 58.692 26.523 58.75 26.6052C59.0331 27.0071 59.3211 27.4055 59.6068 27.8054C59.6291 27.8366 59.6636 27.863 59.6471 27.9351C59.6452 27.94 59.632 27.9701 59.622 28.0012C59.45 28.537 59.2761 29.0722 59.1091 29.6097C59.0788 29.7069 59.0361 29.7604 58.9329 29.7909ZM59.2836 29.6573C59.4661 29.1399 59.6235 28.6135 59.7843 28.0887C59.8562 27.8537 60.0345 27.7031 60.2119 27.4846C60.2251 28.5661 59.9175 29.4906 59.3032 30.3234C59.282 30.1009 59.2005 29.8927 59.2836 29.6573Z" fill="black"/>
<g filter="url(#filter8_d_491_164)">
<circle cx="42.9756" cy="31.6658" r="4.99463" fill="#FFDE00"/>
<circle cx="42.9756" cy="31.6658" r="4.99463" stroke="black" stroke-width="0.411748" stroke-linecap="round"/>
</g>
<path d="M42.9757 26.5344C40.1417 26.5344 37.8442 28.8319 37.8442 31.6659C37.8442 34.4999 40.1417 36.7974 42.9757 36.7974C45.8097 36.7974 48.1072 34.4999 48.1072 31.6659C48.1072 28.8319 45.8097 26.5344 42.9757 26.5344ZM47.0054 28.773C46.7608 28.6914 46.5523 28.6718 46.3773 28.5407C45.8911 28.1767 45.402 27.8165 44.9137 27.4552C44.7766 27.3537 44.7265 27.1936 44.6501 27.0454C45.5984 27.3704 46.3634 27.94 47.0054 28.773ZM43.2109 28.1037C43.6808 27.942 44.1498 27.7773 44.6184 27.6115C44.7136 27.5778 44.7888 27.592 44.8723 27.655C45.3112 27.9867 45.7529 28.3146 46.1987 28.6369C46.283 28.6978 46.3187 28.7588 46.3155 28.8622C46.3084 29.085 46.3133 29.3083 46.3133 29.5314H46.3108C46.3108 29.7611 46.3058 29.9909 46.3131 30.2203C46.3164 30.3244 46.2805 30.3679 46.1805 30.3975C45.7478 30.5256 45.317 30.6602 44.888 30.8C44.8025 30.8279 44.7407 30.8162 44.6699 30.769C44.1793 30.4428 43.6878 30.118 43.1946 29.796C43.1113 29.7416 43.0691 29.6846 43.0712 29.5763C43.0791 29.1499 43.0804 28.7232 43.071 28.2969C43.0683 28.1804 43.1142 28.137 43.2109 28.1037ZM42.8703 28.3116C42.8626 28.5212 42.8682 28.7314 42.8682 28.9412H42.8668C42.8668 29.1445 42.8624 29.348 42.8685 29.5511C42.8717 29.6575 42.8459 29.7287 42.7487 29.7922C42.2553 30.1144 41.7673 30.4447 41.2792 30.7749C41.2136 30.8194 41.1565 30.8281 41.0792 30.8044C40.6354 30.6689 40.1907 30.5362 39.7441 30.4107C39.6426 30.3823 39.6106 30.3361 39.6113 30.2336C39.6142 29.7942 39.6111 29.3547 39.6057 28.9154C39.6047 28.8298 39.6262 28.7727 39.6997 28.7197C40.1934 28.3635 40.6844 28.0033 41.1732 27.6404C41.2488 27.5842 41.3135 27.5683 41.4034 27.6028C41.8429 27.7713 42.2832 27.9383 42.7265 28.0968C42.8396 28.137 42.8745 28.1974 42.8703 28.3116ZM41.4606 26.9481C41.3174 27.3285 41.03 27.5245 40.748 27.727C40.4239 27.9598 40.0926 28.1842 39.7834 28.4356C39.5329 28.6391 39.2433 28.7082 38.9045 28.7821C39.5724 27.8821 40.4057 27.2833 41.4606 26.9481ZM38.0591 31.4809C38.6213 32.3998 38.9013 33.4151 39.0783 34.4655C38.4374 33.865 37.9006 32.2926 38.0591 31.4809ZM40.6607 34.2207C40.208 34.0904 39.7533 33.9665 39.2983 33.844C39.2119 33.8207 39.1711 33.77 39.1448 33.6878C38.9692 33.14 38.793 32.5925 38.6086 32.0478C38.5785 31.959 38.5949 31.9007 38.6446 31.8327C38.9344 31.4357 39.2219 31.037 39.5105 30.6392C39.5366 30.6032 39.5586 30.5602 39.6018 30.5575C39.726 30.5952 39.8385 30.6296 39.9512 30.6634C40.296 30.7665 40.6391 30.8757 40.9866 30.9685C41.0987 30.9984 41.1468 31.0582 41.1805 31.1583C41.3728 31.7287 41.567 32.2985 41.7658 32.8665C41.7903 32.9366 41.79 32.9846 41.7427 33.0426C41.4359 33.4184 41.1309 33.7957 40.828 34.1746C40.7795 34.2353 40.7358 34.2424 40.6607 34.2207ZM41.391 36.1279C41.7138 36.0079 41.9858 35.8985 42.3 35.9091C42.8102 35.9263 43.3219 35.9217 43.8323 35.9053C44.1298 35.8957 44.3958 35.9871 44.6926 36.0888C43.5935 36.4696 42.5171 36.4802 41.391 36.1279ZM44.935 34.48C44.6689 34.8535 44.4049 35.2286 44.1495 35.6095C44.0943 35.6919 44.0408 35.7232 43.9448 35.7217C43.6363 35.7166 43.3276 35.7198 43.019 35.7198V35.7324C42.7103 35.7324 42.4017 35.7285 42.0931 35.7346C41.9896 35.7366 41.9248 35.7013 41.8638 35.6189C41.5753 35.2291 41.2829 34.8421 40.9869 34.458C40.9264 34.3795 40.9364 34.3295 40.9962 34.2572C41.2885 33.9037 41.5771 33.5471 41.8625 33.1878C41.922 33.1131 41.9866 33.0866 42.0803 33.0862C42.6909 33.0837 43.3016 33.0779 43.9122 33.0676C44.0082 33.066 44.068 33.097 44.124 33.1729C44.3889 33.5316 44.6557 33.889 44.9292 34.241C44.9977 34.3292 44.9983 34.3914 44.935 34.48ZM46.6409 33.8027C46.1893 33.9367 45.7393 34.0776 45.2925 34.2268C45.1977 34.2585 45.1507 34.2394 45.0969 34.1669C44.8195 33.7932 44.54 33.4211 44.2586 33.0504C44.2136 32.9911 44.2123 32.9402 44.2353 32.8697C44.4225 32.2977 44.6063 31.7243 44.7857 31.1497C44.816 31.0527 44.8596 31.001 44.9632 30.9705C45.3963 30.8432 45.8264 30.7052 46.2561 30.566C46.3405 30.5387 46.4 30.5348 46.458 30.617C46.7411 31.0189 47.0291 31.4173 47.3148 31.8172C47.3371 31.8484 47.3716 31.8748 47.3551 31.9469C47.3532 31.9518 47.34 31.9819 47.33 32.013C47.158 32.5488 46.9841 33.084 46.8171 33.6214C46.7868 33.7187 46.7441 33.7721 46.6409 33.8027ZM46.9916 33.6691C47.1741 33.1516 47.3315 32.6252 47.4923 32.1005C47.5642 31.8655 47.7425 31.7149 47.92 31.4964C47.9332 32.5778 47.6255 33.5024 47.0112 34.3352C46.99 34.1127 46.9085 33.9045 46.9916 33.6691Z" fill="black"/>
<defs>
<filter id="filter0_d_491_164" x="96.9213" y="8.65247" width="8.49983" height="33.4182" filterUnits="userSpaceOnUse" color-interpolation-filters="sRGB">
<feFlood flood-opacity="0" result="BackgroundImageFix"/>
<feColorMatrix in="SourceAlpha" type="matrix" values="0 0 0 0 0 0 0 0 0 0 0 0 0 0 0 0 0 0 127 0" result="hardAlpha"/>
<feOffset dx="-1.83821" dy="1.83821"/>
<feComposite in2="hardAlpha" operator="out"/>
<feColorMatrix type="matrix" values="0 0 0 0 0.121569 0 0 0 0 0.121569 0 0 0 0 0.121569 0 0 0 1 0"/>
<feBlend mode="normal" in2="BackgroundImageFix" result="effect1_dropShadow_491_164"/>
<feBlend mode="normal" in="SourceGraphic" in2="effect1_dropShadow_491_164" result="shape"/>
</filter>
<filter id="filter1_d_491_164" x="105.026" y="5.51331" width="7.71126" height="30.9085" filterUnits="userSpaceOnUse" color-interpolation-filters="sRGB">
<feFlood flood-opacity="0" result="BackgroundImageFix"/>
<feColorMatrix in="SourceAlpha" type="matrix" values="0 0 0 0 0 0 0 0 0 0 0 0 0 0 0 0 0 0 127 0" result="hardAlpha"/>
<feOffset dx="-1.83821" dy="1.83821"/>
<feComposite in2="hardAlpha" operator="out"/>
<feColorMatrix type="matrix" values="0 0 0 0 0.121569 0 0 0 0 0.121569 0 0 0 0 0.121569 0 0 0 1 0"/>
<feBlend mode="normal" in2="BackgroundImageFix" result="effect1_dropShadow_491_164"/>
<feBlend mode="normal" in="SourceGraphic" in2="effect1_dropShadow_491_164" result="shape"/>
</filter>
<filter id="filter2_d_491_164" x="83.04" y="18.5367" width="15.4071" height="15.5656" filterUnits="userSpaceOnUse" color-interpolation-filters="sRGB">
<feFlood flood-opacity="0" result="BackgroundImageFix"/>
<feColorMatrix in="SourceAlpha" type="matrix" values="0 0 0 0 0 0 0 0 0 0 0 0 0 0 0 0 0 0 127 0" result="hardAlpha"/>
<feOffset dx="-1.83821" dy="1.83821"/>
<feComposite in2="hardAlpha" operator="out"/>
<feColorMatrix type="matrix" values="0 0 0 0 0.121569 0 0 0 0 0.121569 0 0 0 0 0.121569 0 0 0 1 0"/>
<feBlend mode="normal" in2="BackgroundImageFix" result="effect1_dropShadow_491_164"/>
<feBlend mode="normal" in="SourceGraphic" in2="effect1_dropShadow_491_164" result="shape"/>
</filter>
<filter id="filter3_d_491_164" x="67.3351" y="4.05768" width="19.8365" height="33.9042" filterUnits="userSpaceOnUse" color-interpolation-filters="sRGB">
<feFlood flood-opacity="0" result="BackgroundImageFix"/>
<feColorMatrix in="SourceAlpha" type="matrix" values="0 0 0 0 0 0 0 0 0 0 0 0 0 0 0 0 0 0 127 0" result="hardAlpha"/>
<feOffset dx="-1.83821" dy="1.83821"/>
<feComposite in2="hardAlpha" operator="out"/>
<feColorMatrix type="matrix" values="0 0 0 0 0.121569 0 0 0 0 0.121569 0 0 0 0 0.121569 0 0 0 1 0"/>
<feBlend mode="normal" in2="BackgroundImageFix" result="effect1_dropShadow_491_164"/>
<feBlend mode="normal" in="SourceGraphic" in2="effect1_dropShadow_491_164" result="shape"/>
</filter>
<filter id="filter4_d_491_164" x="26.8566" y="4.82391" width="25.4298" height="37.0832" filterUnits="userSpaceOnUse" color-interpolation-filters="sRGB">
<feFlood flood-opacity="0" result="BackgroundImageFix"/>
<feColorMatrix in="SourceAlpha" type="matrix" values="0 0 0 0 0 0 0 0 0 0 0 0 0 0 0 0 0 0 127 0" result="hardAlpha"/>
<feOffset dx="-1.83821" dy="1.83821"/>
<feComposite in2="hardAlpha" operator="out"/>
<feColorMatrix type="matrix" values="0 0 0 0 0.121569 0 0 0 0 0.121569 0 0 0 0 0.121569 0 0 0 1 0"/>
<feBlend mode="normal" in2="BackgroundImageFix" result="effect1_dropShadow_491_164"/>
<feBlend mode="normal" in="SourceGraphic" in2="effect1_dropShadow_491_164" result="shape"/>
</filter>
<filter id="filter5_d_491_164" x="53.5458" y="13.4036" width="20.7948" height="25.473" filterUnits="userSpaceOnUse" color-interpolation-filters="sRGB">
<feFlood flood-opacity="0" result="BackgroundImageFix"/>
<feColorMatrix in="SourceAlpha" type="matrix" values="0 0 0 0 0 0 0 0 0 0 0 0 0 0 0 0 0 0 127 0" result="hardAlpha"/>
<feOffset dx="-1.83821" dy="1.83821"/>
<feComposite in2="hardAlpha" operator="out"/>
<feColorMatrix type="matrix" values="0 0 0 0 0.120823 0 0 0 0 0.12032 0 0 0 0 0.119816 0 0 0 1 0"/>
<feBlend mode="normal" in2="BackgroundImageFix" result="effect1_dropShadow_491_164"/>
<feBlend mode="normal" in="SourceGraphic" in2="effect1_dropShadow_491_164" result="shape"/>
</filter>
<filter id="filter6_d_491_164" x="5.11711" y="0.217163" width="25.0845" height="37.8349" filterUnits="userSpaceOnUse" color-interpolation-filters="sRGB">
<feFlood flood-opacity="0" result="BackgroundImageFix"/>
<feColorMatrix in="SourceAlpha" type="matrix" values="0 0 0 0 0 0 0 0 0 0 0 0 0 0 0 0 0 0 127 0" result="hardAlpha"/>
<feOffset dx="-1.83821" dy="1.83821"/>
<feComposite in2="hardAlpha" operator="out"/>
<feColorMatrix type="matrix" values="0 0 0 0 0.121569 0 0 0 0 0.121569 0 0 0 0 0.121569 0 0 0 1 0"/>
<feBlend mode="normal" in2="BackgroundImageFix" result="effect1_dropShadow_491_164"/>
<feBlend mode="normal" in="SourceGraphic" in2="effect1_dropShadow_491_164" result="shape"/>
</filter>
<filter id="filter7_d_491_164" x="48.5231" y="22.4536" width="11.9449" height="11.9451" filterUnits="userSpaceOnUse" color-interpolation-filters="sRGB">
<feFlood flood-opacity="0" result="BackgroundImageFix"/>
<feColorMatrix in="SourceAlpha" type="matrix" values="0 0 0 0 0 0 0 0 0 0 0 0 0 0 0 0 0 0 127 0" result="hardAlpha"/>
<feOffset dx="-1.54406" dy="1.54406"/>
<feComposite in2="hardAlpha" operator="out"/>
<feColorMatrix type="matrix" values="0 0 0 0 0.121569 0 0 0 0 0.121569 0 0 0 0 0.121569 0 0 0 1 0"/>
<feBlend mode="normal" in2="BackgroundImageFix" result="effect1_dropShadow_491_164"/>
<feBlend mode="normal" in="SourceGraphic" in2="effect1_dropShadow_491_164" result="shape"/>
</filter>
<filter id="filter8_d_491_164" x="36.2311" y="26.4653" width="11.9449" height="11.9451" filterUnits="userSpaceOnUse" color-interpolation-filters="sRGB">
<feFlood flood-opacity="0" result="BackgroundImageFix"/>
<feColorMatrix in="SourceAlpha" type="matrix" values="0 0 0 0 0 0 0 0 0 0 0 0 0 0 0 0 0 0 127 0" result="hardAlpha"/>
<feOffset dx="-1.54406" dy="1.54406"/>
<feComposite in2="hardAlpha" operator="out"/>
<feColorMatrix type="matrix" values="0 0 0 0 0.121569 0 0 0 0 0.121569 0 0 0 0 0.121569 0 0 0 1 0"/>
<feBlend mode="normal" in2="BackgroundImageFix" result="effect1_dropShadow_491_164"/>
<feBlend mode="normal" in="SourceGraphic" in2="effect1_dropShadow_491_164" result="shape"/>
</filter>
</defs>
</svg>
