<svg width="101" height="60" viewBox="0 0 101 60" fill="none" xmlns="http://www.w3.org/2000/svg">
<g filter="url(#filter0_d_1109_1752)">
<path d="M25.5716 58C18.0427 58 11.885 55.5262 7.09875 50.5786C2.36625 45.631 0 38.4247 0 28.9597C0 19.4409 2.39314 12.2346 7.17942 7.34075C12.0195 2.44692 18.2309 0 25.8136 0C33.4502 0 39.6078 2.42003 44.2865 7.26009C48.9652 12.0464 51.3046 19.3333 51.3046 29.121C51.3046 38.8549 48.9114 46.115 44.1252 50.9013C39.3389 55.6338 33.1544 58 25.5716 58ZM25.6523 15.4882C23.0709 15.4882 20.8929 16.6713 19.1182 19.0376C17.3973 21.4038 16.5369 24.7381 16.5369 29.0403C16.5369 33.2888 17.3704 36.5693 19.0376 38.8818C20.7047 41.1405 22.8827 42.2698 25.5716 42.2698C28.3143 42.2698 30.5192 41.1136 32.1864 38.8011C33.9073 36.4886 34.7677 33.1813 34.7677 28.879C34.7677 24.5767 33.8804 21.2694 32.1057 18.9569C30.3848 16.6444 28.2337 15.4882 25.6523 15.4882Z" fill="#829DFF"/>
<path d="M73.1888 56.064C73.1888 56.9244 70.6343 57.3547 65.5254 57.3547C60.3627 57.3547 57.7813 56.9513 57.7813 56.1446V3.54938C57.7813 1.66713 58.7762 0.726009 60.766 0.726009H76.1735C90.3172 0.726009 97.3891 6.23829 97.3891 17.2629C97.3891 20.5971 96.7438 23.6356 95.4531 26.3783C94.1624 29.0672 92.3339 31.2184 89.9677 32.8317L100.132 49.7719C99.7016 51.0626 98.3033 52.5415 95.9371 54.2086C92.7104 56.5211 90.0484 57.6773 87.951 57.6773C85.8536 57.6773 84.2941 56.9244 83.2723 55.4186L75.6895 37.7524H73.1888V56.064ZM73.1888 15.0042V27.1043H73.5922C78.7011 27.1043 81.2556 24.9801 81.2556 20.7316C81.2556 18.7955 80.7447 17.3704 79.7229 16.4562C78.7549 15.4882 77.1415 15.0042 74.8829 15.0042H73.1888Z" fill="#829DFF"/>
<path d="M43.927 7.6076L43.929 7.6096C48.4816 12.2669 50.8046 19.4039 50.8046 29.121C50.8046 38.78 48.43 45.8887 43.7726 50.5467C39.0922 55.174 33.0404 57.5 25.5716 57.5C18.1647 57.5 12.1418 55.0719 7.45919 50.2321C2.84563 45.4082 0.5 38.3452 0.5 28.9597C0.5 19.5205 2.87237 12.4603 7.5359 7.69136C12.2719 2.90327 18.35 0.5 25.8136 0.5C33.3346 0.5 39.3555 2.87846 43.927 7.6076ZM18.7182 18.7376L18.7182 18.7375L18.7139 18.7435C16.9077 21.2269 16.0369 24.6798 16.0369 29.0403C16.0369 33.345 16.88 36.7441 18.632 39.1742L18.6319 39.1742L18.6353 39.1787C20.3918 41.5585 22.7159 42.7698 25.5716 42.7698C28.4812 42.7698 30.8334 41.5313 32.5899 39.0964C34.3981 36.6647 35.2677 33.2365 35.2677 28.879C35.2677 24.5186 34.37 21.0878 32.5045 18.6553C30.7023 16.2351 28.4106 14.9882 25.6523 14.9882C22.8891 14.9882 20.5716 16.2663 18.7182 18.7376ZM96.8891 17.2629C96.8891 20.5302 96.2573 23.4944 95.0015 26.1637C93.7473 28.7759 91.976 30.8573 89.686 32.4186L89.2962 32.6844L89.5389 33.089L99.5789 49.8223C99.1232 50.9102 97.8642 52.2393 95.6491 53.7999L95.6458 53.8022C92.4392 56.1003 89.8854 57.1773 87.951 57.1773C86.0089 57.1773 84.6262 56.4972 83.7124 55.1765L76.149 37.5552L76.019 37.2524H75.6895H73.1888H72.6888V37.7524V56.0417C72.6725 56.0633 72.6221 56.1128 72.4844 56.1824C72.2324 56.3097 71.8122 56.4341 71.1899 56.5389C69.9552 56.7469 68.0733 56.8547 65.5254 56.8547C62.9501 56.8547 61.0456 56.7536 59.7945 56.5582C59.1639 56.4596 58.7356 56.3423 58.4775 56.2213C58.3578 56.1652 58.3037 56.1234 58.2813 56.1016V3.54938C58.2813 2.69264 58.5064 2.14008 58.8711 1.79508C59.241 1.44516 59.8415 1.22601 60.766 1.22601H76.1735C83.1942 1.22601 88.3676 2.59645 91.7778 5.25458C95.1643 7.89425 96.8891 11.8655 96.8891 17.2629ZM72.6957 56.0297C72.6961 56.0297 72.6953 56.0321 72.6923 56.0367C72.6938 56.032 72.6953 56.0297 72.6957 56.0297ZM58.2674 56.0847C58.2677 56.0847 58.2693 56.0867 58.2714 56.0909C58.2681 56.0869 58.2671 56.0847 58.2674 56.0847ZM73.1888 14.5042H72.6888V15.0042V27.1043V27.6043H73.1888H73.5922C76.2036 27.6043 78.2552 27.0633 79.6594 25.8956C81.0813 24.7131 81.7556 22.9596 81.7556 20.7316C81.7556 18.7196 81.2252 17.1359 80.0666 16.0928C78.9589 14.9927 77.1855 14.5042 74.8829 14.5042H73.1888Z" stroke="black"/>
</g>
<mask id="mask0_1109_1752" style="mask-type:alpha" maskUnits="userSpaceOnUse" x="0" y="0" width="101" height="58">
<path d="M25.5716 58C18.0427 58 11.885 55.5262 7.09875 50.5786C2.36625 45.631 0 38.4247 0 28.9597C0 19.4409 2.39314 12.2346 7.17942 7.34075C12.0195 2.44692 18.2309 0 25.8136 0C33.4502 0 39.6078 2.42003 44.2865 7.26009C48.9652 12.0464 51.3046 19.3333 51.3046 29.121C51.3046 38.8549 48.9114 46.115 44.1252 50.9013C39.3389 55.6338 33.1544 58 25.5716 58ZM25.6523 15.4882C23.0709 15.4882 20.8929 16.6713 19.1182 19.0376C17.3973 21.4038 16.5369 24.7381 16.5369 29.0403C16.5369 33.2888 17.3704 36.5693 19.0376 38.8818C20.7047 41.1405 22.8827 42.2698 25.5716 42.2698C28.3143 42.2698 30.5192 41.1136 32.1864 38.8011C33.9073 36.4886 34.7677 33.1813 34.7677 28.879C34.7677 24.5767 33.8804 21.2694 32.1057 18.9569C30.3848 16.6444 28.2337 15.4882 25.6523 15.4882Z" fill="#1FCFF1"/>
<path d="M73.1888 56.064C73.1888 56.9244 70.6343 57.3547 65.5254 57.3547C60.3627 57.3547 57.7813 56.9513 57.7813 56.1446V3.54938C57.7813 1.66713 58.7762 0.726009 60.766 0.726009H76.1735C90.3172 0.726009 97.3891 6.23829 97.3891 17.2629C97.3891 20.5971 96.7438 23.6356 95.4531 26.3783C94.1624 29.0672 92.3339 31.2184 89.9677 32.8317L100.132 49.7719C99.7016 51.0626 98.3033 52.5415 95.9371 54.2086C92.7104 56.5211 90.0484 57.6773 87.951 57.6773C85.8536 57.6773 84.2941 56.9244 83.2723 55.4186L75.6895 37.7524H73.1888V56.064ZM73.1888 15.0042V27.1043H73.5922C78.7011 27.1043 81.2556 24.9801 81.2556 20.7316C81.2556 18.7955 80.7447 17.3704 79.7229 16.4562C78.7549 15.4882 77.1415 15.0042 74.8829 15.0042H73.1888Z" fill="#1FCFF1"/>
</mask>
<g mask="url(#mask0_1109_1752)">
<path d="M71.8174 21.3146C75.0731 13.7181 82.5426 8.79277 90.8073 8.79277C102.218 8.79277 111.468 18.0427 111.468 29.4531V62.542C111.468 73.5104 102.576 82.4019 91.6078 82.4019C83.0065 82.4019 75.3828 76.865 72.722 68.6856L67.4537 52.4905C64.951 44.7969 65.3282 36.4562 68.5152 29.0199L71.8174 21.3146Z" fill="#F2DA0E"/>
<path d="M-20.3202 23.575C-11.2413 14.8541 4.11969 14.1194 13.9895 21.934L19.6089 26.3833C28.5804 33.4866 28.9468 45.7394 20.418 53.4408L10.886 62.0481C9.50192 63.2979 9.2656 65.2017 10.3142 66.6543C12.9606 70.3204 7.45583 74.3734 3.78148 71.4642L-29.1585 45.3833C-33.3561 42.0598 -33.6288 36.3588 -29.7676 32.6498L-20.3202 23.575Z" fill="#1FCFF1"/>
</g>
<path d="M43.927 7.6076L43.929 7.6096C48.4816 12.2669 50.8046 19.4039 50.8046 29.121C50.8046 38.78 48.43 45.8887 43.7726 50.5467C39.0922 55.174 33.0404 57.5 25.5716 57.5C18.1647 57.5 12.1418 55.0719 7.45919 50.2321C2.84563 45.4082 0.5 38.3452 0.5 28.9597C0.5 19.5205 2.87237 12.4603 7.5359 7.69136C12.2719 2.90327 18.35 0.5 25.8136 0.5C33.3346 0.5 39.3555 2.87846 43.927 7.6076ZM18.7182 18.7376L18.7182 18.7375L18.7139 18.7435C16.9077 21.2269 16.0369 24.6798 16.0369 29.0403C16.0369 33.345 16.88 36.7441 18.632 39.1742L18.6319 39.1742L18.6353 39.1787C20.3918 41.5585 22.7159 42.7698 25.5716 42.7698C28.4812 42.7698 30.8334 41.5313 32.5899 39.0964C34.3981 36.6647 35.2677 33.2365 35.2677 28.879C35.2677 24.5186 34.37 21.0878 32.5045 18.6553C30.7023 16.2351 28.4106 14.9882 25.6523 14.9882C22.8891 14.9882 20.5716 16.2663 18.7182 18.7376ZM96.8891 17.2629C96.8891 20.5302 96.2573 23.4944 95.0015 26.1637C93.7473 28.7759 91.976 30.8573 89.686 32.4186L89.2962 32.6844L89.5389 33.089L99.5789 49.8223C99.1232 50.9102 97.8642 52.2393 95.6491 53.7999L95.6458 53.8022C92.4392 56.1003 89.8854 57.1773 87.951 57.1773C86.0089 57.1773 84.6262 56.4972 83.7124 55.1765L76.149 37.5552L76.019 37.2524H75.6895H73.1888H72.6888V37.7524V56.0417C72.6725 56.0633 72.6221 56.1128 72.4844 56.1824C72.2324 56.3097 71.8122 56.4341 71.1899 56.5389C69.9552 56.7469 68.0733 56.8547 65.5254 56.8547C62.9501 56.8547 61.0456 56.7536 59.7945 56.5582C59.1639 56.4596 58.7356 56.3423 58.4775 56.2213C58.3578 56.1652 58.3037 56.1234 58.2813 56.1016V3.54938C58.2813 2.69264 58.5064 2.14008 58.8711 1.79508C59.241 1.44516 59.8415 1.22601 60.766 1.22601H76.1735C83.1942 1.22601 88.3676 2.59645 91.7778 5.25458C95.1643 7.89425 96.8891 11.8655 96.8891 17.2629ZM72.6957 56.0297C72.6961 56.0297 72.6953 56.0321 72.6923 56.0367C72.6938 56.032 72.6953 56.0297 72.6957 56.0297ZM58.2674 56.0847C58.2677 56.0847 58.2693 56.0867 58.2714 56.0909C58.2681 56.0869 58.2671 56.0847 58.2674 56.0847ZM73.1888 14.5042H72.6888V15.0042V27.1043V27.6043H73.1888H73.5922C76.2036 27.6043 78.2552 27.0633 79.6594 25.8956C81.0813 24.7131 81.7556 22.9596 81.7556 20.7316C81.7556 18.7196 81.2252 17.1359 80.0666 16.0928C78.9589 14.9927 77.1855 14.5042 74.8829 14.5042H73.1888Z" stroke="black"/>
<defs>
<filter id="filter0_d_1109_1752" x="0" y="0" width="100.132" height="60" filterUnits="userSpaceOnUse" color-interpolation-filters="sRGB">
<feFlood flood-opacity="0" result="BackgroundImageFix"/>
<feColorMatrix in="SourceAlpha" type="matrix" values="0 0 0 0 0 0 0 0 0 0 0 0 0 0 0 0 0 0 127 0" result="hardAlpha"/>
<feOffset dy="2"/>
<feComposite in2="hardAlpha" operator="out"/>
<feColorMatrix type="matrix" values="0 0 0 0 1 0 0 0 0 1 0 0 0 0 1 0 0 0 0.1 0"/>
<feBlend mode="normal" in2="BackgroundImageFix" result="effect1_dropShadow_1109_1752"/>
<feBlend mode="normal" in="SourceGraphic" in2="effect1_dropShadow_1109_1752" result="shape"/>
</filter>
</defs>
</svg>
