<svg width="140" height="47" viewBox="0 0 140 47" fill="none" xmlns="http://www.w3.org/2000/svg">
<rect y="3" width="140" height="44" rx="12" fill="black" fill-opacity="0.2"/>
<rect width="140" height="44" rx="12" fill="#E9A200"/>
<rect width="140" height="40" rx="12" fill="#FFDD00"/>
<mask id="mask0_1097_1648" style="mask-type:alpha" maskUnits="userSpaceOnUse" x="0" y="0" width="140" height="44">
<rect width="140" height="44" rx="11.3333" fill="#F6DA00"/>
</mask>
<g mask="url(#mask0_1097_1648)">
<path d="M5.1853 38.0285V49.8824H122.519C135.037 49.8824 145.185 39.7342 145.185 27.2157V2.1505C145.185 -0.596572 142.958 -2.82352 140.211 -2.82352C137.464 -2.82352 135.237 -0.596576 135.237 2.1505V16.8556C135.237 22.2899 130.832 26.6952 125.398 26.6952H16.5186C10.2594 26.6952 5.1853 31.7693 5.1853 38.0285Z" fill="black" fill-opacity="0.1"/>
</g>
<rect x="0.5" y="0.5" width="139" height="43" rx="11.5" stroke="#010003"/>
<path d="M52.002 30.044C50.6673 30.044 50 29.8973 50 29.604V15.348C50 14.8493 50.2273 14.6 50.682 14.6H54.554C56.7247 14.6 58.2867 15.0473 59.24 15.942C60.208 16.8367 60.692 18.1347 60.692 19.836C60.692 21.244 60.2373 22.5347 59.328 23.708C58.8733 24.2947 58.206 24.764 57.326 25.116C56.446 25.468 55.4193 25.644 54.246 25.644V29.582C54.246 29.758 53.9673 29.8827 53.41 29.956C52.8673 30.0147 52.398 30.044 52.002 30.044ZM54.246 18.428V21.904H54.532C55.0453 21.904 55.478 21.7427 55.83 21.42C56.182 21.0973 56.358 20.6427 56.358 20.056C56.358 19.4693 56.2333 19.0513 55.984 18.802C55.7493 18.5527 55.324 18.428 54.708 18.428H54.246Z" fill="#5C5000"/>
<path d="M66.5289 29.824C66.5289 29.956 65.7809 30.022 64.2849 30.022C63.1115 30.0073 62.5249 29.9487 62.5249 29.846V14.864C62.5249 14.644 63.2362 14.534 64.6589 14.534C65.9055 14.578 66.5289 14.6513 66.5289 14.754V29.824Z" fill="#5C5000"/>
<path d="M69.905 22.014C69.4943 21.2807 69.289 20.6867 69.289 20.232C69.289 19.7627 69.4137 19.462 69.663 19.33C70.499 18.9633 71.643 18.78 73.095 18.78C74.5617 18.78 75.5957 19.1247 76.197 19.814C76.7983 20.4887 77.099 21.4933 77.099 22.828V26.304H77.847C78.0963 26.304 78.287 26.4507 78.419 26.744C78.5657 27.0373 78.639 27.4407 78.639 27.954C78.639 28.4673 78.507 28.9733 78.243 29.472C77.9937 29.9707 77.649 30.22 77.209 30.22C76.417 30.22 75.779 30.0073 75.295 29.582C75.075 29.406 74.9064 29.1933 74.789 28.944C74.1144 29.7947 73.0657 30.22 71.643 30.22C70.5723 30.22 69.6703 29.8387 68.937 29.076C68.2037 28.3133 67.837 27.4113 67.837 26.37C67.837 23.9793 69.267 22.784 72.127 22.784H73.337V22.564C73.337 22.1827 73.271 21.9407 73.139 21.838C73.0217 21.7207 72.7357 21.662 72.281 21.662C71.7237 21.662 70.9317 21.7793 69.905 22.014ZM71.665 26.062C71.665 26.3847 71.753 26.634 71.929 26.81C72.105 26.9713 72.325 27.052 72.589 27.052C72.8677 27.052 73.117 26.942 73.337 26.722V25.028H72.721C72.017 25.028 71.665 25.3727 71.665 26.062Z" fill="#5C5000"/>
<path d="M79.1143 19.11C79.1143 18.9487 79.7816 18.868 81.1162 18.868C82.4656 18.868 83.1622 18.9413 83.2062 19.088L84.7902 24.28L86.3083 19.044C86.3669 18.9267 86.8216 18.868 87.6722 18.868C89.6229 18.868 90.5543 18.9633 90.4663 19.154L85.2962 33.872C85.2816 33.96 84.8783 34.004 84.0863 34.004C83.3089 34.004 82.5829 33.9747 81.9083 33.916C81.2336 33.872 80.9109 33.8133 80.9403 33.74L82.8543 29.12L79.1143 19.11Z" fill="#5C5000"/>
<path d="M53.4637 27.4531L53.4638 27.4532L53.4752 27.4517C53.7688 27.4131 54.0351 27.3561 54.2412 27.2639C54.4195 27.1841 54.746 26.9853 54.746 26.582V23.1334C55.7679 23.0895 56.6921 22.9081 57.5117 22.5802C58.4519 22.2042 59.2009 21.6883 59.7232 21.0143C60.6965 19.7584 61.192 18.3612 61.192 16.836C61.192 15.0389 60.678 13.591 59.5808 12.5761C58.4899 11.5533 56.7721 11.1 54.554 11.1H50.682C50.3651 11.1 50.0391 11.189 49.801 11.4501C49.5709 11.7025 49.5 12.0324 49.5 12.348V26.604C49.5 26.903 49.6822 27.1034 49.8499 27.2139C50.0083 27.3184 50.2028 27.3805 50.3932 27.4223C50.7813 27.5077 51.3259 27.544 52.002 27.544C52.4212 27.544 52.9094 27.513 53.4637 27.4531ZM55.6199 16.1447L55.6251 16.1502L55.6304 16.1556C55.7401 16.2652 55.858 16.5186 55.858 17.056C55.858 17.537 55.7179 17.8445 55.4921 18.0514C55.2868 18.2397 55.0439 18.3549 54.746 18.3914V15.9282C55.2984 15.9334 55.5339 16.0533 55.6199 16.1447ZM64.2786 27.522L64.2786 27.522H64.2849C65.0362 27.522 65.6151 27.5056 66.0118 27.4706C66.206 27.4534 66.3807 27.4299 66.5166 27.394C66.5806 27.377 66.6712 27.3485 66.7566 27.2958C66.8268 27.2524 67.0289 27.106 67.0289 26.824V11.754C67.0289 11.4649 66.8132 11.3226 66.7606 11.2904C66.6832 11.243 66.6025 11.2167 66.5479 11.2013C66.4309 11.1683 66.2823 11.1445 66.1198 11.1254C65.7871 11.0863 65.303 11.0564 64.6765 11.0343L64.6677 11.034H64.6589C63.9416 11.034 63.3768 11.0613 62.982 11.1224C62.7896 11.1521 62.601 11.195 62.4478 11.2661C62.3268 11.3222 62.0249 11.4941 62.0249 11.864V26.846C62.0249 27.1244 62.2248 27.2673 62.2874 27.3064C62.3666 27.3559 62.4486 27.3821 62.5023 27.3968C62.6174 27.4285 62.7613 27.4491 62.9151 27.4645C63.2309 27.4961 63.6887 27.5146 64.2786 27.522ZM69.4688 19.2583L69.6516 19.5848L70.0164 19.5014C71.0327 19.2691 71.7809 19.162 72.281 19.162C72.491 19.162 72.639 19.1759 72.736 19.1958C72.7663 19.202 72.7871 19.2079 72.8005 19.2123C72.8019 19.2168 72.8035 19.222 72.8051 19.2281C72.8094 19.2437 72.8136 19.2623 72.8174 19.284H72.127C70.6396 19.284 69.4309 19.593 68.5888 20.2969C67.7296 21.0151 67.337 22.0717 67.337 23.37C67.337 24.5428 67.7553 25.5684 68.5766 26.4226C69.4055 27.2846 70.4382 27.72 71.643 27.72C72.9005 27.72 73.9485 27.4069 74.7245 26.7327C74.801 26.8153 74.8841 26.8928 74.9736 26.9651C75.5672 27.4827 76.3288 27.72 77.209 27.72C77.89 27.72 78.3803 27.3121 78.6876 26.7009C78.9841 26.139 79.139 25.555 79.139 24.954C79.139 24.4068 79.063 23.9191 78.8708 23.5295C78.7821 23.3355 78.6581 23.1532 78.4819 23.0177C78.2958 22.8745 78.0776 22.804 77.847 22.804H77.599V19.828C77.599 18.429 77.2851 17.2847 76.5721 16.4833C75.831 15.6354 74.6193 15.28 73.095 15.28C71.6101 15.28 70.3879 15.4661 69.4622 15.8721L69.4453 15.8795L69.4291 15.8881C68.9267 16.1541 68.789 16.7072 68.789 17.232C68.789 17.8177 69.0463 18.5038 69.4688 19.2583ZM78.6143 16.11V16.2004L78.6459 16.285L82.317 26.1105L80.4783 30.5486L80.4783 30.5486L80.476 30.5543C80.3919 30.7645 80.4592 30.9652 80.5633 31.0889C80.6428 31.1833 80.737 31.2293 80.7791 31.2482C80.8739 31.2909 80.9825 31.3149 81.0708 31.3309C81.2608 31.3655 81.532 31.3924 81.8703 31.4146C82.5598 31.4744 83.2986 31.504 84.0863 31.504C84.4868 31.504 84.8075 31.4931 85.037 31.468C85.1479 31.4559 85.2633 31.438 85.3629 31.4065C85.4111 31.3913 85.484 31.3644 85.5561 31.3148C85.6164 31.2732 85.7269 31.1798 85.7745 31.0192L90.934 16.331C90.9691 16.2406 90.9852 16.1302 90.9591 16.0117C90.9309 15.884 90.8636 15.792 90.805 15.7334C90.7006 15.629 90.5736 15.5797 90.5017 15.5554C90.3398 15.5004 90.1233 15.4665 89.8847 15.4421C89.3923 15.3917 88.6505 15.368 87.6722 15.368C87.2403 15.368 86.8887 15.3826 86.6293 15.4161C86.5017 15.4326 86.3747 15.4562 86.2643 15.494C86.2088 15.5131 86.1417 15.5409 86.076 15.5837C86.0123 15.6252 85.9217 15.699 85.861 15.8204L85.8407 15.8611L85.828 15.9048L84.778 19.5265L83.6852 15.9443C83.685 15.9439 83.6849 15.9435 83.6848 15.943C83.6283 15.7564 83.4938 15.6556 83.4225 15.6114C83.3435 15.5625 83.2604 15.5324 83.1932 15.5124C83.0566 15.4719 82.8875 15.4451 82.7031 15.4257C82.3281 15.3863 81.7956 15.368 81.1162 15.368C80.4443 15.368 79.9193 15.388 79.5547 15.4321C79.3773 15.4536 79.2069 15.4841 79.0689 15.5341C79.0019 15.5584 78.908 15.5993 78.8226 15.6716C78.7315 15.7487 78.6143 15.8954 78.6143 16.11ZM72.589 23.552C72.4417 23.552 72.348 23.5123 72.2755 23.4491C72.2209 23.3906 72.165 23.2835 72.165 23.062C72.165 22.7971 72.2319 22.6897 72.2788 22.6438C72.3277 22.5959 72.4435 22.528 72.721 22.528H72.837V23.4845C72.7532 23.5336 72.6719 23.552 72.589 23.552Z" fill="white" stroke="#010003"/>
</svg>
