<svg width="18" height="17" viewBox="0 0 18 17" fill="none" xmlns="http://www.w3.org/2000/svg">
<path d="M8.79629 0.5V0.396207L8.69256 0.400069C6.76515 0.471848 4.92727 1.2312 3.51103 2.54049L3.43467 2.61108L3.5082 2.68462L4.96 4.13656L5.02704 4.2036L5.09756 4.14022C6.09273 3.24579 7.36507 2.72079 8.70133 2.65334L8.79629 2.64855V2.55347V0.5Z" fill="#1FCFF1" stroke="black" stroke-width="0.2"/>
<path d="M4.65313 12.5591L4.72044 12.4918L4.6565 12.4212C3.75222 11.4235 3.22107 10.1436 3.15325 8.79867L3.14846 8.70371H3.05338H1.00018H0.896385L0.900253 8.80744C0.972442 10.7436 1.73826 12.5892 3.05795 14.0079L3.12857 14.0838L3.20189 14.0105L4.65313 12.5591Z" fill="#1FCFF1" stroke="black" stroke-width="0.2"/>
<path d="M14.7689 3.01919L13.3467 4.44128L13.2793 4.50861L13.3433 4.57916C14.2477 5.57684 14.7788 6.85692 14.8467 8.20169L14.8514 8.29665H14.9465H16.9997H17.1035L17.0997 8.19293C17.0276 6.25674 16.2618 4.41113 14.9421 2.99244L14.7689 2.80622V3.01919Z" fill="#1FCFF1" stroke="black" stroke-width="0.2"/>
<path d="M8.69827 16.5003H8.79634V14.4471V14.3521L8.70138 14.3473C7.35655 14.2794 6.07663 13.7483 5.07884 12.8439L5.00829 12.7799L4.94097 12.8473L3.48959 14.2986L3.41629 14.3719L3.49218 14.4426C4.88716 15.7405 6.69517 16.5026 8.59634 16.5961V16.6003H8.69634H8.69641L8.69827 16.5003Z" fill="#1FCFF1" stroke="black" stroke-width="0.2"/>
<path d="M14.5103 2.70184L14.5836 2.62853L14.5078 2.55791C13.0892 1.23808 11.2435 0.472269 9.30725 0.400069L9.20353 0.396202V0.5V2.55319V2.64827L9.29848 2.65307C10.6435 2.72103 11.9234 3.25231 12.921 4.15673L12.9916 4.22069L13.0589 4.15335L14.5103 2.70184Z" fill="#1FCFF1" stroke="black" stroke-width="0.2"/>
<path d="M4.67324 4.56057L4.73776 4.49L4.67015 4.42238L3.21905 2.97128L3.14597 2.89821L3.07534 2.97364C1.74493 4.39449 0.972515 6.24793 0.900069 8.19277L0.896206 8.29649H1H3.05319H3.14828L3.15307 8.20152C3.22129 6.84803 3.75886 5.56065 4.67324 4.56057Z" fill="#1FCFF1" stroke="black" stroke-width="0.2"/>
<path d="M8.89991 13.9459V13.9472H8.99991C12.0036 13.9472 14.447 11.5039 14.447 8.49976C14.447 5.49595 12.0035 3.05234 8.99991 3.05234C5.99628 3.05234 3.55283 5.49609 3.55283 8.49976C3.55283 11.47 5.94225 13.8924 8.89991 13.9459ZM6.44639 8.36181L8.74505 4.92121L8.83049 4.79346C8.86833 4.73689 8.93176 4.703 8.99975 4.703C9.06773 4.703 9.13117 4.73689 9.169 4.79346L11.57 8.38751C11.6157 8.45594 11.6157 8.5452 11.57 8.61364C11.5699 8.61364 11.5699 8.61364 11.5699 8.61364L9.169 12.2077C9.13117 12.2643 9.06773 12.2981 8.99975 12.2981C8.93176 12.2981 8.86833 12.2643 8.83049 12.2077L6.42954 8.61398L6.42631 8.60915C6.3836 8.5413 6.38466 8.45446 6.42948 8.38755L6.44639 8.36229V8.36181Z" fill="#1FCFF1" stroke="black" stroke-width="0.2"/>
<path d="M14.9466 8.70371H14.8515L14.8468 8.79867C14.7793 10.135 14.2544 11.4073 13.36 12.4024L13.2966 12.473L13.3637 12.54L14.8155 13.9918L14.889 14.0653L14.9596 13.989C16.2689 12.5728 17.0282 10.7348 17.1 8.80743L17.1039 8.70371H17.0001H14.9466Z" fill="#1FCFF1" stroke="black" stroke-width="0.2"/>
<path d="M9.20353 16.4998V16.6036L9.30725 16.5998C11.2522 16.5273 13.1056 15.7548 14.5264 14.4245L14.6018 14.3539L14.5287 14.2808L13.0776 12.8297L13.01 12.7621L12.9394 12.8266C11.9392 13.741 10.6518 14.2784 9.29849 14.3467L9.20353 14.3514V14.4465V16.4998Z" fill="#1FCFF1" stroke="black" stroke-width="0.2"/>
<path d="M11.1188 8.55606L11.156 8.50051L11.1188 8.44495L9.08286 5.39757L8.99971 5.27311L8.91656 5.39757L6.88072 8.44496L6.8436 8.50051L6.88072 8.55606L8.91656 11.6033L8.99971 11.7278L9.08286 11.6033L11.1188 8.55606Z" fill="#1FCFF1" stroke="black" stroke-width="0.2"/>
</svg>
