<svg width="15" height="15" viewBox="0 0 15 15" fill="none" xmlns="http://www.w3.org/2000/svg">
<path d="M1.46507 0.246093L9.71468 0.246094C10.1275 0.246094 10.4519 0.577847 10.4519 0.983324C10.4519 1.3888 10.1202 1.72055 9.71468 1.72055L2.20967 1.72055L2.20967 12.7716L9.71467 12.7716C10.1275 12.7716 10.4519 13.1034 10.4519 13.5089C10.4519 13.9143 10.1202 14.2461 9.71467 14.2461L1.46507 14.2461C1.05222 14.2461 0.72784 13.9143 0.72784 13.5089L0.727842 0.983323C0.727842 0.577847 1.05959 0.246093 1.46507 0.246093Z" fill="#7E829D"/>
<path d="M10.9165 3.74786C11.1082 3.74786 11.2925 3.82159 11.4399 3.96166L14.2193 6.73364C14.3593 6.87372 14.4404 7.0654 14.4404 7.25708C14.44 7.35462 14.4203 7.45111 14.3823 7.54096C14.3443 7.63081 14.2889 7.71223 14.2193 7.78051L11.4325 10.5304C11.3636 10.5991 11.2817 10.6534 11.1915 10.6903C11.1014 10.7271 11.0049 10.7458 10.9076 10.7451C10.8102 10.7444 10.714 10.7244 10.6244 10.6863C10.5348 10.6482 10.4537 10.5927 10.3857 10.523C10.0981 10.2355 10.0981 9.76366 10.393 9.47614L12.649 7.25708L10.393 5.0159C10.1055 4.72838 10.0981 4.25655 10.393 3.96903C10.5331 3.82159 10.7248 3.74786 10.9165 3.74786Z" fill="#7E829D"/>
<path d="M6.22012 6.51255L13.2459 6.51255C13.6588 6.51255 13.9832 6.84431 13.9832 7.24978C13.9832 7.65526 13.6514 7.98701 13.2459 7.98701L6.22012 7.98701C5.80727 7.98701 5.48289 7.65526 5.48289 7.24978C5.48289 6.84431 5.80727 6.51255 6.22012 6.51255Z" fill="#7E829D"/>
</svg>
