<svg width="162" height="51" viewBox="0 0 162 51" fill="none" xmlns="http://www.w3.org/2000/svg">
<rect y="3" width="162" height="48" rx="8" fill="black" fill-opacity="0.2"/>
<rect width="162" height="48" rx="8" fill="#E9A200"/>
<rect width="162" height="42" rx="8" fill="#FFDD00"/>
<mask id="mask0_480_1400" style="mask-type:alpha" maskUnits="userSpaceOnUse" x="0" y="0" width="162" height="48">
<rect width="162" height="48" rx="8" fill="#F6DA00"/>
</mask>
<g mask="url(#mask0_480_1400)">
<path d="M6 40.3636V53H144C157.255 53 168 42.2548 168 29V2.75565C168 -0.423107 165.423 -3 162.244 -3C159.066 -3 156.489 -0.423109 156.489 2.75565V17.9091C156.489 23.683 151.808 28.3636 146.034 28.3636H18C11.3726 28.3636 6 33.7362 6 40.3636Z" fill="black" fill-opacity="0.1"/>
</g>
<path d="M53.229 19.044C53.229 20.708 52.509 21.972 51.069 22.836C51.853 23.124 52.509 23.62 53.037 24.324C53.565 25.028 53.829 26.028 53.829 27.324C53.829 28.604 53.349 29.62 52.389 30.372C51.445 31.124 50.085 31.5 48.309 31.5H42.645C42.373 31.5 42.149 31.412 41.973 31.236C41.797 31.044 41.709 30.796 41.709 30.492V15.132C41.709 14.956 41.733 14.844 41.781 14.796C41.845 14.732 41.965 14.7 42.141 14.7H47.613C51.357 14.7 53.229 16.148 53.229 19.044ZM46.317 18.588V21.732H46.437C47.973 21.732 48.741 21.22 48.741 20.196C48.741 19.636 48.589 19.228 48.285 18.972C47.997 18.716 47.509 18.588 46.821 18.588H46.317ZM46.317 24.564V27.684H46.749C47.437 27.684 47.941 27.556 48.261 27.3C48.581 27.044 48.741 26.636 48.741 26.076C48.741 25.516 48.589 25.124 48.285 24.9C47.997 24.676 47.509 24.564 46.821 24.564H46.317ZM65.607 30.852C64.599 31.444 63.303 31.74 61.719 31.74C60.135 31.74 58.799 31.204 57.711 30.132C56.623 29.044 56.079 27.548 56.079 25.644C56.079 23.724 56.599 22.18 57.639 21.012C58.695 19.844 60.023 19.26 61.623 19.26C63.223 19.26 64.455 19.668 65.319 20.484C66.199 21.3 66.639 22.292 66.639 23.46C66.639 26.052 65.151 27.348 62.175 27.348H60.519C60.519 27.828 60.647 28.164 60.903 28.356C61.175 28.532 61.567 28.62 62.079 28.62C63.199 28.62 64.263 28.364 65.271 27.852C65.287 27.836 65.359 27.948 65.487 28.188C65.871 28.876 66.063 29.46 66.063 29.94C66.063 30.404 65.911 30.708 65.607 30.852ZM62.607 23.916C62.607 23.244 62.279 22.908 61.623 22.908C61.319 22.908 61.055 23.004 60.831 23.196C60.623 23.372 60.519 23.636 60.519 23.988V24.732H61.815C62.343 24.732 62.607 24.46 62.607 23.916ZM74.6869 31.356C74.6869 31.548 74.0149 31.644 72.6709 31.644C71.0709 31.58 70.2709 31.476 70.2709 31.332V22.836H69.0469C68.7269 22.836 68.5669 22.284 68.5669 21.18C68.5669 20.892 68.5909 20.54 68.6389 20.124C68.7029 19.708 68.8229 19.5 68.9989 19.5H70.2709V17.388C70.2709 17.068 70.9429 16.908 72.2869 16.908C73.6469 16.908 74.3269 17.036 74.3269 17.292V18.828L74.3509 19.5H76.3909C76.6629 19.5 76.7989 20.06 76.7989 21.18C76.7989 22.3 76.6629 22.86 76.3909 22.86H74.6869V31.356ZM84.4828 31.356C84.4828 31.548 83.8108 31.644 82.4668 31.644C80.8668 31.58 80.0668 31.476 80.0668 31.332V22.836H78.8428C78.5228 22.836 78.3628 22.284 78.3628 21.18C78.3628 20.892 78.3868 20.54 78.4348 20.124C78.4988 19.708 78.6188 19.5 78.7948 19.5H80.0668V17.388C80.0668 17.068 80.7388 16.908 82.0828 16.908C83.4428 16.908 84.1228 17.036 84.1228 17.292V18.828L84.1468 19.5H86.1868C86.4588 19.5 86.5948 20.06 86.5948 21.18C86.5948 22.3 86.4588 22.86 86.1868 22.86H84.4828V31.356ZM93.1507 31.356C93.1507 31.484 92.4147 31.548 90.9427 31.548C89.4867 31.548 88.7587 31.492 88.7587 31.38V19.596C88.7587 19.484 89.4867 19.428 90.9427 19.428C92.4147 19.428 93.1507 19.476 93.1507 19.572V31.356ZM93.1507 18.156C93.1507 18.268 92.4147 18.324 90.9427 18.324C89.4867 18.324 88.7587 18.276 88.7587 18.18V14.724C88.7587 14.564 89.4867 14.484 90.9427 14.484C92.4147 14.484 93.1507 14.532 93.1507 14.628V18.156ZM101.297 31.356C101.297 31.468 100.721 31.524 99.5692 31.524C97.9692 31.476 97.1692 31.388 97.1692 31.26V23.484H96.5452C96.1292 23.484 95.8572 23.132 95.7292 22.428C95.6972 22.22 95.6812 22.012 95.6812 21.804C95.6812 21.308 95.7772 20.812 95.9692 20.316C96.2572 19.612 96.7052 19.26 97.3132 19.26C97.9212 19.26 98.4652 19.404 98.9452 19.692C99.4252 19.98 99.7452 20.268 99.9052 20.556C100.913 19.692 102.113 19.26 103.505 19.26C104.897 19.26 105.905 19.636 106.529 20.388C107.153 21.14 107.465 22.372 107.465 24.084V31.284C107.465 31.476 106.777 31.572 105.401 31.572C104.041 31.572 103.361 31.476 103.361 31.284V24.348C103.361 23.548 103.081 23.148 102.521 23.148C102.361 23.148 102.137 23.22 101.849 23.364C101.561 23.492 101.377 23.588 101.297 23.652V31.356ZM114.876 31.5C113.324 31.5 112.124 31.004 111.276 30.012C110.428 29.004 110.004 27.524 110.004 25.572C110.004 23.604 110.556 22.068 111.66 20.964C112.78 19.844 114.26 19.284 116.1 19.284C117.956 19.284 119.484 19.692 120.684 20.508V32.46C120.684 33.644 120.204 34.548 119.244 35.172C118.284 35.812 117.052 36.132 115.548 36.132C114.044 36.132 112.7 35.94 111.516 35.556C111.356 35.172 111.276 34.828 111.276 34.524C111.276 33.5 111.444 32.748 111.78 32.268C112.852 32.732 113.996 32.964 115.212 32.964C116.092 32.964 116.532 32.652 116.532 32.028V31.308C115.844 31.436 115.292 31.5 114.876 31.5ZM115.98 23.196C114.908 23.196 114.372 24.004 114.372 25.62C114.372 26.628 114.58 27.284 114.996 27.588C115.268 27.796 115.54 27.9 115.812 27.9C116.084 27.9 116.324 27.876 116.532 27.828V23.268C116.34 23.22 116.156 23.196 115.98 23.196Z" fill="black" fill-opacity="0.6"/>
<path d="M53.229 16.544C53.229 18.208 52.509 19.472 51.069 20.336C51.853 20.624 52.509 21.12 53.037 21.824C53.565 22.528 53.829 23.528 53.829 24.824C53.829 26.104 53.349 27.12 52.389 27.872C51.445 28.624 50.085 29 48.309 29H42.645C42.373 29 42.149 28.912 41.973 28.736C41.797 28.544 41.709 28.296 41.709 27.992V12.632C41.709 12.456 41.733 12.344 41.781 12.296C41.845 12.232 41.965 12.2 42.141 12.2H47.613C51.357 12.2 53.229 13.648 53.229 16.544ZM46.317 16.088V19.232H46.437C47.973 19.232 48.741 18.72 48.741 17.696C48.741 17.136 48.589 16.728 48.285 16.472C47.997 16.216 47.509 16.088 46.821 16.088H46.317ZM46.317 22.064V25.184H46.749C47.437 25.184 47.941 25.056 48.261 24.8C48.581 24.544 48.741 24.136 48.741 23.576C48.741 23.016 48.589 22.624 48.285 22.4C47.997 22.176 47.509 22.064 46.821 22.064H46.317ZM65.607 28.352C64.599 28.944 63.303 29.24 61.719 29.24C60.135 29.24 58.799 28.704 57.711 27.632C56.623 26.544 56.079 25.048 56.079 23.144C56.079 21.224 56.599 19.68 57.639 18.512C58.695 17.344 60.023 16.76 61.623 16.76C63.223 16.76 64.455 17.168 65.319 17.984C66.199 18.8 66.639 19.792 66.639 20.96C66.639 23.552 65.151 24.848 62.175 24.848H60.519C60.519 25.328 60.647 25.664 60.903 25.856C61.175 26.032 61.567 26.12 62.079 26.12C63.199 26.12 64.263 25.864 65.271 25.352C65.287 25.336 65.359 25.448 65.487 25.688C65.871 26.376 66.063 26.96 66.063 27.44C66.063 27.904 65.911 28.208 65.607 28.352ZM62.607 21.416C62.607 20.744 62.279 20.408 61.623 20.408C61.319 20.408 61.055 20.504 60.831 20.696C60.623 20.872 60.519 21.136 60.519 21.488V22.232H61.815C62.343 22.232 62.607 21.96 62.607 21.416ZM74.6869 28.856C74.6869 29.048 74.0149 29.144 72.6709 29.144C71.0709 29.08 70.2709 28.976 70.2709 28.832V20.336H69.0469C68.7269 20.336 68.5669 19.784 68.5669 18.68C68.5669 18.392 68.5909 18.04 68.6389 17.624C68.7029 17.208 68.8229 17 68.9989 17H70.2709V14.888C70.2709 14.568 70.9429 14.408 72.2869 14.408C73.6469 14.408 74.3269 14.536 74.3269 14.792V16.328L74.3509 17H76.3909C76.6629 17 76.7989 17.56 76.7989 18.68C76.7989 19.8 76.6629 20.36 76.3909 20.36H74.6869V28.856ZM84.4828 28.856C84.4828 29.048 83.8108 29.144 82.4668 29.144C80.8668 29.08 80.0668 28.976 80.0668 28.832V20.336H78.8428C78.5228 20.336 78.3628 19.784 78.3628 18.68C78.3628 18.392 78.3868 18.04 78.4348 17.624C78.4988 17.208 78.6188 17 78.7948 17H80.0668V14.888C80.0668 14.568 80.7388 14.408 82.0828 14.408C83.4428 14.408 84.1228 14.536 84.1228 14.792V16.328L84.1468 17H86.1868C86.4588 17 86.5948 17.56 86.5948 18.68C86.5948 19.8 86.4588 20.36 86.1868 20.36H84.4828V28.856ZM93.1507 28.856C93.1507 28.984 92.4147 29.048 90.9427 29.048C89.4867 29.048 88.7587 28.992 88.7587 28.88V17.096C88.7587 16.984 89.4867 16.928 90.9427 16.928C92.4147 16.928 93.1507 16.976 93.1507 17.072V28.856ZM93.1507 15.656C93.1507 15.768 92.4147 15.824 90.9427 15.824C89.4867 15.824 88.7587 15.776 88.7587 15.68V12.224C88.7587 12.064 89.4867 11.984 90.9427 11.984C92.4147 11.984 93.1507 12.032 93.1507 12.128V15.656ZM101.297 28.856C101.297 28.968 100.721 29.024 99.5692 29.024C97.9692 28.976 97.1692 28.888 97.1692 28.76V20.984H96.5452C96.1292 20.984 95.8572 20.632 95.7292 19.928C95.6972 19.72 95.6812 19.512 95.6812 19.304C95.6812 18.808 95.7772 18.312 95.9692 17.816C96.2572 17.112 96.7052 16.76 97.3132 16.76C97.9212 16.76 98.4652 16.904 98.9452 17.192C99.4252 17.48 99.7452 17.768 99.9052 18.056C100.913 17.192 102.113 16.76 103.505 16.76C104.897 16.76 105.905 17.136 106.529 17.888C107.153 18.64 107.465 19.872 107.465 21.584V28.784C107.465 28.976 106.777 29.072 105.401 29.072C104.041 29.072 103.361 28.976 103.361 28.784V21.848C103.361 21.048 103.081 20.648 102.521 20.648C102.361 20.648 102.137 20.72 101.849 20.864C101.561 20.992 101.377 21.088 101.297 21.152V28.856ZM114.876 29C113.324 29 112.124 28.504 111.276 27.512C110.428 26.504 110.004 25.024 110.004 23.072C110.004 21.104 110.556 19.568 111.66 18.464C112.78 17.344 114.26 16.784 116.1 16.784C117.956 16.784 119.484 17.192 120.684 18.008V29.96C120.684 31.144 120.204 32.048 119.244 32.672C118.284 33.312 117.052 33.632 115.548 33.632C114.044 33.632 112.7 33.44 111.516 33.056C111.356 32.672 111.276 32.328 111.276 32.024C111.276 31 111.444 30.248 111.78 29.768C112.852 30.232 113.996 30.464 115.212 30.464C116.092 30.464 116.532 30.152 116.532 29.528V28.808C115.844 28.936 115.292 29 114.876 29ZM115.98 20.696C114.908 20.696 114.372 21.504 114.372 23.12C114.372 24.128 114.58 24.784 114.996 25.088C115.268 25.296 115.54 25.4 115.812 25.4C116.084 25.4 116.324 25.376 116.532 25.328V20.768C116.34 20.72 116.156 20.696 115.98 20.696Z" fill="white"/>
<path d="M51.069 20.336L50.5545 19.4785L48.7621 20.5539L50.7242 21.2747L51.069 20.336ZM53.037 21.824L53.837 21.224L53.037 21.824ZM52.389 27.872L51.7723 27.0847L51.7659 27.0898L52.389 27.872ZM41.973 28.736L41.2358 29.4117L41.2505 29.4277L41.2659 29.4431L41.973 28.736ZM41.781 12.296L41.0739 11.5889L41.0739 11.5889L41.781 12.296ZM46.317 16.088V15.088H45.317V16.088H46.317ZM46.317 19.232H45.317V20.232H46.317V19.232ZM48.285 16.472L47.6206 17.2194L47.6306 17.2283L47.6409 17.2369L48.285 16.472ZM46.317 22.064V21.064H45.317V22.064H46.317ZM46.317 25.184H45.317V26.184H46.317V25.184ZM48.261 24.8L48.8857 25.5809L48.261 24.8ZM48.285 22.4L47.6711 23.1894L47.6813 23.1973L47.6918 23.2051L48.285 22.4ZM52.229 16.544C52.229 17.8528 51.6967 18.7932 50.5545 19.4785L51.5835 21.1935C53.3213 20.1508 54.229 18.5632 54.229 16.544H52.229ZM50.7242 21.2747C51.317 21.4924 51.8183 21.8658 52.237 22.424L53.837 21.224C53.1997 20.3742 52.389 19.7556 51.4138 19.3973L50.7242 21.2747ZM52.237 22.424C52.5867 22.8902 52.829 23.6465 52.829 24.824H54.829C54.829 23.4095 54.5433 22.1658 53.837 21.224L52.237 22.424ZM52.829 24.824C52.829 25.8143 52.4768 26.533 51.7723 27.0848L53.0057 28.6592C54.2212 27.707 54.829 26.3937 54.829 24.824H52.829ZM51.7659 27.0898C51.0655 27.6478 49.9616 28 48.309 28V30C50.2084 30 51.8245 29.6002 53.0121 28.6542L51.7659 27.0898ZM48.309 28H42.645V30H48.309V28ZM42.645 28C42.638 28 42.6329 27.9997 42.6296 27.9994C42.6263 27.9992 42.6247 27.9989 42.6247 27.9989C42.6247 27.9989 42.626 27.9991 42.6286 27.9998C42.6311 28.0005 42.6345 28.0016 42.6387 28.0032C42.6473 28.0066 42.6564 28.0113 42.6648 28.0169C42.6732 28.0224 42.6783 28.0271 42.6801 28.0289L41.2659 29.4431C41.6478 29.825 42.1349 30 42.645 30V28ZM42.7102 28.0603C42.7109 28.0611 42.7129 28.0635 42.715 28.067C42.7171 28.0705 42.7177 28.0725 42.7174 28.0716C42.7169 28.0702 42.709 28.0474 42.709 27.992H40.709C40.709 28.5016 40.8629 29.0049 41.2358 29.4117L42.7102 28.0603ZM42.709 27.992V12.632H40.709V27.992H42.709ZM42.709 12.632C42.709 12.5812 42.7132 12.5864 42.7048 12.6255C42.7002 12.6469 42.6887 12.6938 42.6614 12.7544C42.6345 12.8141 42.5828 12.9084 42.4881 13.0031L41.0739 11.5889C40.849 11.8138 40.7768 12.0775 40.7492 12.2065C40.7168 12.3576 40.709 12.5068 40.709 12.632H42.709ZM42.4881 13.0031C42.3578 13.1334 42.2261 13.1771 42.1767 13.1902C42.1258 13.2038 42.107 13.2 42.141 13.2V11.2C41.9202 11.2 41.4384 11.2244 41.0739 11.5889L42.4881 13.0031ZM42.141 13.2H47.613V11.2H42.141V13.2ZM47.613 13.2C49.3839 13.2 50.5283 13.5472 51.2132 14.077C51.8493 14.5691 52.229 15.3286 52.229 16.544H54.229C54.229 14.8634 53.6727 13.4509 52.4368 12.495C51.2497 11.5768 49.5861 11.2 47.613 11.2V13.2ZM45.317 16.088V19.232H47.317V16.088H45.317ZM46.317 20.232H46.437V18.232H46.317V20.232ZM46.437 20.232C47.2845 20.232 48.0951 20.0965 48.7197 19.68C49.4159 19.2159 49.741 18.4993 49.741 17.696H47.741C47.741 17.8264 47.717 17.8919 47.7026 17.9208C47.6902 17.9455 47.6687 17.977 47.6103 18.0159C47.4669 18.1115 47.1255 18.232 46.437 18.232V20.232ZM49.741 17.696C49.741 16.9666 49.5398 16.2214 48.9291 15.7071L47.6409 17.2369C47.6487 17.2435 47.6682 17.2608 47.6899 17.3191C47.7143 17.3846 47.741 17.5027 47.741 17.696H49.741ZM48.9494 15.7246C48.3806 15.2191 47.5805 15.088 46.821 15.088V17.088C47.1081 17.088 47.3119 17.1152 47.4493 17.1513C47.5864 17.1872 47.625 17.2232 47.6206 17.2194L48.9494 15.7246ZM46.821 15.088H46.317V17.088H46.821V15.088ZM45.317 22.064V25.184H47.317V22.064H45.317ZM46.317 26.184H46.749V24.184H46.317V26.184ZM46.749 26.184C47.5231 26.184 48.303 26.047 48.8857 25.5809L47.6363 24.0191C47.579 24.065 47.3509 24.184 46.749 24.184V26.184ZM48.8857 25.5809C49.522 25.0718 49.741 24.3215 49.741 23.576H47.741C47.741 23.9505 47.64 24.0162 47.6363 24.0191L48.8857 25.5809ZM49.741 23.576C49.741 22.8586 49.5442 22.0857 48.8782 21.5949L47.6918 23.2051C47.674 23.1919 47.6792 23.1838 47.6946 23.2235C47.7138 23.273 47.741 23.381 47.741 23.576H49.741ZM48.8989 21.6106C48.3367 21.1734 47.5612 21.064 46.821 21.064V23.064C47.1156 23.064 47.3302 23.0884 47.4793 23.1227C47.6311 23.1575 47.6766 23.1936 47.6711 23.1894L48.8989 21.6106ZM46.821 21.064H46.317V23.064H46.821V21.064ZM65.607 28.352L65.1789 27.4483L65.1388 27.4673L65.1006 27.4897L65.607 28.352ZM57.711 27.632L57.0039 28.3391L57.0091 28.3443L57.711 27.632ZM57.639 18.512L56.8972 17.8413L56.8922 17.847L57.639 18.512ZM65.319 17.984L64.6323 18.711L64.6391 18.7173L65.319 17.984ZM60.519 24.848V23.848H59.519V24.848H60.519ZM60.903 25.856L60.303 26.656L60.3307 26.6768L60.3597 26.6956L60.903 25.856ZM65.271 25.352L65.7239 26.2436L65.8657 26.1716L65.9781 26.0591L65.271 25.352ZM65.487 25.688L64.6046 26.1586L64.6091 26.167L64.6138 26.1754L65.487 25.688ZM60.831 20.696L61.477 21.4594L61.4818 21.4553L60.831 20.696ZM60.519 22.232H59.519V23.232H60.519V22.232ZM65.1006 27.4897C64.2912 27.965 63.1858 28.24 61.719 28.24V30.24C63.4202 30.24 64.9068 29.923 66.1134 29.2143L65.1006 27.4897ZM61.719 28.24C60.3868 28.24 59.3062 27.7999 58.4128 26.9197L57.0091 28.3443C58.2918 29.6081 59.8832 30.24 61.719 30.24V28.24ZM58.4181 26.9249C57.5601 26.0669 57.079 24.8495 57.079 23.144H55.079C55.079 25.2465 55.6859 27.0211 57.0039 28.3391L58.4181 26.9249ZM57.079 23.144C57.079 21.4109 57.5439 20.1226 58.3858 19.177L56.8922 17.847C55.6541 19.2374 55.079 21.0371 55.079 23.144H57.079ZM58.3808 19.1826C59.2437 18.2282 60.3005 17.76 61.623 17.76V15.76C59.7455 15.76 58.1463 16.4598 56.8972 17.8414L58.3808 19.1826ZM61.623 17.76C63.0579 17.76 64.0106 18.1238 64.6324 18.711L66.0056 17.257C64.8994 16.2122 63.3881 15.76 61.623 15.76V17.76ZM64.6391 18.7173C65.3213 19.3499 65.639 20.0789 65.639 20.96H67.639C67.639 19.5051 67.0767 18.2501 65.9989 17.2507L64.6391 18.7173ZM65.639 20.96C65.639 22.0631 65.3288 22.7191 64.8662 23.1219C64.3773 23.5478 63.5402 23.848 62.175 23.848V25.848C63.7858 25.848 65.1807 25.5002 66.1798 24.6301C67.2052 23.7369 67.639 22.4489 67.639 20.96H65.639ZM62.175 23.848H60.519V25.848H62.175V23.848ZM59.519 24.848C59.519 25.4796 59.6884 26.195 60.303 26.656L61.503 25.056C61.5204 25.069 61.5343 25.0838 61.5437 25.0968C61.5527 25.1091 61.5532 25.1137 61.5495 25.104C61.5406 25.0807 61.519 25.0047 61.519 24.848H59.519ZM60.3597 26.6956C60.8623 27.0207 61.4767 27.12 62.079 27.12V25.12C61.6573 25.12 61.4877 25.0433 61.4463 25.0164L60.3597 26.6956ZM62.079 27.12C63.3579 27.12 64.5769 26.8262 65.7239 26.2436L64.8181 24.4604C63.9491 24.9018 63.0401 25.12 62.079 25.12V27.12ZM65.9781 26.0591C65.7881 26.2491 65.5335 26.3505 65.2747 26.3505C65.0521 26.3505 64.8879 26.2764 64.809 26.2344C64.6589 26.1543 64.5707 26.0553 64.5563 26.0397C64.5069 25.9858 64.4837 25.9459 64.4958 25.9648C64.5088 25.985 64.5431 26.0433 64.6046 26.1586L66.3694 25.2174C66.3028 25.0927 66.2372 24.975 66.1782 24.8832C66.1543 24.8461 66.1021 24.7662 66.0307 24.6883C66.0053 24.6607 65.9078 24.5537 65.7502 24.4696C65.6676 24.4256 65.5001 24.3505 65.2747 24.3505C65.0129 24.3505 64.7559 24.4529 64.5639 24.6449L65.9781 26.0591ZM64.6138 26.1754C64.9621 26.7994 65.063 27.207 65.063 27.44H67.063C67.063 26.713 66.7799 25.9525 66.3602 25.2006L64.6138 26.1754ZM65.063 27.44C65.063 27.5024 65.0578 27.5423 65.0535 27.5638C65.0493 27.585 65.047 27.5839 65.0546 27.5688C65.0628 27.5523 65.079 27.5268 65.1057 27.5007C65.1324 27.4744 65.1593 27.4575 65.1789 27.4483L66.0351 29.2557C66.8201 28.8839 67.063 28.1194 67.063 27.44H65.063ZM63.607 21.416C63.607 20.9318 63.4889 20.3839 63.0766 19.9615C62.6599 19.5346 62.1113 19.408 61.623 19.408V21.408C61.6627 21.408 61.6908 21.4106 61.7088 21.4132C61.7268 21.4158 61.7331 21.4183 61.7304 21.4173C61.7273 21.4163 61.7157 21.412 61.699 21.4017C61.6908 21.3966 61.6818 21.3904 61.6725 21.383C61.6632 21.3756 61.6541 21.3674 61.6454 21.3585C61.6367 21.3496 61.629 21.3406 61.6222 21.3316C61.6154 21.3227 61.61 21.3144 61.6057 21.3072C61.5971 21.2925 61.5944 21.2837 61.5946 21.2844C61.5949 21.2854 61.5981 21.2957 61.6012 21.3179C61.6043 21.3401 61.607 21.3723 61.607 21.416H63.607ZM61.623 19.408C61.0882 19.408 60.5914 19.5843 60.1802 19.9367L61.4818 21.4553C61.5186 21.4237 61.5498 21.408 61.623 21.408V19.408ZM60.1851 19.9326C59.6906 20.351 59.519 20.934 59.519 21.488H61.519C61.519 21.4083 61.531 21.3834 61.5274 21.3925C61.5254 21.3976 61.5202 21.4088 61.5102 21.4229C61.5001 21.4372 61.4884 21.4497 61.4769 21.4594L60.1851 19.9326ZM59.519 21.488V22.232H61.519V21.488H59.519ZM60.519 23.232H61.815V21.232H60.519V23.232ZM61.815 23.232C62.2409 23.232 62.7421 23.1206 63.1266 22.7245C63.5057 22.3339 63.607 21.8348 63.607 21.416H61.607C61.607 21.5412 61.5763 21.4501 61.6914 21.3315C61.746 21.2753 61.8028 21.2469 61.8367 21.2352C61.8654 21.2254 61.864 21.232 61.815 21.232V23.232ZM72.6709 29.144L72.6309 30.1432L72.6509 30.144H72.6709V29.144ZM70.2709 20.336H71.2709V19.336H70.2709V20.336ZM68.6389 17.624L67.6505 17.4719L67.6476 17.4906L67.6455 17.5094L68.6389 17.624ZM70.2709 17V18H71.2709V17H70.2709ZM74.3269 16.328H73.3269V16.3459L73.3275 16.3637L74.3269 16.328ZM74.3509 17L73.3515 17.0357L73.386 18H74.3509V17ZM74.6869 20.36V19.36H73.6869V20.36H74.6869ZM73.6869 28.856C73.6869 28.5548 73.8289 28.3357 73.9483 28.2164C74.0523 28.1124 74.1484 28.0708 74.167 28.0629C74.2053 28.0464 74.1832 28.0618 74.0415 28.0821C73.7781 28.1197 73.3319 28.144 72.6709 28.144V30.144C73.3538 30.144 73.9156 30.1203 74.3243 30.0619C74.5185 30.0342 74.7484 29.9896 74.9548 29.9011C75.0659 29.8535 75.6869 29.5757 75.6869 28.856H73.6869ZM72.7108 28.1448C71.9177 28.1131 71.354 28.0724 70.9998 28.0263C70.9134 28.0151 70.8459 28.0044 70.795 27.9947C70.7699 27.9899 70.7507 27.9858 70.7368 27.9825C70.7226 27.9791 70.7165 27.9772 70.717 27.9773C70.7174 27.9775 70.7204 27.9784 70.7256 27.9803C70.7308 27.9822 70.7392 27.9854 70.7503 27.9901C70.7695 27.9984 70.8121 28.0179 70.865 28.0534C70.9292 28.0964 71.2709 28.3406 71.2709 28.832H69.2709C69.2709 29.3594 69.6376 29.6384 69.7518 29.7149C69.8952 29.811 70.0399 29.8613 70.1248 29.8877C70.3086 29.9446 70.5271 29.9817 70.742 30.0097C71.1878 30.0676 71.8241 30.1109 72.6309 30.1432L72.7108 28.1448ZM71.2709 28.832V20.336H69.2709V28.832H71.2709ZM70.2709 19.336H69.0469V21.336H70.2709V19.336ZM69.0469 19.336C69.1562 19.336 69.2704 19.3609 69.3765 19.4131C69.4792 19.4638 69.5491 19.5276 69.5915 19.5763C69.6656 19.6616 69.6676 19.7135 69.6473 19.6436C69.6077 19.5068 69.5669 19.2075 69.5669 18.68H67.5669C67.5669 19.2565 67.6061 19.7852 67.7264 20.2004C67.7862 20.4065 67.8881 20.6654 68.0823 20.8887C68.302 21.1414 68.6344 21.336 69.0469 21.336V19.336ZM69.5669 18.68C69.5669 18.4432 69.5869 18.132 69.6323 17.7386L67.6455 17.5094C67.5949 17.948 67.5669 18.3408 67.5669 18.68H69.5669ZM69.6272 17.7761C69.6524 17.6125 69.6749 17.6005 69.6431 17.6557C69.623 17.6905 69.5667 17.7768 69.4523 17.8572C69.3259 17.946 69.1667 18 68.9989 18V16C68.4275 16 68.0758 16.3701 67.9107 16.6563C67.7588 16.9195 67.6893 17.2195 67.6505 17.4719L69.6272 17.7761ZM68.9989 18H70.2709V16H68.9989V18ZM71.2709 17V14.888H69.2709V17H71.2709ZM71.2709 14.888C71.2709 15.2224 71.0724 15.4244 70.9781 15.4917C70.9094 15.5408 70.891 15.5283 71.0065 15.5008C71.2253 15.4487 71.6342 15.408 72.2869 15.408V13.408C71.5955 13.408 70.9964 13.4473 70.5433 13.5552C70.3228 13.6077 70.0524 13.6952 69.8156 13.8643C69.5533 14.0516 69.2709 14.3936 69.2709 14.888H71.2709ZM72.2869 15.408C72.9521 15.408 73.3863 15.4405 73.6319 15.4867C73.7639 15.5116 73.7647 15.527 73.7077 15.4948C73.6574 15.4664 73.3269 15.2555 73.3269 14.792H75.3269C75.3269 14.2005 74.9113 13.8776 74.6911 13.7532C74.464 13.625 74.2099 13.5604 74.0019 13.5213C73.5674 13.4395 72.9817 13.408 72.2869 13.408V15.408ZM73.3269 14.792V16.328H75.3269V14.792H73.3269ZM73.3275 16.3637L73.3515 17.0357L75.3502 16.9643L75.3262 16.2923L73.3275 16.3637ZM74.3509 18H76.3909V16H74.3509V18ZM76.3909 18C76.2438 18 76.101 17.9596 75.9795 17.8882C75.8652 17.821 75.7964 17.7423 75.7611 17.6939C75.7005 17.6106 75.7042 17.5699 75.7251 17.656C75.7642 17.8167 75.7989 18.1398 75.7989 18.68H77.7989C77.7989 18.1002 77.7656 17.5833 77.6686 17.184C77.6215 16.9901 77.5402 16.7394 77.3776 16.5161C77.1955 16.2661 76.8644 16 76.3909 16V18ZM75.7989 18.68C75.7989 19.2202 75.7642 19.5433 75.7251 19.704C75.7042 19.7901 75.7005 19.7494 75.7611 19.6661C75.7964 19.6177 75.8652 19.539 75.9795 19.4718C76.101 19.4004 76.2438 19.36 76.3909 19.36V21.36C76.8644 21.36 77.1955 21.0939 77.3776 20.8439C77.5402 20.6206 77.6215 20.3699 77.6686 20.176C77.7656 19.7767 77.7989 19.2598 77.7989 18.68H75.7989ZM76.3909 19.36H74.6869V21.36H76.3909V19.36ZM73.6869 20.36V28.856H75.6869V20.36H73.6869ZM82.4668 29.144L82.4268 30.1432L82.4468 30.144H82.4668V29.144ZM80.0668 20.336H81.0668V19.336H80.0668V20.336ZM78.4348 17.624L77.4464 17.4719L77.4436 17.4906L77.4414 17.5094L78.4348 17.624ZM80.0668 17V18H81.0668V17H80.0668ZM84.1228 16.328H83.1228V16.3459L83.1235 16.3637L84.1228 16.328ZM84.1468 17L83.1474 17.0357L83.1819 18H84.1468V17ZM84.4828 20.36V19.36H83.4828V20.36H84.4828ZM83.4828 28.856C83.4828 28.5548 83.6249 28.3357 83.7442 28.2164C83.8482 28.1124 83.9443 28.0708 83.9629 28.0629C84.0012 28.0464 83.9792 28.0618 83.8374 28.0821C83.5741 28.1197 83.1279 28.144 82.4668 28.144V30.144C83.1498 30.144 83.7116 30.1203 84.1202 30.0619C84.3145 30.0342 84.5444 29.9896 84.7507 29.9011C84.8618 29.8535 85.4828 29.5757 85.4828 28.856H83.4828ZM82.5068 28.1448C81.7136 28.1131 81.1499 28.0724 80.7957 28.0263C80.7093 28.0151 80.6419 28.0044 80.591 27.9947C80.5658 27.9899 80.5466 27.9858 80.5327 27.9825C80.5185 27.9791 80.5125 27.9772 80.5129 27.9773C80.5133 27.9775 80.5164 27.9784 80.5216 27.9803C80.5267 27.9822 80.5351 27.9854 80.5462 27.9901C80.5654 27.9984 80.608 28.0179 80.6609 28.0534C80.7251 28.0964 81.0668 28.3406 81.0668 28.832H79.0668C79.0668 29.3594 79.4335 29.6384 79.5477 29.7149C79.6912 29.811 79.8358 29.8613 79.9207 29.8877C80.1045 29.9446 80.323 29.9817 80.5379 30.0097C80.9837 30.0676 81.62 30.1109 82.4268 30.1432L82.5068 28.1448ZM81.0668 28.832V20.336H79.0668V28.832H81.0668ZM80.0668 19.336H78.8428V21.336H80.0668V19.336ZM78.8428 19.336C78.9521 19.336 79.0664 19.3609 79.1724 19.4131C79.2752 19.4638 79.345 19.5276 79.3874 19.5763C79.4616 19.6616 79.4635 19.7135 79.4433 19.6436C79.4036 19.5068 79.3628 19.2075 79.3628 18.68H77.3628C77.3628 19.2565 77.402 19.7852 77.5223 20.2004C77.5821 20.4065 77.6841 20.6654 77.8782 20.8887C78.0979 21.1414 78.4303 21.336 78.8428 21.336V19.336ZM79.3628 18.68C79.3628 18.4432 79.3828 18.132 79.4282 17.7386L77.4414 17.5094C77.3908 17.948 77.3628 18.3408 77.3628 18.68H79.3628ZM79.4232 17.7761C79.4483 17.6125 79.4709 17.6005 79.439 17.6557C79.419 17.6905 79.3626 17.7768 79.2483 17.8572C79.1219 17.946 78.9626 18 78.7948 18V16C78.2234 16 77.8717 16.3701 77.7066 16.6563C77.5547 16.9195 77.4853 17.2195 77.4464 17.4719L79.4232 17.7761ZM78.7948 18H80.0668V16H78.7948V18ZM81.0668 17V14.888H79.0668V17H81.0668ZM81.0668 14.888C81.0668 15.2224 80.8684 15.4244 80.7741 15.4917C80.7053 15.5408 80.6869 15.5283 80.8024 15.5008C81.0213 15.4487 81.4301 15.408 82.0828 15.408V13.408C81.3915 13.408 80.7924 13.4473 80.3392 13.5552C80.1187 13.6077 79.8483 13.6952 79.6116 13.8643C79.3492 14.0516 79.0668 14.3936 79.0668 14.888H81.0668ZM82.0828 15.408C82.748 15.408 83.1823 15.4405 83.4278 15.4867C83.5598 15.5116 83.5607 15.527 83.5036 15.4948C83.4534 15.4664 83.1228 15.2555 83.1228 14.792H85.1228C85.1228 14.2005 84.7073 13.8776 84.487 13.7532C84.26 13.625 84.0058 13.5604 83.7978 13.5213C83.3634 13.4395 82.7776 13.408 82.0828 13.408V15.408ZM83.1228 14.792V16.328H85.1228V14.792H83.1228ZM83.1235 16.3637L83.1474 17.0357L85.1462 16.9643L85.1222 16.2923L83.1235 16.3637ZM84.1468 18H86.1868V16H84.1468V18ZM86.1868 18C86.0397 18 85.8969 17.9596 85.7754 17.8882C85.6612 17.821 85.5924 17.7423 85.5571 17.6939C85.4964 17.6106 85.5002 17.5699 85.5211 17.656C85.5601 17.8167 85.5948 18.1398 85.5948 18.68H87.5948C87.5948 18.1002 87.5615 17.5833 87.4646 17.184C87.4175 16.9901 87.3362 16.7394 87.1735 16.5161C86.9914 16.2661 86.6604 16 86.1868 16V18ZM85.5948 18.68C85.5948 19.2202 85.5601 19.5433 85.5211 19.704C85.5002 19.7901 85.4964 19.7494 85.5571 19.6661C85.5924 19.6177 85.6612 19.539 85.7754 19.4718C85.8969 19.4004 86.0397 19.36 86.1868 19.36V21.36C86.6604 21.36 86.9914 21.0939 87.1735 20.8439C87.3362 20.6206 87.4175 20.3699 87.4646 20.176C87.5615 19.7767 87.5948 19.2598 87.5948 18.68H85.5948ZM86.1868 19.36H84.4828V21.36H86.1868V19.36ZM83.4828 20.36V28.856H85.4828V20.36H83.4828ZM92.1507 28.856C92.1507 28.3339 92.5296 28.0874 92.5963 28.0468C92.6533 28.0121 92.6992 27.9935 92.7205 27.9855C92.7439 27.9767 92.7585 27.9728 92.7603 27.9724C92.7625 27.9718 92.7443 27.9765 92.6968 27.9833C92.6516 27.9899 92.5908 27.9969 92.5121 28.0038C92.1889 28.0319 91.6722 28.048 90.9427 28.048V30.048C91.6853 30.048 92.2726 30.0321 92.6854 29.9962C92.8835 29.979 93.0894 29.9535 93.2652 29.9076C93.3451 29.8868 93.4897 29.8444 93.6362 29.7552C93.7489 29.6866 94.1507 29.4101 94.1507 28.856H92.1507ZM90.9427 28.048C90.2205 28.048 89.7058 28.0339 89.3814 28.0089C89.3022 28.0029 89.2401 27.9965 89.193 27.9905C89.1697 27.9875 89.1519 27.9848 89.1389 27.9826C89.1256 27.9804 89.1198 27.979 89.1201 27.9791C89.1205 27.9792 89.1233 27.9798 89.1282 27.9812C89.133 27.9825 89.1411 27.9848 89.1518 27.9884C89.1697 27.9944 89.2125 28.0096 89.267 28.0389C89.3153 28.0649 89.4205 28.1271 89.523 28.2454C89.6355 28.3753 89.7588 28.5925 89.7588 28.88H87.7588C87.7588 29.4933 88.2463 29.7608 88.3188 29.7998C88.4592 29.8755 88.5959 29.9107 88.6704 29.9279C88.8367 29.9663 89.0338 29.9881 89.2281 30.0031C89.6317 30.0341 90.209 30.048 90.9427 30.048V28.048ZM89.7588 28.88V17.096H87.7588V28.88H89.7588ZM89.7588 17.096C89.7588 17.3835 89.6355 17.6007 89.523 17.7306C89.4205 17.8489 89.3153 17.9111 89.267 17.9371C89.2125 17.9664 89.1697 17.9816 89.1518 17.9876C89.1411 17.9912 89.133 17.9935 89.1282 17.9948C89.1233 17.9962 89.1205 17.9968 89.1201 17.9969C89.1198 17.997 89.1256 17.9956 89.1389 17.9934C89.1519 17.9912 89.1697 17.9885 89.193 17.9855C89.2401 17.9795 89.3022 17.9731 89.3814 17.9671C89.7058 17.9421 90.2205 17.928 90.9427 17.928V15.928C90.209 15.928 89.6317 15.9419 89.2281 15.9729C89.0338 15.9879 88.8367 16.0097 88.6704 16.0481C88.5959 16.0653 88.4592 16.1005 88.3188 16.1762C88.2463 16.2152 87.7588 16.4827 87.7588 17.096H89.7588ZM90.9427 17.928C91.6739 17.928 92.1994 17.9401 92.5337 17.9619C92.7075 17.9732 92.7936 17.9851 92.8207 17.9904C92.8432 17.9948 92.786 17.9868 92.701 17.9479C92.6604 17.9294 92.5532 17.8773 92.4428 17.7694C92.324 17.6532 92.1507 17.417 92.1507 17.072H94.1507C94.1507 16.715 93.9717 16.4672 93.8414 16.3397C93.7196 16.2205 93.5951 16.1576 93.5315 16.1286C93.4005 16.0687 93.2743 16.0412 93.2048 16.0276C93.0479 15.9969 92.858 15.9788 92.6638 15.9661C92.2621 15.9399 91.6836 15.928 90.9427 15.928V17.928ZM92.1507 17.072V28.856H94.1507V17.072H92.1507ZM92.1507 15.656C92.1507 15.365 92.2768 15.1465 92.39 15.0173C92.4931 14.8997 92.5984 14.8382 92.6462 14.8128C92.7003 14.7839 92.7425 14.7692 92.76 14.7634C92.7704 14.7599 92.7783 14.7577 92.7829 14.7565C92.7875 14.7552 92.7901 14.7546 92.7902 14.7546C92.7904 14.7545 92.7888 14.7549 92.7852 14.7556C92.7817 14.7563 92.7767 14.7572 92.77 14.7583C92.7565 14.7606 92.7382 14.7633 92.7144 14.7663C92.6664 14.7724 92.6032 14.7788 92.5229 14.7849C92.1941 14.8099 91.6731 14.824 90.9427 14.824V16.824C91.6844 16.824 92.2674 16.8101 92.6746 16.7791C92.8708 16.7642 93.0687 16.7424 93.2353 16.7044C93.3099 16.6874 93.4462 16.6526 93.5863 16.578C93.6549 16.5415 94.1507 16.2748 94.1507 15.656H92.1507ZM90.9427 14.824C90.2197 14.824 89.7005 14.8119 89.3705 14.7902C89.1989 14.7788 89.1148 14.767 89.0893 14.762C89.0676 14.7577 89.126 14.7661 89.2119 14.8058C89.2532 14.8248 89.3605 14.8776 89.4705 14.9864C89.5892 15.1039 89.7588 15.339 89.7588 15.68H87.7588C87.7588 16.033 87.934 16.2797 88.0641 16.4084C88.1855 16.5285 88.3098 16.5922 88.3738 16.6217C88.5053 16.6824 88.6319 16.7103 88.7012 16.724C88.8577 16.7549 89.0466 16.7732 89.239 16.7858C89.637 16.8121 90.2098 16.824 90.9427 16.824V14.824ZM89.7588 15.68V12.224H87.7588V15.68H89.7588ZM89.7588 12.224C89.7588 12.6331 89.5135 12.8751 89.4026 12.9604C89.3437 13.0056 89.2933 13.032 89.2655 13.0453C89.2362 13.0593 89.2155 13.0664 89.2083 13.0687C89.1979 13.0722 89.2507 13.056 89.414 13.038C89.7216 13.0042 90.2231 12.984 90.9427 12.984V10.984C90.2064 10.984 89.6159 11.0038 89.1955 11.05C88.9948 11.072 88.7746 11.1058 88.5822 11.1693C88.4913 11.1992 88.3352 11.2582 88.1832 11.3751C88.0268 11.4954 87.7588 11.7749 87.7588 12.224H89.7588ZM90.9427 12.984C91.6739 12.984 92.1994 12.9961 92.5337 13.0179C92.7075 13.0292 92.7936 13.0411 92.8207 13.0464C92.8432 13.0508 92.786 13.0428 92.701 13.0039C92.6604 12.9854 92.5532 12.9333 92.4428 12.8254C92.324 12.7092 92.1507 12.473 92.1507 12.128H94.1507C94.1507 11.771 93.9717 11.5232 93.8414 11.3957C93.7196 11.2765 93.5951 11.2136 93.5315 11.1846C93.4005 11.1247 93.2743 11.0972 93.2048 11.0836C93.0479 11.0529 92.8581 11.0348 92.6638 11.0221C92.2621 10.9959 91.6836 10.984 90.9427 10.984V12.984ZM92.1507 12.128V15.656H94.1507V12.128H92.1507ZM99.5692 29.024L99.5393 30.0236L99.5543 30.024H99.5692V29.024ZM97.1692 20.984H98.1692V19.984H97.1692V20.984ZM95.7292 19.928L94.7409 20.0801L94.7429 20.0935L94.7454 20.1069L95.7292 19.928ZM95.9692 17.816L95.0437 17.4374L95.0401 17.4462L95.0367 17.455L95.9692 17.816ZM98.9452 17.192L98.4308 18.0495V18.0495L98.9452 17.192ZM99.9052 18.056L99.0311 18.5416L99.626 19.6124L100.556 18.8153L99.9052 18.056ZM101.849 20.864L102.255 21.7778L102.276 21.7686L102.296 21.7584L101.849 20.864ZM101.297 21.152L100.673 20.3711L100.297 20.6714V21.152H101.297ZM100.297 28.856C100.297 28.3854 100.61 28.1352 100.708 28.0687C100.817 27.9943 100.906 27.9704 100.909 27.9695C100.929 27.9637 100.896 27.9743 100.768 27.9867C100.53 28.0098 100.138 28.024 99.5692 28.024V30.024C100.153 30.024 100.624 30.0102 100.962 29.9773C101.122 29.9617 101.305 29.9373 101.469 29.8895C101.544 29.8676 101.688 29.8209 101.833 29.7221C101.967 29.631 102.297 29.3546 102.297 28.856H100.297ZM99.5992 28.0245C98.8053 28.0006 98.2376 27.9675 97.8786 27.928C97.6916 27.9074 97.6035 27.8894 97.5799 27.8831C97.5602 27.8778 97.6245 27.8915 97.7149 27.9449C97.7482 27.9645 98.1692 28.2078 98.1692 28.76H96.1692C96.1692 29.3442 96.6153 29.6183 96.6986 29.6674C96.839 29.7502 96.9783 29.7922 97.0586 29.8139C97.235 29.8616 97.4469 29.8926 97.6599 29.916C98.1009 29.9645 98.7332 29.9994 99.5393 30.0236L99.5992 28.0245ZM98.1692 28.76V20.984H96.1692V28.76H98.1692ZM97.1692 19.984H96.5452V21.984H97.1692V19.984ZM96.5452 19.984C96.5872 19.984 96.6501 19.9942 96.7157 20.0278C96.7793 20.0603 96.8121 20.0976 96.8205 20.1086C96.8266 20.1164 96.8114 20.099 96.7874 20.0358C96.7637 19.9733 96.737 19.8803 96.7131 19.7491L94.7454 20.1069C94.8225 20.5309 94.962 20.9743 95.238 21.3314C95.5481 21.7328 96.0035 21.984 96.5452 21.984V19.984ZM96.7176 19.7759C96.6933 19.6177 96.6812 19.4605 96.6812 19.304H94.6812C94.6812 19.5635 94.7012 19.8223 94.7409 20.0801L96.7176 19.7759ZM96.6812 19.304C96.6812 18.9401 96.7511 18.5662 96.9018 18.177L95.0367 17.455C94.8034 18.0578 94.6812 18.6759 94.6812 19.304H96.6812ZM96.8948 18.1946C96.9944 17.9511 97.0893 17.8494 97.1391 17.8103C97.1746 17.7824 97.2172 17.76 97.3132 17.76V15.76C96.8013 15.76 96.3159 15.9136 95.9034 16.2377C95.5052 16.5506 95.2321 16.9769 95.0437 17.4374L96.8948 18.1946ZM97.3132 17.76C97.7562 17.76 98.1195 17.8627 98.4308 18.0495L99.4597 16.3345C98.811 15.9453 98.0863 15.76 97.3132 15.76V17.76ZM98.4308 18.0495C98.8528 18.3027 98.9967 18.4797 99.0311 18.5416L100.779 17.5704C100.494 17.0563 99.9977 16.6573 99.4597 16.3345L98.4308 18.0495ZM100.556 18.8153C101.373 18.1146 102.339 17.76 103.505 17.76V15.76C101.887 15.76 100.453 16.2694 99.2545 17.2967L100.556 18.8153ZM103.505 17.76C104.731 17.76 105.396 18.0883 105.76 18.5266L107.299 17.2494C106.414 16.1837 105.063 15.76 103.505 15.76V17.76ZM105.76 18.5266C106.158 19.0066 106.465 19.9472 106.465 21.584H108.465C108.465 19.7968 108.148 18.2734 107.299 17.2494L105.76 18.5266ZM106.465 21.584V28.784H108.465V21.584H106.465ZM106.465 28.784C106.465 28.4744 106.615 28.253 106.734 28.1361C106.839 28.0342 106.934 27.9943 106.95 27.9876C106.985 27.9731 106.958 27.9891 106.811 28.0096C106.538 28.0477 106.079 28.072 105.401 28.072V30.072C106.1 30.072 106.672 30.0483 107.087 29.9904C107.285 29.9629 107.516 29.9189 107.722 29.8324C107.825 29.7897 107.984 29.7108 108.132 29.5669C108.294 29.408 108.465 29.1416 108.465 28.784H106.465ZM105.401 28.072C104.732 28.072 104.279 28.0477 104.011 28.0098C103.867 27.9895 103.842 27.9738 103.879 27.9892C103.896 27.9965 103.992 28.0372 104.096 28.1402C104.216 28.2583 104.361 28.4786 104.361 28.784H102.361C102.361 29.1374 102.528 29.4027 102.69 29.5628C102.837 29.7078 102.996 29.7875 103.099 29.8308C103.305 29.9182 103.536 29.9625 103.731 29.9902C104.143 30.0483 104.71 30.072 105.401 30.072V28.072ZM104.361 28.784V21.848H102.361V28.784H104.361ZM104.361 21.848C104.361 21.362 104.282 20.8192 103.97 20.3745C103.614 19.8649 103.072 19.648 102.521 19.648V21.648C102.542 21.648 102.513 21.6515 102.459 21.6259C102.4 21.5978 102.356 21.5558 102.332 21.5215C102.312 21.4935 102.322 21.4932 102.335 21.5502C102.348 21.6075 102.361 21.7031 102.361 21.848H104.361ZM102.521 19.648C102.116 19.648 101.716 19.8127 101.402 19.9696L102.296 21.7584C102.41 21.7015 102.49 21.67 102.539 21.654C102.594 21.6363 102.582 21.648 102.521 21.648V19.648ZM101.443 19.9502C101.178 20.0681 100.871 20.2126 100.673 20.3711L101.922 21.9329C101.896 21.9538 101.883 21.9608 101.895 21.9532C101.905 21.9473 101.925 21.9358 101.958 21.9186C102.024 21.8838 102.122 21.8372 102.255 21.7778L101.443 19.9502ZM100.297 21.152V28.856H102.297V21.152H100.297ZM111.276 27.512L110.511 28.1558L110.516 28.1618L111.276 27.512ZM111.66 18.464L110.953 17.7569L111.66 18.464ZM120.684 18.008H121.684V17.4787L121.246 17.1811L120.684 18.008ZM119.244 32.672L118.699 31.8335L118.689 31.84L119.244 32.672ZM111.516 33.056L110.593 33.4406L110.77 33.8653L111.207 34.0072L111.516 33.056ZM111.78 29.768L112.177 28.8503L111.429 28.5262L110.961 29.1945L111.78 29.768ZM116.532 28.808H117.532V27.6048L116.349 27.8249L116.532 28.808ZM114.996 25.088L115.603 24.2936L115.595 24.287L115.586 24.2806L114.996 25.088ZM116.532 25.328L116.757 26.3024L117.532 26.1235V25.328H116.532ZM116.532 20.768H117.532V19.9872L116.775 19.7979L116.532 20.768ZM114.876 28C113.555 28 112.658 27.5895 112.036 26.8622L110.516 28.1618C111.59 29.4185 113.093 30 114.876 30V28ZM112.041 26.8682C111.403 26.1097 111.004 24.8984 111.004 23.072H109.004C109.004 25.1496 109.453 26.8983 110.511 28.1558L112.041 26.8682ZM111.004 23.072C111.004 21.2964 111.496 20.0417 112.367 19.1711L110.953 17.7569C109.616 19.0943 109.004 20.9116 109.004 23.072H111.004ZM112.367 19.1711C113.269 18.2691 114.479 17.784 116.1 17.784V15.784C114.041 15.784 112.291 16.4189 110.953 17.7569L112.367 19.1711ZM116.1 17.784C117.811 17.784 119.128 18.1594 120.122 18.8349L121.246 17.1811C119.84 16.2246 118.101 15.784 116.1 15.784V17.784ZM119.684 18.008V29.96H121.684V18.008H119.684ZM119.684 29.96C119.684 30.8194 119.364 31.4015 118.699 31.8336L119.789 33.5104C121.044 32.6945 121.684 31.4686 121.684 29.96H119.684ZM118.689 31.84C117.937 32.3417 116.914 32.632 115.548 32.632V34.632C117.19 34.632 118.631 34.2823 119.799 33.5041L118.689 31.84ZM115.548 32.632C114.128 32.632 112.891 32.4505 111.825 32.1048L111.207 34.0072C112.509 34.4295 113.96 34.632 115.548 34.632V32.632ZM112.439 32.6714C112.312 32.3672 112.276 32.157 112.276 32.024H110.276C110.276 32.499 110.4 32.9768 110.593 33.4406L112.439 32.6714ZM112.276 32.024C112.276 31.0695 112.44 30.5688 112.599 30.3415L110.961 29.1945C110.448 29.9272 110.276 30.9305 110.276 32.024H112.276ZM111.383 30.6857C112.585 31.2062 113.865 31.464 115.212 31.464V29.464C114.127 29.464 113.119 29.2578 112.177 28.8503L111.383 30.6857ZM115.212 31.464C115.74 31.464 116.315 31.3759 116.78 31.0457C117.309 30.6708 117.532 30.1057 117.532 29.528H115.532C115.532 29.5668 115.525 29.5528 115.545 29.5121C115.566 29.4661 115.599 29.4316 115.624 29.4143C115.642 29.4014 115.63 29.4156 115.559 29.4323C115.488 29.4491 115.376 29.464 115.212 29.464V31.464ZM117.532 29.528V28.808H115.532V29.528H117.532ZM116.349 27.8249C115.687 27.9481 115.203 28 114.876 28V30C115.381 30 116.001 29.9239 116.715 29.7911L116.349 27.8249ZM115.98 19.696C115.151 19.696 114.416 20.0328 113.941 20.7492C113.513 21.3934 113.372 22.2331 113.372 23.12H115.372C115.372 22.3909 115.499 22.0186 115.607 21.8548C115.668 21.7632 115.737 21.696 115.98 21.696V19.696ZM113.372 23.12C113.372 24.1658 113.568 25.2831 114.406 25.8954L115.586 24.2806C115.599 24.2902 115.542 24.2584 115.481 24.0658C115.419 23.8695 115.372 23.5645 115.372 23.12H113.372ZM114.389 25.8824C114.789 26.1887 115.269 26.4 115.812 26.4V24.4C115.811 24.4 115.747 24.4033 115.603 24.2936L114.389 25.8824ZM115.812 26.4C116.14 26.4 116.458 26.3713 116.757 26.3024L116.307 24.3536C116.19 24.3807 116.028 24.4 115.812 24.4V26.4ZM117.532 25.328V20.768H115.532V25.328H117.532ZM116.775 19.7979C116.513 19.7324 116.247 19.696 115.98 19.696V21.696C116.065 21.696 116.167 21.7076 116.289 21.7381L116.775 19.7979Z" fill="black"/>
<rect x="0.5" y="0.5" width="161" height="47" rx="7.5" stroke="black"/>
</svg>
