<svg width="25" height="20" viewBox="0 0 25 20" fill="none" xmlns="http://www.w3.org/2000/svg">
<path d="M24.6602 2.35752C23.7614 2.75565 22.8082 3.01699 21.8321 3.13283C22.8488 2.52346 23.6295 1.55849 23.9971 0.408739C23.0306 0.982287 21.9731 1.38639 20.8704 1.60358C19.9722 0.646676 18.6926 0.048645 17.2763 0.048645C14.557 0.048645 12.3523 2.25327 12.3523 4.97239C12.3523 5.35836 12.3959 5.73411 12.4798 6.09458C8.38759 5.88918 4.75947 3.92896 2.33087 0.949957C1.90712 1.67718 1.66431 2.52308 1.66431 3.42533C1.66431 5.13364 2.53366 6.64068 3.85478 7.52371C3.07286 7.49922 2.30814 7.28803 1.62447 6.90777C1.62419 6.92839 1.62419 6.94902 1.62419 6.96974C1.62419 9.35539 3.32144 11.3455 5.57387 11.7979C4.8488 11.9951 4.08825 12.0239 3.35031 11.8822C3.97684 13.8384 5.79531 15.2619 7.94988 15.3018C6.26472 16.6223 4.14156 17.4095 1.83475 17.4095C1.43725 17.4095 1.04538 17.3862 0.660156 17.3407C2.83919 18.7378 5.42734 19.553 8.20797 19.553C17.2649 19.553 22.2174 12.05 22.2174 5.54343C22.2174 5.32986 22.2127 5.11752 22.2032 4.90639C23.1671 4.20954 23.9991 3.34641 24.6602 2.35752Z" fill="white"/>
</svg>
