<svg width="16" height="14" viewBox="0 0 16 14" fill="none" xmlns="http://www.w3.org/2000/svg">
<mask id="path-1-outside-1_742_6299" maskUnits="userSpaceOnUse" x="-0.0012207" y="-0.18457" width="16" height="14" fill="black">
<rect fill="white" x="-0.0012207" y="-0.18457" width="16" height="14"/>
<path fill-rule="evenodd" clip-rule="evenodd" d="M6.14797 4.68299H14.0143C14.5495 4.68299 14.9835 5.11698 14.9835 5.65217V8.35173C14.9835 8.88702 14.5495 9.32093 14.0143 9.32093H6.18081L7.10256 10.9175C7.37027 11.3811 7.21137 11.9738 6.74781 12.2414L5.42676 13.0041C4.96322 13.2718 4.37043 13.113 4.10279 12.6493L1.13018 7.50064C1.03738 7.33991 0.995856 7.16365 1.00053 6.99079C0.989516 6.80776 1.03023 6.61957 1.12875 6.44887L4.10139 1.30016C4.36904 0.836599 4.96175 0.677811 5.42537 0.945454L6.74637 1.70809C7.20996 1.97572 7.36879 2.5685 7.10113 3.03207L6.14797 4.68299Z"/>
</mask>
<path fill-rule="evenodd" clip-rule="evenodd" d="M6.14797 4.68299H14.0143C14.5495 4.68299 14.9835 5.11698 14.9835 5.65217V8.35173C14.9835 8.88702 14.5495 9.32093 14.0143 9.32093H6.18081L7.10256 10.9175C7.37027 11.3811 7.21137 11.9738 6.74781 12.2414L5.42676 13.0041C4.96322 13.2718 4.37043 13.113 4.10279 12.6493L1.13018 7.50064C1.03738 7.33991 0.995856 7.16365 1.00053 6.99079C0.989516 6.80776 1.03023 6.61957 1.12875 6.44887L4.10139 1.30016C4.36904 0.836599 4.96175 0.677811 5.42537 0.945454L6.74637 1.70809C7.20996 1.97572 7.36879 2.5685 7.10113 3.03207L6.14797 4.68299Z" fill="#7E829D"/>
<path d="M6.14797 4.68299L5.71496 4.43299L5.28195 5.18299H6.14797V4.68299ZM6.18081 9.32093V8.82093H5.31478L5.74779 9.57093L6.18081 9.32093ZM7.10256 10.9175L6.66955 11.1675L6.66956 11.1675L7.10256 10.9175ZM6.74781 12.2414L6.99781 12.6745L6.99784 12.6744L6.74781 12.2414ZM5.42676 13.0041L5.17676 12.5711L5.17676 12.5711L5.42676 13.0041ZM4.10279 12.6493L4.53582 12.3994L4.5358 12.3993L4.10279 12.6493ZM1.13018 7.50064L1.56319 7.25064L1.56319 7.25064L1.13018 7.50064ZM1.00053 6.99079L1.50035 7.0043L1.50094 6.98251L1.49963 6.96075L1.00053 6.99079ZM1.12875 6.44887L0.695741 6.19887L0.695705 6.19893L1.12875 6.44887ZM4.10139 1.30016L3.66838 1.05015L3.66838 1.05016L4.10139 1.30016ZM5.42537 0.945454L5.67537 0.512435L5.67535 0.512429L5.42537 0.945454ZM6.74637 1.70809L6.49638 2.14111L6.49639 2.14111L6.74637 1.70809ZM7.10113 3.03207L6.66813 2.78206L6.66812 2.78207L7.10113 3.03207ZM6.14797 5.18299H14.0143V4.18299H6.14797V5.18299ZM14.0143 5.18299C14.2734 5.18299 14.4835 5.39311 14.4835 5.65217H15.4835C15.4835 4.84085 14.8257 4.18299 14.0143 4.18299V5.18299ZM14.4835 5.65217V8.35173H15.4835V5.65217H14.4835ZM14.4835 8.35173C14.4835 8.61086 14.2734 8.82093 14.0143 8.82093V9.82093C14.8256 9.82093 15.4835 9.16317 15.4835 8.35173H14.4835ZM14.0143 8.82093H6.18081V9.82093H14.0143V8.82093ZM5.74779 9.57093L6.66955 11.1675L7.53558 10.6675L6.61382 9.07093L5.74779 9.57093ZM6.66956 11.1675C6.79915 11.3919 6.72229 11.6788 6.49779 11.8084L6.99784 12.6744C7.70045 12.2687 7.9414 11.3703 7.53557 10.6674L6.66956 11.1675ZM6.49782 11.8084L5.17676 12.5711L5.67675 13.4372L6.99781 12.6745L6.49782 11.8084ZM5.17676 12.5711C4.95236 12.7007 4.66539 12.6238 4.53582 12.3994L3.66976 12.8993C4.07547 13.6021 4.97407 13.8429 5.67676 13.4372L5.17676 12.5711ZM4.5358 12.3993L1.56319 7.25064L0.69717 7.75064L3.66978 12.8993L4.5358 12.3993ZM1.56319 7.25064C1.51788 7.17215 1.4981 7.08748 1.50035 7.0043L0.500714 6.97727C0.493614 7.23981 0.556887 7.50767 0.697172 7.75065L1.56319 7.25064ZM1.49963 6.96075C1.49432 6.8725 1.51373 6.7821 1.5618 6.69881L0.695705 6.19893C0.546738 6.45703 0.484715 6.74302 0.501434 7.02082L1.49963 6.96075ZM1.56176 6.69888L4.5344 1.55016L3.66838 1.05016L0.695741 6.19887L1.56176 6.69888ZM4.5344 1.55016C4.66395 1.32579 4.95087 1.24886 5.1754 1.37848L5.67535 0.512429C4.97264 0.106761 4.07412 0.34741 3.66838 1.05015L4.5344 1.55016ZM5.17538 1.37847L6.49638 2.14111L6.99636 1.27507L5.67537 0.512435L5.17538 1.37847ZM6.49639 2.14111C6.72081 2.27067 6.79771 2.55764 6.66813 2.78206L7.53414 3.28208C7.93988 2.57936 7.69911 1.68076 6.99635 1.27506L6.49639 2.14111ZM6.66812 2.78207L5.71496 4.43299L6.58099 4.93299L7.53415 3.28207L6.66812 2.78207Z" fill="black" mask="url(#path-1-outside-1_742_6299)"/>
</svg>
