<svg width="22" height="18" viewBox="0 0 22 18" fill="none" xmlns="http://www.w3.org/2000/svg">
<path d="M16.5 13H21V16.75C20.9996 17.0814 20.8678 17.3991 20.6335 17.6335C20.3991 17.8678 20.0814 17.9996 19.75 18H1.25C0.918594 17.9996 0.600868 17.8678 0.366528 17.6335C0.132188 17.3991 0.000372204 17.0814 0 16.75V2C0.000579021 1.46974 0.211479 0.961373 0.586426 0.586426C0.961373 0.211479 1.46974 0.000579021 2 0H15.75C16.0814 0.000372204 16.3991 0.132188 16.6335 0.366527C16.8678 0.600867 16.9996 0.918594 17 1.25V2H2.5C2.36739 2 2.24021 2.05268 2.14645 2.14645C2.05268 2.24021 2 2.36739 2 2.5C2 2.63261 2.05268 2.75979 2.14645 2.85355C2.24021 2.94732 2.36739 3 2.5 3H19.75C20.0814 3.00037 20.3991 3.13219 20.6335 3.36653C20.8678 3.60087 20.9996 3.91859 21 4.25V8H16.5C15.1216 8 14 9.12156 14 10.5C14 11.8784 15.1216 13 16.5 13ZM21.125 8H21V9H16.5C16.1022 9 15.7206 9.15804 15.4393 9.43934C15.158 9.72064 15 10.1022 15 10.5C15 10.8978 15.158 11.2794 15.4393 11.5607C15.7206 11.842 16.1022 12 16.5 12H21V13H21.125C21.357 12.9998 21.5794 12.9075 21.7434 12.7434C21.9075 12.5794 21.9998 12.357 22 12.125V8.875C21.9998 8.64301 21.9075 8.4206 21.7434 8.25656C21.5794 8.09251 21.357 8.00025 21.125 8Z" fill="black"/>
</svg>
