<svg width="36" height="36" viewBox="0 0 36 36" fill="none" xmlns="http://www.w3.org/2000/svg">
<path d="M36 18C36 8.05886 27.9411 0 18 0C8.05886 0 0 8.05886 0 18C0 27.9411 8.05886 36 18 36C27.9411 36 36 27.9411 36 18Z" fill="#3389FB"/>
<path d="M11.1348 13.2841C14.9264 9.57185 21.0737 9.57185 24.8653 13.2841L25.3216 13.7309C25.5112 13.9165 25.5112 14.2174 25.3216 14.403L23.7606 15.9314C23.6658 16.0242 23.5121 16.0242 23.4173 15.9314L22.7894 15.3165C20.1443 12.7268 15.8558 12.7268 13.2107 15.3165L12.5382 15.975C12.4434 16.0678 12.2897 16.0678 12.1949 15.975L10.6339 14.4467C10.4443 14.261 10.4443 13.9601 10.6339 13.7745L11.1348 13.2841ZM28.0935 16.4448L29.4828 17.8051C29.6724 17.9907 29.6724 18.2916 29.4828 18.4772L23.2185 24.6107C23.0289 24.7963 22.7215 24.7963 22.5319 24.6107L18.0859 20.2576C18.0385 20.2112 17.9616 20.2112 17.9142 20.2576L13.4682 24.6107C13.2787 24.7963 12.9713 24.7963 12.7817 24.6107L6.5172 18.4772C6.3276 18.2916 6.3276 17.9906 6.5172 17.805L7.90646 16.4448C8.09606 16.2592 8.40341 16.2592 8.59298 16.4448L13.0391 20.7979C13.0865 20.8443 13.1634 20.8443 13.2108 20.7979L17.6567 16.4448C17.8463 16.2591 18.1536 16.2591 18.3432 16.4448L22.7893 20.7979C22.8367 20.8443 22.9136 20.8443 22.961 20.7979L27.407 16.4448C27.5966 16.2593 27.9039 16.2593 28.0935 16.4448Z" fill="white"/>
</svg>
