<svg width="36" height="36" viewBox="0 0 36 36" fill="none" xmlns="http://www.w3.org/2000/svg">
<path d="M18 36C27.9411 36 36 27.9411 36 18C36 8.05887 27.9411 0 18 0C8.05887 0 0 8.05887 0 18C0 27.9411 8.05887 36 18 36Z" fill="white"/>
<path d="M29.1601 6.34337L19.4782 13.5187L21.2768 9.29004L29.1601 6.34337Z" fill="#E17726"/>
<path d="M6.84961 6.34337L16.4358 13.5857L14.7233 9.29004L6.84961 6.34337Z" fill="#E27625"/>
<path d="M25.6776 22.9802L23.1041 26.9219L28.6147 28.443L30.1837 23.0663L25.6776 22.9802Z" fill="#E27625"/>
<path d="M5.82587 23.0663L7.3853 28.443L12.896 26.9219L10.332 22.9802L5.82587 23.0663Z" fill="#E27625"/>
<path d="M12.5994 16.3219L11.0591 18.6372L16.5219 18.8859L16.3306 13.0022L12.5994 16.3219Z" fill="#E27625"/>
<path d="M23.4103 16.3219L19.6122 12.9352L19.4782 18.8859L24.941 18.6371L23.4103 16.3219Z" fill="#E27625"/>
<path d="M12.8959 26.9221L16.187 25.3243L13.3551 23.1048L12.8959 26.9221Z" fill="#E27625"/>
<path d="M19.8129 25.3243L23.104 26.9221L22.6448 23.1048L19.8129 25.3243Z" fill="#E27625"/>
<path d="M23.104 26.9222L19.8129 25.3244L20.0712 27.4675L20.0425 28.3668L23.104 26.9222Z" fill="#D5BFB2"/>
<path d="M12.8959 26.9222L15.9574 28.3668L15.9382 27.4675L16.187 25.3244L12.8959 26.9222Z" fill="#D5BFB2"/>
<path d="M16.0148 21.6889L13.2786 20.8853L15.2112 19.9955L16.0148 21.6889Z" fill="#233447"/>
<path d="M19.9852 21.6889L20.7888 19.9955L22.7405 20.8853L19.9852 21.6889Z" fill="#233447"/>
<path d="M12.896 26.9219L13.3744 22.9802L10.332 23.0663L12.896 26.9219Z" fill="#CC6228"/>
<path d="M22.6257 22.9802L23.1041 26.9219L25.6776 23.0663L22.6257 22.9802Z" fill="#CC6228"/>
<path d="M24.941 18.6371L19.4782 18.8858L19.9852 21.689L20.7889 19.9956L22.7406 20.8853L24.941 18.6371Z" fill="#CC6228"/>
<path d="M13.2787 20.8853L15.2113 19.9956L16.0149 21.689L16.5219 18.8858L11.0591 18.6371L13.2787 20.8853Z" fill="#CC6228"/>
<path d="M11.0591 18.6371L13.3552 23.1049L13.2787 20.8853L11.0591 18.6371Z" fill="#E27525"/>
<path d="M22.7405 20.8853L22.6448 23.1049L24.941 18.6371L22.7405 20.8853Z" fill="#E27525"/>
<path d="M16.5219 18.8856L16.0148 21.6888L16.6558 24.999L16.7898 20.6364L16.5219 18.8856Z" fill="#E27525"/>
<path d="M19.478 18.8856L19.2197 20.6268L19.3441 24.999L19.9851 21.6888L19.478 18.8856Z" fill="#E27525"/>
<path d="M19.9852 21.6891L19.3442 24.9993L19.813 25.3246L22.6448 23.105L22.7405 20.8854L19.9852 21.6891Z" fill="#F5841F"/>
<path d="M13.2786 20.8854L13.3552 23.105L16.187 25.3246L16.6558 24.9993L16.0148 21.6891L13.2786 20.8854Z" fill="#F5841F"/>
<path d="M20.0425 28.3666L20.0712 27.4673L19.832 27.2568H16.1678L15.9382 27.4673L15.9574 28.3666L12.8959 26.922L13.9674 27.8022L16.1392 29.3042H19.8607L22.0325 27.8022L23.104 26.922L20.0425 28.3666Z" fill="#C0AC9D"/>
<path d="M19.813 25.3243L19.3442 24.999H16.6559L16.1871 25.3243L15.9384 27.4673L16.168 27.2568H19.8322L20.0713 27.4673L19.813 25.3243Z" fill="#161616"/>
<path d="M29.5618 13.9875L30.375 10.0267L29.16 6.34337L19.8129 13.2795L23.4102 16.3218L28.4807 17.8047L29.6001 16.4941L29.1121 16.1401L29.8966 15.4321L29.3035 14.9633L30.0784 14.3797L29.5618 13.9875Z" fill="#763E1A"/>
<path d="M5.625 10.0267L6.44775 13.9875L5.92159 14.3797L6.69653 14.9633L6.10335 15.4321L6.88785 16.1401L6.39994 16.4941L7.51927 17.8047L12.5994 16.3218L16.1871 13.2795L6.8496 6.34337L5.625 10.0267Z" fill="#763E1A"/>
<path d="M28.4808 17.8047L23.4102 16.3218L24.941 18.6371L22.6448 23.1049L25.6776 23.0666H30.1837L28.4808 17.8047Z" fill="#F5841F"/>
<path d="M12.5994 16.3218L7.51925 17.8047L5.82587 23.0666H10.332L13.3552 23.1049L11.0591 18.6371L12.5994 16.3218Z" fill="#F5841F"/>
<path d="M19.4781 18.8857L19.8129 13.2794L21.2767 9.2899H14.7233L16.187 13.2794L16.5219 18.8857L16.6462 20.646L16.6558 24.9991H19.3441L19.3537 20.646L19.4781 18.8857Z" fill="#F5841F"/>
</svg>
