<svg width="18" height="16" viewBox="0 0 18 16" fill="none" xmlns="http://www.w3.org/2000/svg">
<path d="M3.34264 0.967636V0.75053H1.51859C1.22848 0.75053 1.01898 0.8575 0.891433 1.03247C0.774801 1.19247 0.753034 1.37428 0.750094 1.48163L0.749864 1.49001L0.750197 1.49839C0.802419 2.81422 1.28976 5.46041 4.13507 7.45918L4.77766 7.91059L4.5143 7.17077C3.57878 4.54271 3.53305 2.26822 3.5788 1.25053H3.64636L3.58797 0.95247L3.58796 0.952429L3.34264 0.967636Z" fill="#F2DA0E" stroke="black" stroke-width="0.5"/>
<path d="M10.2254 9.29613C9.84291 9.40475 9.45463 9.5096 9.03607 9.59888L9.03346 9.59943L9.01142 9.60403L8.98822 9.59934C8.57633 9.51209 8.18737 9.40968 7.81721 9.29739L7.49463 9.19953V9.53662V11.5851V11.8351H7.74463H10.2937H10.5437V11.5851V9.53662V9.20574L10.2254 9.29613Z" fill="#F2DA0E" stroke="black" stroke-width="0.5"/>
<path d="M13.2179 0.750029L13.2179 0.75H13.2141H4.91256C4.43909 0.75 4.13915 0.907885 3.95913 1.10295C3.87234 1.197 3.82002 1.2927 3.78907 1.36826C3.77359 1.40605 3.7632 1.43941 3.75638 1.466C3.75298 1.47926 3.75032 1.49143 3.74833 1.5022C3.74832 1.50225 3.7483 1.50235 3.74827 1.50249C3.7477 1.5054 3.74344 1.52731 3.74297 1.55195L3.74296 1.55195C3.7213 2.79132 3.85962 5.24729 4.97946 7.92985L5.01299 8.01017L5.08915 8.0523C6.12367 8.6246 7.39312 9.11007 8.95963 9.45457L9.01358 9.46643L9.0675 9.45446C10.599 9.1145 11.8438 8.63909 12.8642 8.08044L12.9409 8.03844L12.9747 7.95778C14.075 5.33226 14.2356 2.91744 14.2243 1.64564L14.2239 1.60424L14.2236 1.6034V1.50517L14.214 1.49891C14.1958 1.36816 14.1521 1.25331 14.0868 1.15501C14 1.02425 13.8844 0.936744 13.771 0.878664C13.551 0.765952 13.3151 0.751512 13.2179 0.750029Z" fill="#F2DA0E" stroke="black" stroke-width="0.5"/>
<path d="M14.6211 0.750497H14.3541L14.3716 1.01689C14.4287 1.88557 14.4663 4.33617 13.4418 7.19822L13.1762 7.93993L13.8208 7.48704C16.493 5.60966 17.1201 3.14658 17.2451 1.76228L17.2452 1.76228L17.2456 1.75597C17.2679 1.41238 17.2018 1.15884 17.0584 0.985915C16.9135 0.811161 16.7265 0.76312 16.6048 0.7516L16.4792 0.73972L16.4696 0.750497H14.6211Z" fill="#F2DA0E" stroke="black" stroke-width="0.5"/>
<path d="M10.6222 11.9673L10.6222 11.9673H7.09742C6.22682 11.9673 5.50244 12.6456 5.50244 13.4982V14.5858V14.5973L5.50351 14.6088C5.51359 14.7176 5.55575 14.8873 5.70579 15.0283C5.85703 15.1705 6.08189 15.2499 6.38827 15.2499H11.6573C11.9054 15.2499 12.0998 15.1974 12.2461 15.1007C12.395 15.0023 12.4726 14.8722 12.5101 14.7581L12.5225 14.7201V14.6802V13.4985V13.4984C12.5221 12.6449 11.7941 11.9673 10.9242 11.9673H10.6222Z" fill="#F2DA0E" stroke="black" stroke-width="0.5"/>
</svg>
